<?xml version="1.0" standalone="no"?>
<!DOCTYPE svg PUBLIC "-//W3C//DTD SVG 20010904//EN"
 "http://www.w3.org/TR/2001/REC-SVG-20010904/DTD/svg10.dtd">
<svg version="1.0" xmlns="http://www.w3.org/2000/svg"
 width="1024.000000pt" height="1024.000000pt" viewBox="0 0 1024.000000 1024.000000"
 preserveAspectRatio="xMidYMid meet">
<metadata>
Created by potrace 1.14, written by Peter Selinger 2001-2017
</metadata>
<g transform="translate(0.000000,1024.000000) scale(0.100000,-0.100000)"
fill="#000000" stroke="none">
<path d="M4930 10225 c-35 -8 -89 -23 -120 -34 -82 -28 -3893 -1617 -3964
-1653 -239 -120 -409 -326 -493 -595 l-28 -88 1 -360 c3 -1441 378 -2930 1051
-4176 754 -1397 1861 -2517 3077 -3113 333 -163 433 -196 622 -203 219 -9 332
21 640 171 1350 658 2572 1933 3315 3461 449 923 729 1921 839 2995 35 344 44
514 45 870 l0 355 -28 88 c-84 270 -254 475 -493 595 -109 55 -3947 1650
-4024 1672 -98 29 -342 37 -440 15z m455 -2890 c129 -36 228 -148 254 -290 15
-79 16 -3768 1 -3846 -31 -164 -162 -284 -337 -309 -212 -29 -387 66 -460 250
-17 42 -18 140 -23 1598 l-5 1552 -210 -155 c-236 -174 -268 -189 -390 -189
-69 0 -90 5 -146 31 -79 37 -158 114 -196 192 -25 50 -28 67 -28 156 0 87 3
107 27 157 14 31 47 77 72 102 66 66 1049 719 1116 741 107 35 219 39 325 10z"/>
</g>
</svg>
