<?xml version="1.0" encoding="UTF-8" standalone="no"?>
<!-- Created with Inkscape (http://www.inkscape.org/) -->

<svg
   width="461.31982mm"
   height="135.46683mm"
   viewBox="0 0 461.31982 135.46683"
   version="1.1"
   id="svg5"
   sodipodi:docname="logo.svg"
   inkscape:version="1.1.2 (0a00cf5339, 2022-02-04)"
   xmlns:inkscape="http://www.inkscape.org/namespaces/inkscape"
   xmlns:sodipodi="http://sodipodi.sourceforge.net/DTD/sodipodi-0.dtd"
   xmlns="http://www.w3.org/2000/svg"
   xmlns:svg="http://www.w3.org/2000/svg">
  <sodipodi:namedview
     id="namedview8"
     pagecolor="#ffffff"
     bordercolor="#666666"
     borderopacity="1.0"
     inkscape:pageshadow="2"
     inkscape:pageopacity="0.0"
     inkscape:pagecheckerboard="0"
     inkscape:document-units="mm"
     showgrid="false"
     inkscape:zoom="0.55288866"
     inkscape:cx="826.56787"
     inkscape:cy="338.22361"
     inkscape:window-width="1920"
     inkscape:window-height="1012"
     inkscape:window-x="3840"
     inkscape:window-y="0"
     inkscape:window-maximized="1"
     inkscape:current-layer="text3114"
     fit-margin-top="0"
     fit-margin-left="0"
     fit-margin-right="0"
     fit-margin-bottom="0" />
  <defs
     id="defs2" />
  <g
     id="layer1"
     transform="translate(-62.396059,-117.62322)">
    <path
       d="m 189.39606,151.48996 c 0,58.54753 -35.96587,91.18733 -58.61553,100.62316 -3.12615,1.30256 -6.64306,1.30256 -9.76921,0 -28.321792,-11.79909 -58.615261,-48.10681 -58.615261,-100.62316 -1e-5,-5.12707 3.082827,-9.75127 7.815527,-11.72316 l 50.800004,-21.16666 c 3.12615,-1.30256 6.64306,-1.30256 9.76921,0 l 50.8,21.16666 c 4.7326,1.97197 7.81531,6.59616 7.81526,11.72316 z"
       id="path824"
       style="fill:#1391ff;fill-opacity:1;stroke-width:0.264583" />
    <g
       aria-label="1"
       id="text6592"
       style="font-weight:bold;font-size:84.6667px;line-height:1.25;font-family:Quicksand;-inkscape-font-specification:'Quicksand Bold';fill:#ffffff;stroke-width:0.264583">
      <path
         d="m 127.33371,214.98997 q -2.37067,0 -3.89467,-1.43933 -1.524,-1.524 -1.524,-3.72533 v -42.67202 l 1.18534,1.86267 -6.18067,4.572 q -1.18534,0.93133 -2.96334,0.93133 -2.032,0 -3.556,-1.524 -1.524,-1.524 -1.524,-3.64067 0,-2.70933 2.62467,-4.40267 l 12.192,-8.128 q 0.84667,-0.59267 1.86267,-0.84667 1.10067,-0.254 2.032,-0.254 2.45534,0 3.89467,1.524 1.43933,1.43934 1.43933,3.64067 v 48.93736 q 0,2.20133 -1.60866,3.72533 -1.524,1.43933 -3.97934,1.43933 z"
         id="path1121" />
    </g>
    <g
       aria-label="1VPN"
       id="text3114"
       style="font-weight:bold;font-size:118.181px;line-height:1.25;font-family:Quicksand;-inkscape-font-specification:'Quicksand Bold';letter-spacing:3.96875px;stroke-width:0.264583">
      <path
         d="m 264.57521,226.89726 q -3.30906,0 -5.43632,-2.00907 -2.12726,-2.12726 -2.12726,-5.19997 V 160.125 l 1.65453,2.59998 -8.62721,6.38177 q -1.65453,1.29999 -4.13633,1.29999 -2.83635,0 -4.96361,-2.12725 -2.12725,-2.12726 -2.12725,-5.08179 0,-3.78179 3.66361,-6.14541 l 17.01806,-11.34537 q 1.18181,-0.82727 2.59998,-1.18181 1.53636,-0.35455 2.83635,-0.35455 3.42725,0 5.43632,2.12726 2.00908,2.00908 2.00908,5.08178 v 68.30862 q 0,3.07271 -2.24544,5.19997 -2.12726,2.00907 -5.55451,2.00907 z"
         id="path54104" />
      <path
         d="m 355.64335,143.9342 q 2.95453,0 5.08178,2.00908 2.24544,1.89089 2.24544,4.84542 0,1.53635 -0.70908,3.19089 l -29.19071,68.30861 q -1.06363,2.36362 -3.07271,3.54543 -1.89089,1.06363 -3.89997,1.06363 -1.89089,-0.11818 -3.66361,-1.18181 -1.77271,-1.18181 -2.71816,-3.30907 L 290.52562,153.8614 q -0.35454,-0.70908 -0.47272,-1.41817 -0.11818,-0.82726 -0.11818,-1.53635 0,-3.42725 2.4818,-5.19996 2.4818,-1.8909 4.72724,-1.8909 4.49088,0 6.49995,4.60906 l 25.88164,60.86321 -4.13633,0.11818 23.75438,-60.98139 q 2.00907,-4.49088 6.49995,-4.49088 z"
         id="path54106" />
      <path
         d="m 413.50258,144.17056 q 6.14541,0 11.46356,3.54543 5.43632,3.54543 8.74539,9.57266 3.30907,6.02723 3.30907,13.47264 0,7.32722 -3.30907,13.35445 -3.30907,6.02723 -8.74539,9.69084 -5.31815,3.54543 -11.46356,3.54543 h -21.7453 l 1.18181,-2.12726 v 24.46347 q 0,3.07271 -1.8909,5.19997 -1.8909,2.00907 -4.9636,2.00907 -2.95453,0 -4.84542,-2.00907 -1.8909,-2.12726 -1.8909,-5.19997 V 151.3796 q 0,-3.0727 2.00908,-5.08178 2.12726,-2.12726 5.19996,-2.12726 z m 0,39.70882 q 2.24544,0 4.3727,-1.8909 2.12725,-1.89089 3.54543,-4.84542 1.41817,-3.0727 1.41817,-6.38177 0,-3.42725 -1.41817,-6.38178 -1.41818,-2.95452 -3.54543,-4.72724 -2.12726,-1.89089 -4.3727,-1.89089 h -21.98167 l 1.41818,-2.12726 v 30.13615 l -1.3,-1.89089 z"
         id="path54108" />
      <path
         d="m 517.33412,144.17056 q 2.83634,0 4.60906,1.8909 1.77271,1.89089 1.77271,4.72724 v 68.89952 q 0,3.07271 -2.12726,5.19997 -2.00907,2.00907 -5.08178,2.00907 -1.53635,0 -3.19089,-0.47272 -1.53635,-0.59091 -2.36362,-1.53635 l -46.44513,-58.97232 3.07271,-1.8909 v 56.25416 q 0,2.83634 -1.8909,4.72724 -1.77272,1.89089 -4.72724,1.89089 -2.83634,0 -4.60906,-1.89089 -1.77271,-1.8909 -1.77271,-4.72724 V 151.3796 q 0,-3.0727 2.00907,-5.08178 2.12726,-2.12726 5.19997,-2.12726 1.65453,0 3.42725,0.70909 1.77271,0.5909 2.59998,1.89089 l 45.02696,57.43597 -2.00908,1.41817 V 150.7887 q 0,-2.83635 1.77272,-4.72724 1.77271,-1.8909 4.72724,-1.8909 z"
         id="path54110" />
    </g>
  </g>
</svg>
