<?xml version="1.0" encoding="UTF-8" standalone="no"?>
<!-- Created with Inkscape (http://www.inkscape.org/) -->

<svg
   width="461.31982mm"
   height="135.46683mm"
   viewBox="0 0 461.31982 135.46683"
   version="1.1"
   id="svg5"
   sodipodi:docname="logo.svg"
   inkscape:version="1.1.2 (0a00cf5339, 2022-02-04)"
   xmlns:inkscape="http://www.inkscape.org/namespaces/inkscape"
   xmlns:sodipodi="http://sodipodi.sourceforge.net/DTD/sodipodi-0.dtd"
   xmlns="http://www.w3.org/2000/svg"
   xmlns:svg="http://www.w3.org/2000/svg">
  <sodipodi:namedview
     id="namedview8"
     pagecolor="#ffffff"
     bordercolor="#666666"
     borderopacity="1.0"
     inkscape:pageshadow="2"
     inkscape:pageopacity="0.0"
     inkscape:pagecheckerboard="0"
     inkscape:document-units="mm"
     showgrid="false"
     inkscape:zoom="0.55288866"
     inkscape:cx="826.56787"
     inkscape:cy="338.22361"
     inkscape:window-width="1920"
     inkscape:window-height="1012"
     inkscape:window-x="0"
     inkscape:window-y="0"
     inkscape:window-maximized="1"
     inkscape:current-layer="layer1"
     fit-margin-top="0"
     fit-margin-left="0"
     fit-margin-right="0"
     fit-margin-bottom="0" />
  <defs
     id="defs2" />
  <g
     id="layer1"
     transform="translate(-62.396059,-117.62322)">
    <path
       d="m 189.39606,151.48996 c 0,58.54753 -35.96587,91.18733 -58.61553,100.62316 -3.12615,1.30256 -6.64306,1.30256 -9.76921,0 -28.321792,-11.79909 -58.615261,-48.10681 -58.615261,-100.62316 -1e-5,-5.12707 3.082827,-9.75127 7.815527,-11.72316 l 50.800004,-21.16666 c 3.12615,-1.30256 6.64306,-1.30256 9.76921,0 l 50.8,21.16666 c 4.7326,1.97197 7.81531,6.59616 7.81526,11.72316 z"
       id="path824"
       style="fill:#1391ff;fill-opacity:1;stroke-width:0.264583" />
    <g
       aria-label="1"
       id="text6592"
       style="font-weight:bold;font-size:84.6667px;line-height:1.25;font-family:Quicksand;-inkscape-font-specification:'Quicksand Bold';fill:#ffffff;stroke-width:0.264583">
      <path
         d="m 127.33371,214.98997 q -2.37067,0 -3.89467,-1.43933 -1.524,-1.524 -1.524,-3.72533 v -42.67202 l 1.18534,1.86267 -6.18067,4.572 q -1.18534,0.93133 -2.96334,0.93133 -2.032,0 -3.556,-1.524 -1.524,-1.524 -1.524,-3.64067 0,-2.70933 2.62467,-4.40267 l 12.192,-8.128 q 0.84667,-0.59267 1.86267,-0.84667 1.10067,-0.254 2.032,-0.254 2.45534,0 3.89467,1.524 1.43933,1.43934 1.43933,3.64067 v 48.93736 q 0,2.20133 -1.60866,3.72533 -1.524,1.43933 -3.97934,1.43933 z"
         id="path1121" />
    </g>
    <text
       xml:space="preserve"
       style="font-style:normal;font-variant:normal;font-weight:bold;font-stretch:normal;font-size:118.181px;line-height:1.25;font-family:Quicksand;-inkscape-font-specification:'Quicksand Bold';letter-spacing:3.96875px;stroke-width:0.264583"
       x="236.44814"
       y="226.89726"
       id="text3114"><tspan
         sodipodi:role="line"
         id="tspan3112"
         style="font-style:normal;font-variant:normal;font-weight:bold;font-stretch:normal;font-size:118.181px;font-family:Quicksand;-inkscape-font-specification:'Quicksand Bold';stroke-width:0.264583"
         x="236.44814"
         y="226.89726">1VPN</tspan></text>
  </g>
</svg>
