<?xml version="1.0" encoding="UTF-8" standalone="no"?>
<svg
   width="1024"
   height="593.91998"
   version="1.1"
   viewBox="0 0 1024 593.91997"
   id="svg46396"
   sodipodi:docname="map.svg"
   inkscape:version="1.1.2 (0a00cf5339, 2022-02-04)"
   xmlns:inkscape="http://www.inkscape.org/namespaces/inkscape"
   xmlns:sodipodi="http://sodipodi.sourceforge.net/DTD/sodipodi-0.dtd"
   xmlns="http://www.w3.org/2000/svg"
   xmlns:svg="http://www.w3.org/2000/svg">
  <defs
     id="defs46400" />
  <sodipodi:namedview
     id="namedview46398"
     pagecolor="#ffffff"
     bordercolor="#666666"
     borderopacity="1.0"
     inkscape:pageshadow="2"
     inkscape:pageopacity="0.0"
     inkscape:pagecheckerboard="0"
     showgrid="false"
     inkscape:zoom="0.64"
     inkscape:cx="392.1875"
     inkscape:cy="521.875"
     inkscape:window-width="1920"
     inkscape:window-height="1052"
     inkscape:window-x="1920"
     inkscape:window-y="0"
     inkscape:window-maximized="1"
     inkscape:current-layer="g46392"
     fit-margin-top="0"
     fit-margin-left="0"
     fit-margin-right="0"
     fit-margin-bottom="0" />
  <g
     transform="matrix(1.33333,0,0,-1.33333,-181.33355,2287.0575)"
     id="g46394">
    <g
       fillOpacity="1"
       fillRule="nonzero"
       stroke="none"
       transform="scale(0.1)"
       id="g46392">
      <path
         fill="#1391ff"
         opacity="0.6"
         d="m 4311.7679,17152.59 c -31.7616,-1.791 -61.8022,-10.095 -85.6001,-30.4 -36.6643,-31.245 -62.6003,-40.644 -102.0038,-17.047 -2.5402,1.524 -7.7901,-1.469 -13.2093,-2.685 -2.0893,-19.475 -4.1491,-38.611 -5.6732,-52.862 -30.0025,7.479 -56.817,14.138 -84.1395,20.94 -3.5563,-11.008 -4.6275,-14.901 -6.0669,-18.654 -4.0073,-10.557 -8.1585,-21.031 -12.2779,-31.531 -7.1423,8.298 -16.4841,15.553 -21.0291,25.094 -11.4036,23.99 -30.1146,23.709 -48.1504,1.863 -20.4067,5.561 -41.042,18.429 -56.7344,13.941 -32.6274,-9.284 -69.967,-14.903 -87.9414,-52.498 -4.1152,-8.61 -18.3194,-17.951 -27.5447,-17.638 -46.4528,1.664 -64.4991,-20.24 -57.6764,-56.396 -39.5793,-22.297 -73.9827,-41.207 -107.876,-60.964 -15.0616,-8.778 -29.1071,-19.306 -43.6119,-29.043 17.9342,-1.609 35.8747,-3.161 53.8068,-4.827 16.0755,-1.496 32.1511,-3.078 48.2224,-4.602 l -0.2053,-16.427 c -22.1637,-2.963 -44.3274,-5.899 -71.9082,-9.54 7.7372,-10.585 11.4036,-17.727 16.9477,-22.835 38.7494,-35.733 85.38,-26.474 130.77,-21.393 56.3724,6.323 76.7664,-1.127 97.2577,-53.515 18.3174,-46.766 28.4784,-96.726 41.548,-142.874 13.2368,-1.412 26.8123,-2.854 40.3899,-4.321 -0.3683,-4.064 -0.7366,-8.154 -1.0753,-12.246 a 35958.159,35958.159 0 0 1 -41.1521,-23.372 c 9.6826,-5.646 14.6213,-7.96 18.8825,-11.148 13.0696,-9.85 25.8831,-20.015 38.7812,-30.062 -11.0628,-12.9 -19.814,-29.663 -33.6456,-37.849 -32.909,-19.476 -34.9412,-48.096 -26.2196,-78.352 10.6119,-36.834 34.6617,-71.775 37.0897,-108.609 4.7694,-72.793 65.4221,-95.344 107.5352,-134.155 6.2088,-5.728 39.0352,2.85 43.9739,12.645 24.5557,48.83 50.5234,98.703 62.7166,151.286 7.8473,33.955 19.0519,46.572 50.6061,48.659 22.7775,1.524 45.4154,5.474 68.1083,8.58 26.5033,3.641 44.3422,14.085 48.0107,45.021 3.3299,28.14 18.402,46.428 52.7526,39.992 84.0251,-15.692 151.3143,26.59 177.5635,109.517 7.7647,7.574 23.0295,20.241 21.988,21.816 -11.7402,17.274 -25.8534,32.994 -39.7401,48.773 -8.0441,9.145 -16.8503,17.64 -25.2903,26.446 3.4145,3.444 6.829,6.914 10.2457,10.358 13.0103,-4.346 26.0248,-8.666 40.1359,-13.378 33.8997,29.805 68.1359,59.922 105.8163,93.057 -17.6399,10.784 -23.4254,14.962 -29.7485,18.123 -27.7734,13.859 -29.1599,30.314 -6.8332,48.718 9.5682,7.874 13.8041,22.21 20.4659,33.584 -13.2664,6.831 -26.2789,14.312 -39.9412,20.297 -9.2846,4.064 -19.4731,6.064 -29.2679,9 5.2795,10.782 8.0991,24.359 16.3698,31.811 16.2279,14.594 35.536,25.796 57.6933,41.292 -17.0768,9.822 -27.1532,15.639 -39.2617,22.612 42.1957,11.994 81.2584,20.8 118.3757,34.801 14.6191,5.504 24.8648,22.549 37.0877,34.349 -16.427,6.209 -33.163,18.319 -49.2237,17.473 -51.1438,-2.71 -103.1617,-6.241 -142.6203,-47.109 -6.6047,-6.832 -17.9511,-9.116 -35.8747,-17.697 16.9075,27.999 27.9406,46.287 38.9759,64.549 -3.3023,3.076 -6.63,6.156 -9.9599,9.23 a 89858.897,89858.897 0 0 0 -62.9432,-30.144 l -23.2009,48.743 c 27.4347,4.431 57.634,9.314 87.8355,14.198 -0.1694,4.515 -0.3641,9.062 -0.5335,13.607 -63.4491,48.997 -130.5456,-8.584 -195.7157,-10.362 -0.2265,3.472 -0.4784,6.943 -0.7324,10.415 23.0041,7.451 46.0081,14.905 76.2646,24.7 -13.0949,12.25 -19.0518,22.803 -26.4757,23.988 -14.0921,2.231 -28.5376,4.018 -42.943,4.88 -10.8024,0.645 -21.5815,0.774 -32.1701,0.177 z m -690.2285,-54.556 c -28.6625,0.699 -55.3774,-4.458 -73.2566,-38.053 a 20591.869,20591.869 0 0 1 -31.5541,29.467 c -17.0261,-4.291 -29.6215,-10.813 -41.5966,-9.822 -26.571,2.172 -49.4883,3.696 -67.6003,-23.258 -4.9641,-7.397 -28.508,-3.698 -43.3536,-2.655 -14.742,1.044 -31.1414,10.781 -43.487,6.69 -23.3238,-7.763 -44.2639,-22.693 -68.4153,-35.848 39.9073,-111.686 124.25,-49.587 195.9105,-38.525 l 1.7866,-14.168 c -17.4092,-4.318 -35.5826,-6.744 -52.0032,-13.463 -15.559,-6.378 -29.2763,-17.219 -48.4193,-28.934 -6.8586,2.625 -21.6344,8.275 -37.8497,14.456 -13.167,-32.544 30.9254,-69.067 -18.2242,-89.728 -27.7564,-11.685 -52.2445,-31.135 -86.4807,-52.189 7.8176,-7.847 21.0481,-33.078 36.967,-34.914 50.4854,-5.813 102.5266,-7.648 152.8977,-1.805 39.6427,4.6 48.432,36.467 33.3366,60.261 31.5753,30.059 60.0536,60.144 91.9189,86.055 12.7881,10.415 34.467,18.882 49.6154,15.834 64.209,-12.87 115.738,35.761 100.8267,99.436 26.7912,3.726 54.0672,5.449 80.0899,12.081 12.824,3.275 23.3322,15.635 34.8861,23.879 -14.3482,9.341 -27.7099,24.047 -43.2541,26.899 -30.5931,5.616 -62.4224,4.261 -93.6887,6.49 -9.7291,0.699 -19.4985,1.581 -29.052,1.814 z m 3175.7432,-78.388 c -1.5792,-0.06 -3.0462,-0.315 -4.3608,-0.791 -24.0773,-8.722 -45.0175,-26.051 -68.4725,-40.644 18.6561,-36.55 40.5022,-57.973 82.4164,-27.01 10.47,7.714 25.9931,8.61 39.3823,12.346 -3.8654,13.285 -4.274,29.998 -12.8219,38.658 -8.5691,8.692 -25.0934,17.841 -36.1435,17.439 z m 48.9633,-56.097 c 0.042,-0.14 0.064,-0.296 0.1058,-0.436 h 0.1271 l 0.6266,0.567 0.1524,0.11 c -0.326,-0.1 -0.6817,-0.152 -1.0098,-0.243 z m 0.2329,-0.436 c -15.0214,-13.576 -29.9602,-27.1 -49.2661,-44.571 37.5111,-20.603 71.8044,-37.816 117.6136,-20.684 -16.0141,32.905 -24.7992,66.845 -68.3475,65.255 z m -3669.3986,43.445 c -3.9268,0.116 -6.8714,-0.494 -8.1648,-2.066 -17.8368,-21.593 -29.8966,-49.256 -38.381,-76.437 -2.2778,-7.282 15.5357,-21.391 24.8965,-31.666 14.5049,-15.889 29.6723,-31.217 44.5603,-46.798 38.0931,3.811 56.2581,15.947 66.0465,45.357 14.0814,42.31 6.1855,64.778 -45.4282,97.321 -11.1644,7.049 -31.751,13.939 -43.5293,14.289 z m 2235.3741,-29.946 a 440.41597,440.41597 0 0 1 -20.9571,-0.235 c -15.468,-0.565 -30.737,-6.884 -46.1203,-10.639 8.4399,-16.512 14.3397,-35.284 26.2789,-48.663 7.0005,-7.817 23.6497,-6.996 47.4137,-12.923 20.267,11.431 47.109,25.542 72.6237,41.8 4.854,3.103 4.4327,14.564 6.4374,22.155 -7.5636,1.947 -15.0721,5.197 -22.6929,5.62 -20.9782,1.185 -42.0052,2.652 -62.9834,2.885 z m -2359.677,-11.949 c -5.4107,-5.39 -10.8215,-10.754 -16.2322,-16.144 7.8811,-10.952 15.758,-21.903 23.6413,-32.854 l 30.4089,22.27 c -12.6081,8.918 -25.2099,17.809 -37.818,26.728 z m 2250.9373,-7.562 c -14.3651,0.09 -28.7895,-12.674 -51.7914,-24.302 -7.6504,0.762 -24.1049,1.497 -40.1932,4.431 -9.0877,1.638 -22.8622,12.024 -25.2606,9.539 -7.7626,-8.015 -16.5709,-21.055 -15.0468,-30.568 2.4831,-15.496 10.3875,-39.852 20.3792,-42.223 16.5391,-3.952 36.5224,6.549 61.3322,12.477 -34.8586,-37.907 3.9543,-54.984 20.6353,-78.551 5.7008,-8.044 17.4685,-11.798 26.444,-17.528 4.7418,9.344 9.0052,18.967 14.3673,27.97 9.5111,15.976 19.6996,31.554 29.6066,47.304 8.8909,-12.081 17.7838,-24.19 28.4254,-38.612 11.0649,-0.508 27.4918,-3.472 43.1271,-1.101 9.4561,1.412 21.0841,9.374 25.176,17.642 2.7371,5.504 -3.7786,20.972 -10.2986,24.613 -18.4316,10.36 -40.2799,14.818 -58.3432,25.657 -14.761,8.891 -26.0524,23.537 -38.7537,35.788 -10.0467,9.653 -19.8414,27.434 -29.8056,27.464 z m 1652.3485,-30.426 c -8.747,1.44 -26.19,-28.705 -32.5703,-46.967 -1.9475,-5.561 19.869,-19.393 38.5271,-36.554 20.7729,19.532 36.1266,33.984 51.4528,48.407 -18.9672,12.701 -36.9183,31.755 -57.4096,35.114 z m -4010.0801,-9.117 c -17.0048,-11.177 -28.5249,-18.713 -40.0428,-26.279 8.3193,-11.374 15.5971,-23.734 25.267,-33.811 9.2762,-9.682 20.0003,-21.425 31.9585,-24.191 16.156,-3.754 34.0986,0.199 51.2771,0.846 -1.8629,12.702 0.7726,29.806 -6.4882,37.145 -16.8377,17.02 -38.4573,29.298 -61.9716,46.292 z m -152.5357,-11.732 a 20.118786,20.118786 0 0 1 -5.2287,-0.605 c -17.6441,-4.573 -32.0431,-21.677 -47.8414,-33.39 l 8.4676,-13.971 80.3714,15.665 c 1.9263,5.815 3.8527,11.632 5.779,17.475 -13.7745,4.642 -28.9504,14.708 -41.5479,14.826 z m 295.0247,-9.424 a 7.0745983,7.0745983 0 0 1 -1.8374,-0.182 c -13.4739,-3.188 -32.5364,-22.185 -32.0834,-33.758 0.4679,-11.939 20.1103,-29.412 33.9357,-32.318 9.202,-1.948 22.9088,17.333 42.6233,33.844 -19.2657,14.765 -33.1778,32.158 -42.6382,32.414 z m -266.5866,-45.314 c -77.1961,-8.326 -77.1961,-8.326 -65.8708,-56.844 15.974,27.574 65.6824,5.954 65.8708,56.844 z m 4175.2154,-6.802 c -14.1132,-3.272 -25.1464,-25.345 -34.7146,-40.898 -5.3621,-8.664 -4.9408,-20.859 -7.5657,-33.588 -7.5361,1.382 -14.1662,3.499 -20.9127,3.726 -35.7603,1.24 -78.8599,14.9 -105.505,-0.229 -36.2685,-20.576 -75.4201,-12.189 -109.2626,-29.323 -14.8753,-7.536 -29.0985,-16.399 -43.6076,-24.64 8.44,-12.505 16.8821,-25.039 30.0617,-44.542 -29.3526,0 -54.8694,2.992 -79.1415,-1.157 -13.7745,-2.371 -33.6435,-14.704 -35.9572,-25.685 -2.3709,-11.177 12.2186,-27.096 21.5604,-39.289 14.1407,-18.459 30.1464,-35.476 45.3604,-53.116 -33.4467,15.381 -59.0185,36.607 -87.6387,52.244 -6.7189,3.641 -25.828,-9.653 -35.0872,-19.164 -4.0919,-4.206 2.174,-18.463 3.7257,-28.144 -4.1216,-2.005 -8.2706,-3.98 -12.3922,-5.955 -18.2602,28.536 -36.5224,57.042 -55.4896,86.708 -4.5725,-7.34 -9.2275,-11.317 -8.747,-14.535 6.6322,-45.074 13.1797,-90.211 22.4093,-134.777 0.9314,-4.488 20.0108,-9.484 28.9588,-7.282 34.4903,8.525 43.8913,3.472 49.9583,-32.092 -47.1047,25.064 -46.5713,24.867 -67.1769,-27.998 -5.559,-14.31 -12.388,-31.469 -24.016,-39.175 -12.9828,-8.609 -32.1215,-7.934 -48.5759,-11.321 -3.6707,4.602 -7.3138,9.204 -10.9824,13.777 81.0065,18.544 68.3624,63.646 42.255,112.897 -1.8629,3.472 -0.3663,8.582 -1.2977,12.761 -9.2867,41.687 -16.2851,84.167 -29.5791,124.584 -4.4306,13.491 -25.4872,30.314 -38.1609,29.696 -11.7423,-0.566 -24.9791,-21.002 -32.9111,-35.257 -7.3392,-13.264 -3.5267,-36.213 -13.2939,-44.031 -44.1708,-35.197 -13.4909,-61.728 6.1241,-90.742 9.3439,-13.802 17.5573,-28.394 26.2789,-42.646 -3.2452,-3.783 -6.465,-7.598 -9.6826,-11.379 -42.0263,57.692 -96.4703,78.325 -163.3932,65.369 1.7232,-18.683 3.1902,-34.771 4.6847,-50.832 -2.7647,-0.481 -5.5039,-0.932 -8.2685,-1.38 -7.2546,9.284 -14.4816,18.599 -17.3605,22.269 -25.7688,-6.579 -46.1479,-13.577 -67.1198,-16.765 -54.9816,-8.358 -112.6982,-4.971 -154.388,-54.62 -15.6924,-18.684 -33.362,-13.065 -37.3713,14.905 -5.1377,35.79 -26.6155,41.944 -61.5588,30.794 10.2457,-30.538 19.7865,-58.906 25.9106,-77.196 -29.1557,-7.845 -52.1598,-16.342 -75.926,-20.011 -52.8943,-8.156 21.5371,-50.466 -14.9303,-51.652 -16.681,7.818 -33.3916,15.638 -50.0726,23.455 -1.2701,-17.612 -2.5656,-35.199 -3.8082,-52.528 -31.387,19.814 -48.4363,53.261 -50.1022,90.856 30.0871,0 58.4278,-3.867 84.7914,1.666 12.9256,2.71 27.9703,21.565 31.0757,35.564 2.0026,9.145 -13.7448,25.375 -25.0363,33.531 -14.8456,10.726 -35.2248,14.001 -49.5941,25.121 -44.2004,34.266 -112.5882,30.653 -140.6431,90.15 -1.7507,3.725 -12.4748,7.817 -14.6192,6.124 -33.2772,-26.053 -66.0782,11.968 -101.2459,0.256 v -24.387 h -89.1903 c 15.214,-19.756 21.9901,-28.565 34.776,-45.216 -33.5038,-16.654 -62.4055,-40.392 -93.9617,-44.656 -55.35,-7.506 -78.5509,-48.006 -96.5867,-86.844 -26.7573,-57.664 -61.7577,-101.102 -121.9892,-122.919 -34.3505,-12.42 -55.2378,-45.47 -45.8092,-76.406 10.2161,-33.644 23.7937,-66.273 38.1609,-105.505 20.6036,8.071 40.5001,19.729 61.6688,22.917 16.427,2.485 41.241,0.254 50.2441,-10.216 16.5688,-19.306 24.3822,-46.118 35.5317,-69.997 4.1491,-8.863 7.3117,-18.209 10.9231,-27.327 10.6987,4.715 25.6312,6.493 31.3319,14.679 19.3059,27.716 29.7506,64.101 53.938,85.412 39.4035,34.744 35.8472,61.414 4.5449,97.12 -26.2768,29.975 -12.8409,61.812 21.7065,82.247 20.83,12.305 35.138,36.241 51.0273,56.054 10.614,13.21 16.6809,37.454 28.7048,40.333 15.9782,3.783 35.7625,-8.463 51.9354,-13.234 -17.8939,-18.968 -29.3229,-31.529 -41.2918,-43.583 -7.8176,-7.874 -18.5438,-13.658 -24.1916,-22.748 -10.8935,-17.498 -27.8306,-37.172 -26.7298,-55.009 2.9636,-47.983 26.8145,-83.604 93.7924,-83.716 -46.9671,-27.83 -37.5936,-52.301 -9.3397,-77.393 l -11.5179,-8.637 c -13.9714,8.523 -27.9131,17.048 -48.7728,29.776 -3.3574,-17.019 -4.7397,-32.824 -9.7355,-47.36 -10.0192,-29.129 -7.9912,-83.547 -43.9209,-75.869 -50.5235,10.811 -85.7187,-27.971 -130.7086,-20.21 -16.1454,2.767 -42.111,-0.421 -46.5438,8.046 -8.5225,16.258 -4.3184,38.949 -6.4078,58.847 -2.3137,22.213 -5.3895,44.399 -9.3693,66.358 -0.3387,1.892 -11.6597,4.602 -14.9324,2.455 -4.4031,-2.879 -8.3828,-10.273 -8.1013,-15.465 0.4234,-7.141 4.998,-14.001 7.8769,-21.199 -49.5624,-16.85 -50.7775,-23.482 -24.2742,-65.593 8.1013,-12.843 8.2135,-30.737 11.8841,-45.81 -45.0767,-19.955 -105.7591,-9.765 -102.7404,-62.32 -28.0825,-23.625 -45.1868,-41.381 -65.4538,-53.998 -17.7817,-11.035 -39.1453,-16.285 -60.5405,-24.725 -13.6052,-8.637 -28.6773,-18.29 -43.8342,-27.799 -7.7625,-4.856 -15.6373,-9.483 -23.4549,-14.197 6.575,-7.96 13.095,-15.979 19.7843,-23.824 15.8342,-18.516 40.2503,-34.886 45.3879,-55.97 5.7579,-23.709 -5.8722,-51.647 -9.8223,-76.91 -22.0727,2.174 -41.8019,3.556 -61.3894,6.181 -21.1687,2.822 -42.0581,8.664 -63.2565,9.934 -32.5427,1.948 -41.5712,-17.978 -37.8455,-46.768 4.1766,-32.176 11.8545,-64.24 -15.8342,-91.872 -5.2244,-5.195 -4.4349,-21.874 -0.2286,-30.06 13.095,-25.572 20.8597,-62.323 64.9203,-42.424 2.68,1.213 11.3719,-4.543 13.1225,-8.749 17.5553,-42.507 40.191,-1.664 59.8928,-4.204 22.6633,-2.936 47.5323,-19.279 60.657,16.567 6.7168,18.317 30.483,41.52 25.3453,51.033 -15.3833,28.421 4.4878,32.99 18.2623,46.737 25.8534,25.768 48.8003,54.473 72.9623,81.937 -2.174,4.77 -4.348,9.543 -6.5199,14.285 22.2695,-5.419 44.5094,-10.813 60.1192,-14.623 26.5033,13.067 48.7982,24.018 71.0678,34.998 l -5.4171,-15.072 c 32.0368,-27.49 65.4538,-53.54 95.5981,-82.98 22.3542,-21.816 61.9525,-36.353 45.6674,-81.937 -15.6924,-1.834 -30.3433,-3.529 -44.9625,-5.25 a 1368.8607,1368.8607 0 0 0 -3.4441,-9.848 c 15.2965,-9.287 30.5994,-18.544 47.5344,-28.819 15.9464,32.375 29.7209,60.289 44.285,89.868 6.2088,-1.664 17.2737,-4.573 28.309,-7.507 l 8.7194,11.514 c -24.6976,20.603 -47.4751,44.427 -74.7405,60.769 -19.6721,11.77 -80.327,77.986 -78.7457,100.82 0.5652,8.072 9.5683,15.549 16.228,25.598 7.9319,-6.804 13.6327,-10.669 18.0633,-15.691 21.8186,-24.809 42.3693,-50.805 65.2315,-74.598 15.6353,-16.258 39.7973,-26.419 50.4663,-44.906 21.535,-37.229 34.376,-79.482 55.5998,-116.936 5.2795,-9.287 30.1168,-13.237 43.6923,-10.049 9.3439,2.202 14.7631,20.998 22.5807,33.415 -10.2732,7.735 -21.789,16.429 -30.7645,23.203 14.2254,16.512 25.9359,30.115 38.0444,44.201 17.0494,-2.485 35.1719,-5.11 56.1438,-8.159 -4.4327,-6.719 -11.5751,-12.559 -11.1792,-17.836 1.8629,-25.63 -1.4395,-55.632 10.9506,-75.332 11.9392,-18.91 49.3655,-43.184 60.8517,-37.144 45.6398,24.02 85.4392,-16.993 131.3056,0.62 -2.4556,-38.104 -7.932,-71.212 -17.3034,-103.189 -9.1174,-31.133 -27.0113,-46.885 -64.4652,-36.385 -17.7246,4.996 -39.9941,-6.239 -69.8272,-11.939 -1.8079,0.901 -15.6946,14.31 -28.3111,13.209 -42.5619,-3.669 -71.1525,25.093 -103.3586,42.198 -28.309,15.015 -46.4019,13.266 -60.7692,-12.136 -8.6643,-15.297 -11.0373,-34.179 -17.6695,-56.167 -17.2187,8.298 -34.3209,16.736 -51.5375,24.835 -25.9677,12.193 -51.7915,24.727 -78.1254,36.046 -25.2056,10.866 -51.0019,20.379 -76.5187,30.483 a 2009.5712,2009.5712 0 0 0 -1.4141,12.813 c 49.0565,17.755 19.0519,49.789 17.4156,75.05 -0.4234,6.577 -25.3454,15.326 -39.5136,16.368 -22.0452,1.608 -44.5962,-1.948 -66.7811,-4.374 -68.953,-7.479 -139.3476,-9.483 -196.5307,-58.227 -6.4078,-5.446 -21.0841,-4.178 -30.9636,-1.862 -16.3147,3.837 -31.8103,11.035 -48.5759,17.161 -15.5527,-21.988 -27.7163,-58.144 -46.3723,-61.87 -42.6487,-8.522 -49.1115,-32.403 -46.91,-65.708 1.9476,-29.89 -8.3256,-49.873 -31.9775,-69.404 -35.0554,-28.958 -76.2075,-58.54 -94.6667,-97.406 -21.1687,-44.566 -23.2581,-99.294 -28.3386,-150.128 -5.2223,-52.188 31.6685,-112.618 -38.6965,-147.051 16.372,-13.663 27.2082,-22.697 38.5843,-32.181 -7.8472,-21.478 -34.8586,-46.313 10.2457,-56.08 3.641,-0.79 5.3896,-9.06 8.6369,-13.379 47.8964,-63.28 94.692,-127.463 144.5381,-189.164 16.3148,-20.153 37.1427,-26.08 61.8403,-0.874 13.4633,13.772 41.8295,21.141 61.8974,18.628 43.4659,-5.446 80.6403,0.989 116.9659,26.192 14.1407,9.823 35.1401,11.743 53.2902,13.013 9.5408,0.65 27.7713,-6.914 28.3916,-12.333 5.9547,-51.512 47.0793,-48.381 81.8807,-57.441 12.5319,-3.246 32.2358,-13.97 32.6867,-22.211 1.6088,-27.942 5.3324,-62.634 -8.7237,-83.096 -25.5993,-37.286 -5.5292,-54.642 16.0332,-77.816 19.0519,-20.464 40.136,-41.097 51.9334,-65.68 11.2067,-23.258 14.6763,-51.624 15.8892,-77.986 2.0894,-45.413 38.5589,-90.772 3.531,-136.327 -50.8601,-66.103 -42.0264,-128.79 -1.4967,-197.771 19.7865,-33.73 21.0841,-78.409 30.3137,-118.236 6.2109,-26.954 9.5958,-54.755 18.148,-80.92 5.2202,-15.976 19.363,-28.789 26.7573,-44.314 13.9714,-29.325 25.9677,-59.611 39.8544,-91.957 -23.0041,-24.641 -5.6732,-47.304 16.5116,-63.168 19.8987,-14.28 43.2986,-28.055 68.4175,-0.339 9.1173,10.049 31.2175,13.1 46.5437,11.463 20.068,-2.146 98.5617,19.812 110.9793,35.081 12.9828,15.947 28.3407,29.975 41.8041,45.612 9.962,11.571 21.5604,23.087 27.2039,36.777 16.372,39.655 51.3724,71.747 48.2966,119.984 -0.3684,5.644 17.8918,11.12 25.0045,18.94 10.1335,11.093 23.8508,23.595 25.4321,36.804 2.6525,22.016 -4.7418,45.047 -4.7142,67.656 0.028,16.285 -0.4509,40.756 9.1449,47.388 34.1536,23.681 45.3032,75.166 95.6002,79.031 4.7418,0.339 9.2867,9.596 13.0696,15.269 37.9619,56.845 17.244,117.699 1.7189,172.483 -31.4991,111.124 1.16,218.915 91.4236,289.873 41.9692,33.023 81.3431,73.752 109.5695,118.714 30.284,48.294 46.059,105.645 68.7815,160.514 -9.8223,11.207 -20.8555,23.766 -31.1583,35.509 -5.3345,-1.609 -8.6368,-1.694 -10.5844,-3.328 -78.4662,-66.639 -151.4582,-51.851 -196.6746,37.284 -11.4037,22.552 -35.7604,38.299 -48.4342,60.454 -36.5224,63.845 -50.2123,139.689 -102.1456,195.828 -3.8675,4.179 -5.0212,15.466 -2.2015,20.434 20.2373,35.619 -6.2088,54.925 -24.4986,78.325 -20.1251,25.741 -37.9916,53.315 -63.3666,89.387 30.6524,-18.402 49.2809,-28.339 66.4128,-40.42 8.6643,-6.096 15.7241,-15.411 21.4545,-24.555 10.0763,-16.116 18.4846,-33.244 27.7713,-49.87 11.7698,-20.999 24.1599,-41.69 35.4788,-62.913 13.3787,-25.037 25.3179,-50.863 38.9505,-75.729 30.3137,-55.236 80.4434,-101.16 67.9687,-175.051 -5.4192,-32.037 32.9661,-58.682 45.4408,-39.969 32.7142,49.054 89.8402,36.101 131.1617,60.657 25.1188,14.93 51.5099,28.027 75.2464,44.852 42.3947,30.06 108.2422,35.644 112.984,106.716 0.5081,7.422 12.3626,14.226 19.1937,21.084 18.9672,19.082 23.7366,38.413 0.8468,57.861 -28.4784,24.16 -57.2128,48.011 -88.7966,74.486 -3.7257,-5.503 -9.708,-16.399 -17.6378,-25.601 -22.7501,-26.419 -77.9857,-22.919 -77.7317,5.334 0.3091,33.166 -23.908,38.528 -38.4149,55.547 -21.0566,24.698 -41.0949,50.24 -65.9047,80.753 h 60.9914 c -2.5402,-3.557 -5.0805,-7.083 -7.6207,-10.64 22.4388,-22.608 43.3832,-47.024 67.7125,-67.376 30.9339,-25.826 63.5359,-18.285 93.8199,4.689 19.6446,-57.098 91.9571,-75.701 129.9761,-46.518 35.3942,-6.802 61.5884,-11.823 87.753,-16.848 6.8587,3.67 9.5662,-3.529 14.7313,-7.424 30.4534,-22.947 62.5177,-43.383 70.1956,-86.144 1.3824,-7.733 20.1527,-16.51 31.442,-17.327 16.7953,-1.215 34.0711,4.234 56.4253,7.678 0,-26.588 -3.0779,-52.613 0.8171,-77.535 4.4878,-28.959 13.0103,-57.748 23.51,-85.155 22.8898,-59.669 47.9261,-118.49 72.6512,-177.395 4.1491,-9.907 12.9553,-27.125 16.427,-26.363 12.589,2.739 26.3085,9.342 35.1147,18.713 33.616,35.733 34.8268,83.492 27.911,125.463 -6.7444,41.01 -1.2976,64.889 37.5957,79.652 5.9844,2.286 9.7969,10.101 14.9049,15.04 21.7912,21.084 43.8321,41.889 65.5089,63.113 12.8981,12.646 35.5381,25.544 35.9615,38.893 1.4966,47.532 30.7645,46.457 55.9701,43.182 15.1272,17.359 26.3022,30.204 34.1495,39.179 13.0971,-23.061 22.949,-44.031 36.1033,-62.689 24.9495,-35.479 60.767,-63.673 51.5671,-116.707 -4.2338,-24.417 19.8118,-29.95 38.8637,-17.221 7.9298,5.307 9.2846,20.411 13.6327,31.08 18.2602,-20.86 26.897,-31.98 24.3017,-38.781 -20.3516,-53.318 21.7869,-93.317 29.2679,-140.622 3.6686,-23.117 31.3891,-43.125 33.1672,-65.734 5.0509,-64.099 17.5278,-123.598 61.0783,-173.245 -38.6965,26.476 -76.885,53.796 -116.4578,78.945 -12.7563,8.156 -28.8742,12.193 -44.031,14.706 -4.4328,0.734 -10.8109,-10.305 -16.3148,-15.921 9.9345,-8.751 19.9579,-17.414 29.7506,-26.275 24.162,-21.876 61.8699,-39.882 69.66,-66.554 21.6196,-74.203 74.6262,-124.022 119.8723,-180.161 7.7054,-9.569 28.563,-17.924 38.1038,-14.029 9.8498,4.065 14.7334,23.229 19.1916,36.664 6.2934,18.968 10.1885,38.727 18.2051,70.226 -4.5725,1.016 -27.7438,11.628 -32.4856,6.181 -20.3495,-23.286 -28.8191,-13.294 -37.511,7.479 -11.3465,27.039 -22.4982,54.135 -33.7303,81.231 16.2576,3.021 46.1754,4.771 46.5988,9.286 3.586,38.809 13.8867,78.778 -18.2898,114.03 -31.6685,34.66 -75.1343,62.291 -81.8512,114.735 -2.2311,17.468 -2.4005,35.563 -0.2286,52.977 0.4234,3.275 22.6379,8.694 24.3314,6.154 9.4561,-14.253 15.6374,-30.653 23.0888,-46.233 1.1854,-2.456 3.0483,-4.572 6.0119,-8.918 71.4657,23.059 34.6892,-44.626 57.579,-78.611 32.2908,36.495 70.3925,64.214 86.5654,101.471 25.6862,59.103 5.4764,113.663 -46.7406,155.916 -46.1479,37.342 -45.1318,53.373 -4.6847,93.623 8.3553,8.298 13.239,20.123 21.8462,33.671 8.8633,-13.548 15.9189,-24.386 20.4638,-31.302 32.5428,16.653 62.2637,44.088 92.0418,44.173 41.0674,0.08 68.6693,9.03 92.209,41.601 13.095,18.12 44.8248,32.462 44.7676,48.436 -0.085,33.476 21.9012,48.972 36.296,71.353 4.2337,6.605 8.3828,17.274 5.9844,23.54 -17.8664,46.656 -8.1309,100.789 -48.7749,142.279 -39.6851,40.56 -33.2477,61.9 13.7745,91.085 24.0202,14.903 19.2784,33.388 -0.3387,41.631 -13.0103,5.504 -32.5152,-6.122 -49.3359,-7.335 -12.4769,-0.904 -28.2243,-1.215 -36.9458,5.474 -6.5497,5.023 -9.7419,25.741 -4.8308,32.232 13.8021,18.262 32.5724,32.771 53.1209,52.331 5.1927,-22.608 9.1449,-39.744 12.7309,-55.352 33.5588,-10.134 53.6289,45.752 90.941,13.209 -7.7054,-10.358 -14.1704,-19.02 -22.242,-29.831 49.9858,-21.592 64.353,-62.151 69.6579,-109.908 0.9314,-8.552 18.548,-21.594 28.4825,-21.594 31.3594,0 54.1053,32.572 40.4451,64.552 -15.6649,36.749 -40.9256,69.404 -59.8928,100.365 9.9345,24.67 19.7293,54.251 33.9272,81.517 5.7854,11.12 23.7344,26.475 31.806,24.244 61.0232,-17.019 74.3193,31.811 99.0444,66.582 49.6471,69.773 45.6674,149.225 41.7173,228.255 -0.7917,16.06 -9.3439,33.334 -18.7132,47.079 -21.5371,31.668 -43.3557,32.604 -69.7743,7.568 -17.9236,15.015 -35.3942,29.661 -54.3043,45.496 12.9278,16.878 26.2197,31.613 36.351,48.264 11.0925,18.235 15.9761,41.155 29.6363,56.678 13.8867,15.806 33.815,31.217 53.5993,35.677 25.7412,5.813 54.0544,-1.043 81.0382,0.82 17.5002,1.185 34.4331,9.227 51.9333,12.303 12.1086,2.144 28.4762,6.238 36.55,0.481 47.9536,-34.324 64.044,-26.872 77.901,31.554 4.9958,21.111 20.4639,45.612 38.3853,55.604 10.6987,5.957 38.1885,-9.852 53.0913,-22.046 16.5963,-13.603 25.5168,-15.834 35.9869,3.955 4.348,8.213 10.415,15.495 16.3147,24.075 23.0613,-30.851 19.4477,-28.478 -6.4903,-59.385 -29.3251,-34.886 -61.3344,-72.708 -74.4886,-114.791 -20.1802,-64.466 26.5054,-119.024 48.7749,-176.491 3.3023,-8.495 15.8638,-13.406 31.4144,-25.741 28.9314,67.317 55.2653,128.619 83.2356,193.677 -18.4296,18.15 -34.575,34.099 -52.9494,52.192 -2.2016,51.059 46.8803,60.993 82.1898,75.049 20.1251,8.015 50.4663,-9.625 77.2236,-15.946 29.016,75.416 63.2819,95.85 144.1169,79.734 18.5438,57.38 -40.2482,59.133 -64.1837,87.357 14.6213,10.189 28.254,19.67 40.7287,28.392 v 56.874 c 20.7454,-23.54 32.5999,-44.253 50.4388,-55.6 28.1121,-17.896 59.8652,-30.373 90.8563,-43.273 9.962,-4.149 22.3817,-2.396 33.7007,-3.357 0.7049,10.161 3.1329,20.576 1.5791,30.368 -1.1579,7.31 -7.3963,13.834 -11.2342,20.466 15.214,6.577 31.6155,9.061 39.3485,18.601 5.616,6.889 1.2976,33.278 -1.2977,33.671 -38.9801,6.097 -78.4112,9.315 -122.3575,13.663 -2.3434,3.048 -8.0441,15.919 -17.9236,22.127 -35.7328,22.439 -81.6839,26.053 -111.4048,60.458 -4.1194,4.799 -12.8389,6.973 -19.725,7.82 -57.5515,6.998 -106.2968,43.661 -168.7023,41.713 -31.4695,-0.989 -49.6789,0.483 -56.002,-26.416 -58.1146,-6.548 -114.053,42.053 -170.8699,-12.308 -12.2504,11.289 -27.5766,21.99 -38.415,36.101 -25.0913,32.657 -62.4076,45.217 -95.3758,33.193 -57.6637,-21.027 -94.9736,10.61 -138.2997,34.433 -17.3859,9.539 -41.1817,18.883 -58.6798,14.564 -48.0108,-11.882 -80.725,21.592 -127.8889,30.229 -24.2467,-7.621 -47.7271,-21.816 -20.574,-64.126 -55.6315,5.249 -104.038,9.822 -156.6784,14.818 -14.4794,-26.561 -48.1504,-25.797 -90.0371,2.824 -2.428,26.192 2.172,47.612 -6.4353,57.208 -32.0664,35.763 -83.009,25.629 -119.3918,-20.21 -131.2738,54.222 -189.9535,56.68 -321.3141,16.262 6.7189,9.427 14.8477,17.553 24.5853,22.718 17.64,9.315 40.8134,12.676 53.2606,26.25 15.6924,17.104 34.4035,43.893 31.1858,63.057 -5.1355,30.794 -90.2635,65.962 -116.625,48.489 -31.7256,-21.054 -42.2528,-4.995 -61.3619,14.819 -11.9095,12.392 -35.79,23.23 -50.8325,19.758 z m -4329.2435,-12.373 c -1.3188,0 -2.5042,-0.139 -3.4971,-0.472 -29.615,-9.964 -58.4659,-22.777 -86.3896,-36.918 -13.2094,-6.689 -23.6625,-18.798 -35.3646,-28.451 11.5963,-11.516 23.1841,-23.029 32.8751,-32.682 17.8601,4.856 29.5474,4.741 36.3044,10.47 21.1413,17.894 36.1309,44.683 70.9238,40.474 2.4302,-0.309 10.7601,23.712 10.2118,36.159 -0.1693,3.852 -15.8321,11.376 -25.0638,11.42 z m 494.5466,-18.417 c -9.5513,0.411 -18.5015,0.02 -26.3022,-3.166 -12.1762,-4.967 -26.6027,-24.302 -25.9825,-36.525 1.232,-24.272 77.9391,-79.819 103.0538,-79.933 52.672,-0.197 105.3526,-0.05 159.5489,-0.05 10.1906,45.02 3.0758,53.824 -46.4231,51.256 -17.1785,-0.874 -34.5093,-2.147 -51.5967,-0.877 -41.6898,3.049 -81.1865,10.216 -82.3719,67.683 -10.216,0 -20.3728,1.207 -29.9263,1.615 z m 3131.7397,-1.418 c -8.8274,-0.55 -17.7945,-4.38 -27.5321,-11.344 -14.3948,-10.273 -32.1215,-18.544 -49.4227,-21.592 -68.5296,-12.164 -132.0084,-29.213 -170.2815,-96.754 -24.9791,-44.088 -48.7728,-82.304 -5.3345,-130.4 23.201,-25.684 65.8221,-31.414 90.3482,-1.975 -58.7919,59.751 -57.1302,93.905 16.482,142.14 47.0497,30.822 100.3696,52.16 151.0328,77.448 10.8108,5.392 22.2991,9.484 40.5889,17.161 -16.8461,18.03 -31.1688,26.233 -45.8811,25.318 z m -3489.8515,-16.42 c -7.0323,-0.121 -17.4854,-3.843 -20.3241,-8.246 -20.2268,-31.357 -47.1535,-46.148 -84.584,-44.424 -5.9061,0.254 -15.0299,-7.932 -17.9406,-14.34 -14.1407,-31.188 3.5776,-44.963 30.9763,-42.056 61.4254,6.577 122.4083,17.274 197.3415,28.339 -35.7816,28.929 -67.0415,55.375 -99.9801,79.535 -1.1791,0.868 -3.1435,1.232 -5.489,1.192 z m 116.0661,-2.376 c -3.6791,-8.41 -11.4798,-17.415 -10.3536,-25.121 6.9328,-47.36 62.8564,-73.665 103.2104,-46.342 11.23,7.621 16.4778,30.51 15.8893,46.063 -0.2519,6.717 -22.1235,16.935 -34.6025,17.583 -12.5531,0.677 -25.6375,-8.527 -35.1825,-12.138 -16.3422,8.382 -27.6527,14.17 -38.9611,19.955 z m 4784.7952,-15.946 c -5.0805,0.396 -18.0358,-18.12 -15.9465,-23.681 5.3917,-14.311 16.681,-36.72 26.5605,-37.228 42.365,-2.117 85.0687,2.369 127.6328,5.136 1.6935,0.112 2.9657,7.112 6.2955,15.665 -33.8975,-4.969 -41.6897,85.775 -95.1472,6.659 -5.108,11.292 -5.8701,17.388 -8.8062,18.743 -13.1521,6.124 -26.7022,13.662 -40.5889,14.706 z m 212.3332,-24.583 c -11.8122,-0.134 -24.3949,-0.625 -38.3515,-0.625 14.2805,-40.39 46.1162,-37.678 74.7935,-37.367 8.3828,0.09 16.6238,11.713 24.922,18.063 -9.1725,6.436 -17.7818,17.162 -27.6316,18.432 -10.8808,1.412 -21.9203,1.63 -33.7324,1.497 z m -4833.3118,-10.134 c -11.6704,-1.89 -26.9097,-10.868 -31.1033,-20.859 -3.5055,-8.326 6.6407,-22.412 10.7453,-33.955 10.9442,-0.989 21.897,-1.973 32.8454,-2.964 4.2444,13.21 12.1043,26.618 11.3041,39.516 -0.4318,7.028 -16.5476,19.42 -23.7915,18.262 z m -549.5981,-36.776 c -15.5061,-5.11 -38.9293,-6.353 -51.6771,-18.66 -16.5752,-16.032 -24.6468,-40.812 -36.4463,-61.781 -0.6774,-1.216 -1.8142,-2.259 -2.9636,-3.076 -33.6266,-23.512 -21.7573,-41.974 4.5767,-62.607 31.2895,-24.499 54.2915,-4.767 81.3959,8.188 39.031,18.656 80.1386,32.994 120.3444,49.167 -18.4655,-12.475 -37.094,-24.755 -55.3542,-37.541 -9.0729,-6.378 -17.4599,-13.717 -26.1582,-20.604 9.6699,-6.32 18.6306,-15.916 29.1727,-18.175 14.5471,-3.16 30.2819,-0.794 45.5086,-0.794 l -0.127,-4.994 c -22.7755,-7.085 -45.5531,-14.14 -68.3286,-21.225 0.2244,-6.351 0.4509,-12.702 0.6711,-19.025 42.3629,-13.264 83.9489,-32.316 127.3068,-38.074 41.7744,-5.531 85.3545,3.302 128.1768,4.657 55.5595,1.778 57.2064,3.273 45.4027,55.039 8.91,3.442 17.8136,6.888 24.0012,9.259 -20.3474,22.977 -48.6204,41.123 -53.2289,64.07 -4.3396,21.564 16.2703,48.15 28.0402,77.956 -2.4725,0.649 -20.9783,8.838 -23.1735,5.677 -19.7356,-28.366 -73.6207,-26.757 -62.1832,-84.675 -23.6031,21.366 -31.497,58.68 -65.3839,32.373 -26.7425,35.083 -49.5836,1.609 -73.9954,-4.206 10.3748,31.021 -3.6855,48.405 -32.0791,58.396 -27.3564,9.653 -54.4715,19.956 -83.4981,30.653 z m 778.6017,-24.683 c -44.7889,5.847 -52.5091,-44.181 -71.4933,-76.536 -3.4843,1.639 -6.9708,3.305 -10.4531,4.941 5.017,19.363 10.0298,38.754 15.504,59.893 -39.7401,14.255 -64.1879,-6.291 -75.636,-36.887 -9.8604,-26.363 -28.9334,-59.698 10.3029,-82.956 4.2613,-2.512 8.5881,-11.431 7.335,-15.749 -9.5599,-33.051 17.5912,-34.859 30.955,-26.645 48.6797,29.975 99.5715,-32.403 147.3706,5.22 0.6033,0.48 22.4642,-23.764 32.0008,-38.074 3.6622,-5.504 0.599,-15.466 0.599,-23.256 53.0214,-2.399 65.3035,-10.218 67.1579,-40.928 2.119,-35.113 -24.2424,-64.829 -64.7679,-72.818 -12.6441,-2.484 -28.4741,-0.65 -37.3099,-7.706 -12.1551,-9.737 -19.0498,-26.023 -28.1968,-39.513 13.368,-8.271 33.5355,-26.874 39.0309,-23.233 47.3609,31.272 72.1897,-2.344 101.9615,-28.987 19.0032,-17.019 41.3044,-30.849 63.7116,-43.268 8.1605,-4.516 20.9147,-0.708 38.7663,-0.708 -15.1738,23.201 -25.195,38.557 -35.2184,53.911 l 4.6317,4.659 c 16.0565,-11.458 32.113,-22.919 58.1971,-41.548 3.5056,34.493 11.6259,59.161 6.1136,80.245 -3.4654,13.294 -29.2658,19.418 -41.3786,32.231 -6.8121,7.198 -6.1686,21.451 -8.8845,32.543 10.5335,2.089 25.2776,9.541 30.7582,5.222 13.0251,-10.273 20.0997,-27.885 32.6739,-39.035 7.6271,-6.744 29.0118,-11.937 30.5783,-9.397 13.8317,22.382 29.6913,45.894 33.2879,70.759 1.1452,7.932 -32.5216,21.253 -50.6018,31.499 -22.7585,12.9 -45.8685,25.178 -69.804,38.273 40.4323,55.691 34.287,74.823 -21.1518,96.134 -17.3499,6.662 -35.5953,11.545 -51.9206,20.127 -12.0493,6.351 -25.8809,15.269 -31.4568,26.7 -12.1953,24.979 -19.8753,53.712 -56.2094,45.752 -25.4575,-5.588 -49.9752,-15.495 -76.8934,-24.102 -5.4467,14.591 44.7592,39.399 2.0428,57.096 -8.0526,3.332 -15.2055,5.305 -21.6027,6.139 z m -215.8261,-0.286 c -41.2431,-1.723 -56.6687,-34.289 -51.4337,-100.636 42.8392,29.018 80.0539,54.249 124.1548,84.139 -29.8967,11.686 -53.974,17.28 -72.7211,16.497 z m -108.1173,-0.247 c -12.5679,0.486 -25.3284,-0.458 -37.4009,-3.21 -4.7715,-1.073 -8.7089,-15.182 -9.1449,-23.539 -0.5292,-10.132 3.0525,-20.464 6.2236,-38.527 -17.4621,11.431 -27.4263,17.923 -38.4001,25.091 -23.5672,-43.692 21.1539,-48.036 36.0715,-66.385 8.1923,-10.047 35.6567,-15.494 46.5903,-9.255 11.7275,6.689 17.0621,29.016 19.9452,45.443 2.5085,14.253 -1.7676,29.89 -4.0771,44.763 -1.3653,8.779 -3.9374,24.302 -7.3392,24.666 a 169.14895,169.14895 0 0 1 -12.4684,0.953 z m 5677.8161,-90.622 c -22.0198,0.688 -37.0771,-16.412 -49.8059,-52.553 31.2451,8.863 53.6586,15.241 76.0975,21.592 -3.1627,9.568 -4.0962,25.654 -9.8816,27.659 -5.8807,2.036 -11.3295,3.143 -16.41,3.302 z m -4227.1,-15.214 c 3.2557,0.832 6.7105,0.764 10.379,-0.03 4.89,-1.064 10.1547,-3.429 15.8342,-6.71 15.0828,-8.694 31.0334,-15.932 46.5967,-23.777 -30.4682,-1.774 -60.9343,-3.52 -97.1434,-5.631 6.5877,23.085 14.5662,33.656 24.3335,36.152 z m -1382.1124,-12.077 c -27.513,-13.751 -51.9227,-35.112 -57.0159,-69.609 12.1382,-11.151 32.9386,-23.334 31.7997,-32.907 -2.0047,-16.822 -18.9566,-31.892 -33.7642,-53.823 -18.8528,40.925 -39.2468,35.987 -60.1362,20.292 -29.5452,-22.212 -86.0764,-26.785 -114.7727,-8.298 -49.5264,31.922 -61.3471,27.153 -73.4344,-33.193 -35.282,6.69 -55.9385,76.348 -104.3556,19.954 2.8577,41.463 -2.7837,47.477 -32.3184,53.686 -42.708,8.976 -84.9312,20.237 -127.419,30.286 -6.8036,1.609 -14.4392,4.149 -20.7792,2.568 -41.1881,-10.189 -78.6716,-10.301 -102.7722,38.811 -10.1102,-14.931 -15.3601,-27.35 -24.5769,-35.028 -10.722,-8.948 -24.9093,-13.745 -37.5957,-20.322 -1.2024,2.343 -2.4133,4.712 -3.6199,7.083 l 30.5952,22.439 c -36.3616,16.342 -80.4624,-9.621 -114.9612,-64.04 -8.9586,3.021 -18.7703,5.161 -27.5511,9.452 -78.1423,38.104 -161.8944,55.462 -247.4797,61.728 -32.3776,2.343 -67.6469,-15.354 -85.6191,29.016 -23.146,-14.084 -45.1869,-41.745 -61.1206,2.117 -1.0521,2.879 -15.8681,2.032 -23.9842,0.847 -15.0319,-2.202 -30.3899,-4.319 -44.6322,-9.285 -31.6896,-11.065 -62.9284,-23.482 -93.894,-36.41 -3.8167,-1.609 -6.1601,-9.683 -6.9497,-15.072 -4.1555,-28.197 -23.9461,-30.2 -47.0942,-32.628 -17.5975,-1.863 -34.3992,-11.321 -51.5522,-17.39 13.7067,-15.946 25.5485,-34.321 41.7998,-47.022 10.1398,-7.93 27.1235,-6.747 40.6863,-10.811 7.7436,-2.343 14.7864,-6.971 29.1177,-13.942 -63.4343,-17.386 -129.6036,22.469 -172.7371,-33.302 24.9792,-54.053 56.1734,-90.772 121.3393,-45.64 -11.3337,-18.205 -23.5439,-31.108 -38.5208,-37.655 -20.9888,-9.145 -47.2804,-8.916 -65.2759,-21.393 -17.3669,-12.052 -27.0855,-35.113 -42.2677,-56.282 3.224,-5.222 15.178,-15.637 14.0984,-24.443 -4.8773,-39.882 -2.0661,-43.635 42.7567,-40.333 4.8984,-17.274 -35.5953,-44.99 10.5145,-51.595 20.4172,-2.906 42.2571,4.179 75.7058,8.186 -44.0691,-98.053 -147.9781,-91.309 -220.0471,-155.209 29.9157,-3.048 50.6357,-11.687 64.8208,-5.449 50.6209,22.27 99.9018,48.04 147.8998,75.615 23.6137,13.548 43.307,33.929 62.3123,49.226 2.5615,-17.471 3.7342,-31.19 7.6314,-44.061 0.4403,-1.439 22.8771,-0.224 23.9059,3.163 4.4285,14.591 5.271,30.396 6.0754,45.834 0.2434,4.715 -5.7029,9.71 -5.5695,14.48 0.6266,22.157 62.052,106.69 82.4671,111.885 7.5911,1.918 16.88,-2.794 22.5532,-3.925 -22.4071,-25.063 -43.0615,-48.15 -63.7137,-71.237 2.3963,-4.403 4.7947,-8.806 7.191,-13.239 13.2284,0 30.0237,-5.165 38.9802,1.046 22.0197,15.214 50.6081,32.177 58.2585,54.67 17.7182,52.076 37.8413,11.148 55.9151,5.644 8.8782,-2.68 16.8292,-19.022 23.1375,-17.866 42.8667,7.819 68.8027,-15.718 96.7772,-42.448 13.9333,-13.321 38.7536,-14.511 56.4994,-24.869 12.2483,-7.14 21.3042,-20.208 30.9,-31.357 16.4122,-19.107 32.13,-38.809 50.8707,-61.559 -14.6043,-28.027 1.3717,-51.961 26.825,-73.102 3.8633,-3.218 8.095,-8.017 8.8528,-12.617 9.6106,-58.398 20.0765,-116.455 42.2952,-171.86 3.6495,-9.09 2.3561,-21.592 -0.2858,-31.557 -10.4828,-39.486 -27.1405,-77.987 -32.6168,-118.039 -7.1445,-52.301 -40.0852,-109.906 17.9807,-155.685 3.8908,-3.049 8.2071,-12.507 6.611,-14.567 -27.2166,-35.252 27.2019,-49.086 20.123,-78.553 61.8848,-18.232 70.3904,-70.166 78.0111,-122.888 0.5377,-3.756 4.1364,-7.621 7.2821,-10.331 26.5266,-22.777 36.9183,-48.688 10.1695,-83.659 42.1618,-14.932 66.8276,-37.735 75.0919,-81.654 4.4878,-23.851 25.5867,-54.107 73.9361,-44.85 -43.324,82.219 -83.8156,159.02 -124.3029,235.849 l 13.4273,7.79 c 13.4464,-15.891 34.6469,-29.947 38.9442,-48.01 15.2626,-64.184 59.2704,-110.391 93.9617,-162.24 19.6616,-29.382 45.6674,-54.389 37.6317,-94.92 -1.4733,-7.452 4.346,-20.49 10.8406,-24.666 52.7885,-34.069 105.9115,-67.713 160.438,-98.846 13.8147,-7.902 35.1909,-12.701 49.3401,-7.874 35.2925,12.023 55.3817,-4.039 77.9391,-26.789 12.5997,-12.702 32.041,-20.289 49.7551,-25.907 30.4893,-9.68 59.3656,-17.87 72.0267,-53.066 8.8548,-24.583 18.1627,-53.4 36.7722,-69.01 25.3221,-21.224 61.8339,-28.535 89.5925,-47.587 27.0749,-18.601 41.5945,-17.02 56.129,24.951 10.2753,-7.62 12.0344,-18.319 17.4854,-26.587 37.9365,-57.44 29.1261,-114.339 -27.2971,-170.394 -39.3464,-39.12 -45.0556,-73.047 -27.4686,-106.352 -7.8748,-34.717 -16.7212,-57.522 -16.5011,-80.242 0.095,-9.852 22.5363,-17.672 28.5652,-29.554 24.1387,-47.645 47.6043,-95.767 67.9474,-145.105 24.2383,-58.792 52.4964,-110.698 117.8169,-135.112 20.305,-7.593 44.9201,-31.3 48.4129,-51.059 10.7643,-60.797 18.6984,-123.596 15.4701,-184.956 -2.8853,-54.869 -22.9575,-108.725 -33.5016,-163.397 -3.4082,-17.67 -7.0238,-39.882 0.5038,-54.22 21.7615,-41.406 5.0381,-77.198 -7.2884,-115.018 -5.9357,-18.205 -12.3202,-37.71 -11.6217,-56.366 1.5305,-40.871 7.2228,-81.625 11.8143,-122.353 0.6816,-6.04 2.9848,-13.773 7.3181,-17.245 29.2023,-23.484 24.5959,-54.365 12.3181,-81.038 -20.4787,-44.509 5.3048,-89.218 -5.9781,-133.304 -1.7655,-6.888 8.186,-17.839 14.4329,-25.544 34.0118,-41.857 68.5592,-83.263 106.066,-128.649 8.5776,15.665 12.7859,23.343 18.7598,34.236 5.7938,-59.977 36.0271,-69.264 111.4408,-32.627 -34.0648,19.757 -64.0567,37.143 -99.0169,57.435 -6.1749,45.415 -5.3345,44.994 21.916,98.79 11.0395,21.819 20.2373,45.412 24.7336,69.233 1.7993,9.513 -8.7025,27.269 -18.184,31.899 -27.7882,13.576 -26.0524,22.634 -3.7744,41.63 49.0184,41.773 54.2937,81.007 23.1904,135.169 -0.6499,1.131 2.2884,4.319 3.5564,6.55 52.6361,-23.512 52.6403,-23.514 61.4253,51.199 37.6466,15.974 79.1543,23.004 104.8722,46.967 36.6452,34.151 -15.8258,63.449 -20.1844,93.763 21.5921,-2.598 50.7944,-15.212 64.0312,-5.674 22.7818,16.4 35.6778,46.572 52.579,71.07 4.2083,6.124 6.3464,15.216 12.0196,18.519 45.5552,26.558 56.0549,77.53 65.0855,118.909 15.4108,70.365 34.522,101.582 103.3331,119.392 24.8394,6.435 63.4512,20.042 67.2891,36.892 16.6535,72.736 62.1219,141.323 39.6555,221.115 -1.412,4.966 -0.2244,12.305 2.6545,16.596 23.7366,35.28 50.2949,68.841 71.5483,105.505 12.7288,21.986 25.5719,49.111 24.0202,72.99 -2.6524,41.857 -39.4586,65.648 -70.3078,87.973 -20.8851,15.129 -48.1822,21.878 -73.246,30.542 -25.2332,8.722 -57.7759,8.044 -75.3883,24.245 -25.2903,23.315 -49.4481,31.357 -81.1165,26.785 -7.5912,-1.101 -15.7814,-2.143 -23.0909,-0.534 -18.347,4.065 -36.3531,9.678 -53.5146,14.393 24.0773,45.356 14.31,90.403 -43.9189,138.894 -26.1899,21.789 -53.9845,64.438 -93.4812,25.46 -22.1891,20.153 -44.5772,38.555 -64.5859,59.272 -19.8372,20.519 -37.2781,43.354 -55.7669,65.173 -7.4684,9.598 -23.925,14.394 -35.2672,8.806 -60.1404,-29.664 -105.8713,-5.758 -153.6724,30.538 -16.4609,12.504 -54.1413,17.924 -69.0017,7.648 -40.5001,-28.055 -90.7293,-50.153 -98.3437,-100.843 -28.3026,10.923 -53.8936,30.622 -76.4933,27.631 -57.4372,-7.566 -89.184,16.198 -81.9951,74.031 3.2812,26.364 9.9282,52.304 16.7022,86.879 -34.6363,6.888 -66.7536,13.265 -108.5301,21.563 8.9544,34.039 18.9714,73.807 29.9792,113.322 6.6089,23.709 -3.3891,36.495 -25.7582,38.5 -34.0351,3.021 -53.4532,-13.209 -69.5796,-44.821 -9.365,-18.374 -37.9174,-35.563 -58.9909,-37.087 -23.6519,-1.666 -64.5033,9.284 -69.9691,24.666 -15.2839,43.014 -20.9698,91.082 -21.5858,137.287 -0.8679,65.511 54.9626,99.947 91.4892,144.486 1.4607,1.778 4.9641,1.89 7.479,2.737 9.7037,-6.886 19.4604,-13.773 29.1366,-20.604 6.8185,11.743 12.0112,20.688 11.3888,19.645 23.709,-12.843 43.8659,-23.739 67.4098,-36.495 3.6728,23.031 1.4543,38.218 7.9341,44.708 25.8259,25.826 124.9443,2.172 139.4047,-32.149 2.5043,-5.954 1.7253,-13.605 1.34,-20.379 -2.9361,-51.425 15.1674,-90.655 76.3917,-120.236 -7.7647,47.701 -12.7627,85.972 -20.3855,123.737 -19.814,98.139 -9.8922,121.255 75.4793,168.08 64.2831,35.255 64.8716,36.383 55.9024,94.695 12.86,25.825 21.2746,44.115 30.972,61.671 5.2859,9.568 10.9168,20.859 19.5811,26.308 28.1989,17.667 57.8754,33.023 90.27,51.087 -18.6518,34.771 0.762,52.528 39.4268,67.966 26.3085,10.5 46.5712,35.873 70.0177,53.964 13.9989,10.81 28.9271,20.408 43.4383,30.542 2.9531,-4.206 5.904,-8.383 8.8592,-12.589 -24.1578,-20.125 -48.3156,-40.248 -72.4692,-60.374 1.4818,-5.249 2.9721,-10.527 4.4561,-15.806 14.2042,1.638 30.1167,-0.254 42.221,5.673 20.1527,9.822 38.0615,24.386 56.5354,37.511 11.9985,8.497 23.3301,17.951 34.9624,26.984 -12.1297,7.563 -23.3471,18.093 -36.5542,22.157 -45.7203,14.056 -54.933,30.339 -35.8324,71.887 -40.3688,41.631 -65.5385,-14.932 -101.3094,-11.545 29.4838,21.903 65.5998,54.418 93.2166,48.349 75.6127,-16.624 132.2433,32.122 199.0329,41.097 3.1668,0.424 6.6533,4.996 8.3976,8.468 16.1221,31.895 -4.7566,77.448 -29.7421,85.238 -9.4032,16.793 -12.8494,32.432 -20.5718,34.945 -21.6133,7.085 -30.3137,26.868 -44.7275,37.706 -28.0909,21.084 12.0938,32.913 -1.4881,50.413 -21.6197,27.858 -38.5399,59.358 -58.7306,91.365 -30.3539,-24.698 -37.1046,-93.484 -93.8877,-59.051 -15.051,9.118 -9.3206,52.531 -13.131,80.19 -4.8328,13.747 -19.5916,28.65 -37.1088,38.781 -17.0451,9.879 -36.7913,15.241 -55.6167,21.819 -9.0179,3.162 -20.8787,1.75 -27.621,7.169 -29.5642,23.794 -45.4069,7.338 -53.6628,-19.25 -5.6711,-18.261 -3.8167,-38.866 -5.3387,-58.426 -1.0585,-13.633 2.7392,-35.479 -4.0178,-39.488 -38.1885,-22.579 -16.2217,-50.776 -13.239,-78.803 2.2227,-20.887 3.6368,-55.265 -7.2969,-61.559 -28.9906,-16.681 -32.4178,-39.348 -29.6193,-65.032 5.0678,-46.515 -10.3282,-73.693 -60.6866,-74.824 -42.1554,39.036 6.2321,87.131 -10.3621,129.242 -48.3198,-8.467 -77.52,23.006 -111.0809,46.178 -15.0425,10.387 -34.069,20.152 -51.529,20.603 -22.0219,0.536 -33.6498,2.511 -38.9018,27.321 -3.9692,18.74 -17.9046,35.394 -27.3966,52.951 -3.7786,-0.03 -7.5573,-0.05 -11.3317,-0.05 19.977,80.611 99.6964,109.345 149.7118,163.819 13.1014,14.253 38.0615,21.45 44.0988,37.087 4.1596,10.782 -14.8922,30.54 -23.311,45.782 21.6683,-4.206 55.623,-30.995 67.1155,19.755 0.2964,1.325 17.4579,-2.005 26.715,-1.751 20.2691,0.565 43.3028,-3.33 59.7467,5.165 10.089,5.193 9.9281,30.003 14.6763,45.922 2.8535,9.597 9.835,19.477 8.6919,28.395 -2.1169,16.512 -4.7969,42.283 -14.5853,46.292 -15.3262,6.294 -44.5666,4.653 -54.0121,-5.988 -20.9846,-23.625 -33.345,-54.893 -49.2237,-83.062 -8.5098,18.374 -6.4607,33.984 -8.8824,48.857 -7.8071,48.011 -27.8941,13.15 -51.6603,-2.599 -6.1304,36.156 -7.2545,66.95 -17.6928,94.158 -5.2689,13.745 -33.3217,32.856 -40.8642,29.075 z m -57.0159,-69.609 c -0.4234,0.39 -1.0542,0.805 -1.4543,1.19 l 1.4056,-1.355 c 0.01,0.06 0.04,0.106 0.049,0.165 z m -1.4543,1.19 c -0.038,-0.06 -0.074,-0.142 -0.1122,-0.205 0.4933,-0.367 0.9865,-0.796 1.4818,-1.122 0.038,-0.03 -1.3696,1.327 -1.3696,1.327 z m -0.1122,-0.205 c -5.271,3.895 -10.4743,9.562 -15.7919,9.691 -14.8139,0.309 -31.7827,1.35 -43.7367,-5.339 -6.8185,-3.81 -5.5082,-22.185 -7.8558,-33.982 15.8279,-1.27 33.1545,-6.914 46.9693,-2.227 9.3354,3.141 13.8126,20.639 20.4151,31.857 z m 859.6759,7.189 c -1.9602,-0.05 -3.9099,-0.185 -5.8426,-0.434 -6.9158,-0.904 -11.9942,-16.118 -24.1578,-34.069 32.0622,3.84 51.6476,6.179 71.2075,8.522 l 0.8468,20.237 c -14.0265,1.927 -28.3344,6.078 -42.0539,5.744 z m -478.8542,-77.349 c -7.5826,-14.422 -15.1716,-28.815 -22.7564,-43.239 6.5623,-3.669 13.1289,-7.342 19.6933,-11.008 8.2558,13.404 16.9667,26.615 23.7577,40.729 0.4657,0.959 -13.4633,8.861 -20.6946,13.518 z m 1266.5669,-47.443 c -10.1038,-0.371 -21.5731,-5.581 -31.6494,-6.046 -34.6617,-1.609 -69.8865,-8.859 -103.7565,-4.655 -49.5624,6.154 -59.0736,1.101 -54.3318,-50.437 13.2369,1.327 26.4483,2.625 44.3147,4.403 -5.6457,-17.612 -10.415,-32.543 -13.7173,-42.788 30.7073,-8.269 58.9888,-15.894 89.8952,-24.219 19.0519,8.241 40.4471,17.216 61.6159,26.7 33.3344,14.93 39.177,40.982 31.1054,74.061 -4.6296,18.882 -13.3723,23.349 -23.4762,22.981 z m -1446.3341,-59.946 c -7.5509,-0.375 -15.432,-1.998 -23.5269,-4.666 -10.1653,-3.357 -23.1375,-19.672 -22.5744,-29.325 0.9907,-16.907 11.4565,-33.277 17.9575,-49.846 11.5941,4.911 23.8571,8.722 34.6384,15.045 15.7707,9.259 30.4788,20.322 49.2703,33.053 -13.4464,26.757 -33.1143,36.861 -55.7649,35.739 z m 1614.1261,-238.229 c -7.1973,-16.766 -11.3231,-26.359 -15.5844,-36.266 46.8824,-15.411 49.592,-21.453 28.6477,-60.742 24.7251,-21.139 49.6788,-42.422 77.2554,-65.991 -16.6535,-7.395 -30.1444,-13.377 -43.1568,-19.162 1.0733,-23.428 1.9751,-43.578 3.2452,-71.748 -4.6,-6.943 -15.1569,-22.917 -32.1765,-48.658 35.5635,10.216 59.245,22.805 82.6999,22.466 41.7173,-0.593 66.3853,21.423 85.2678,52.444 4.6571,7.62 0.8467,29.153 -5.9548,33.472 -32.2612,20.491 -39.7697,55.602 -56.167,85.407 -7.8473,14.253 -14.7631,29.046 -23.8234,47.027 1.1855,6.462 3.4992,18.992 5.8426,31.554 -30.2014,2.849 -60.4304,67.852 -87.8926,-5.392 -6.7169,13.125 -10.6966,20.915 -18.2052,35.589 z m -20.1865,-119.049 c -6.2088,-6.012 -16.5645,-24.839 -29.1515,-26.478 -35.3391,-4.543 -22.6675,-21.363 -27.5786,-46.004 -15.4384,-77.901 9.1173,-57.075 58.6247,-40.506 33.3345,11.149 40.1931,21.708 37.1448,50.779 -0.8467,8.102 0.76,17.132 3.6389,24.838 11.9096,31.979 -6.5771,37.003 -42.6762,37.371 z m 3300.8865,-31.16 c -1.7485,0.563 -4.7376,-2.685 -12.4155,-7.369 12.8156,-50.721 26.1074,-103.331 41.9142,-165.766 14.111,-0.621 31.3572,-1.383 48.5759,-2.145 -5.2795,14.958 -10.614,29.922 -15.7792,44.91 -3.4717,10.076 -10.2203,20.629 -9.2296,30.309 1.6343,15.693 -37.3417,94.809 -53.0637,100.059 z M 3738.827,15803.715 c -63.6671,-34.886 -80.8032,-62.323 -72.4246,-117.165 21.736,2.09 57.2382,8.104 57.9918,5.168 10.6098,-41.237 51.855,-13.523 68.0152,-37.598 26.9796,54.107 8.1817,101.525 -40.5466,111.263 -4.219,12.419 -8.4908,24.981 -13.0358,38.332 z m 1917.5887,-108.469 c 17.0748,-21.734 28.4784,-36.298 41.9989,-53.542 a 17500.973,17500.973 0 0 1 -37.1449,-24.473 l 9.653,-19.306 c 24.4436,4.573 48.8003,9.596 73.3561,13.548 16.9054,2.71 37.5957,10.923 50.4113,4.431 31.6959,-16.031 61.22,-37.399 88.5976,-60.261 8.5246,-7.141 11.7677,-27.012 8.8316,-38.921 -1.7486,-6.973 -21.8144,-15.496 -31.3552,-13.322 -33.3048,7.649 -65.6803,19.56 -98.3352,30.032 -9.0052,2.879 -18.5735,10.5 -26.5605,8.976 -52.1323,-10.019 -103.8687,-21.961 -168.5604,-36.072 23.5672,45.414 -3.133,99.182 59.499,113.859 7.0005,1.638 11.1496,18.601 15.1568,29.016 4.8265,12.447 8.1013,25.487 14.4519,46.033 z m 161.3038,-0.878 4.5429,-5.813 c -16.427,-17.217 -32.8243,-34.435 -52.5536,-55.096 -10.3579,2.71 -24.7251,6.463 -39.0627,10.246 -1.0436,4.487 -2.1169,8.948 -3.1626,13.435 30.0871,12.42 60.1489,24.838 90.236,37.228 z m 308.2489,-10.504 c 7.5848,-0.502 15.5506,-1.742 22.8898,-1.742 a 2914.345,2914.345 0 0 0 9.1978,-9.935 c -16.8779,-17.612 -35.9869,-33.618 -50.1551,-53.178 -28.9864,-40.024 -21.2217,-55.915 27.4664,-61.389 1.8332,-10.642 3.694,-21.48 5.3028,-30.822 42.0284,-18.628 42.0284,-18.628 41.0674,-26.842 -10.0467,4.12 -19.3059,7.932 -30.6799,12.589 -0.3387,-7.225 -1.5263,-11.403 -0.5377,-14.987 7.3943,-27.323 17.3309,-54.192 21.9033,-81.938 1.9476,-11.939 -3.4166,-32.769 -11.7698,-36.919 -13.6898,-6.858 -36.3827,-10.161 -48.5484,-3.217 -57.3525,32.742 -58.3411,46.994 -18.2052,102.372 -23.1162,29.609 -48.9972,56.254 -66.4106,87.611 -9.3989,16.935 -13.802,50.464 -3.8675,61.472 21.3677,23.567 52.4985,39.346 81.741,54.22 5.813,2.963 13.0188,3.204 20.6057,2.705 z m 227.8859,-10.379 c 1.9475,3.162 21.5625,-3.868 32.6274,-7.339 1.4395,-0.451 0.3408,-8.044 0.9632,-12.251 2.229,-15.184 5.7558,-30.258 6.7422,-45.529 1.1008,-16.794 2.6546,-37.281 -24.2446,-31.608 -14.5069,3.049 -27.9152,11.288 -52.979,21.902 12.4176,26.418 22.8919,51.681 36.8908,74.825 z m 1791.4568,-9.314 c -0.7621,-0.197 -6.5031,-8.22 -4.6995,-13.777 9.962,-30.71 11.628,-58.51 -13.6051,-83.46 -3.3024,-3.245 -2.9086,-16.736 -0.085,-18.374 7.6207,-4.431 17.4155,-6.294 26.4757,-6.887 15.9189,-0.988 31.9754,-0.281 58.4787,-0.281 2.3159,2.68 16.5117,12.079 19.4202,24.187 3.2452,13.603 1.5835,35.449 -7.2524,43.494 -22.7204,20.69 -50.5806,35.76 -78.7499,54.672 0.1313,0.32 0.1249,0.453 0.021,0.424 z m 22.9046,-146.351 c -6.774,0.959 -18.9948,-4.087 -20.9994,-9.451 -4.0644,-10.866 -4.1787,-23.767 -3.531,-35.676 3.2748,-58.456 -10.0467,-77.425 -57.4075,-76.974 -4.092,-12.502 -8.3575,-25.542 -12.6462,-38.582 -2.4006,3.048 -4.7715,6.126 -7.1699,9.202 -26.6176,-15.834 -53.2288,-31.639 -84.0506,-49.958 25.0342,-16.427 39.0035,-31.049 55.4029,-34.745 14.2254,-3.19 31.2451,6.038 47.9854,10.017 -0.3684,6.07 -0.9611,15.468 -1.6385,25.941 66.1587,-25.545 130.4842,13.802 108.9492,78.098 -3.8675,11.543 8.0442,28.366 13.3787,44.962 -6.8862,20.04 -13.2665,41.268 -21.7065,61.675 -2.7371,6.632 -10.3007,14.645 -16.5666,15.491 z m -2978.5583,-26.725 c -40.5043,-2.005 -41.6877,-4.884 -28.6202,-51.963 4.7418,-1.44 9.4836,-2.911 14.2254,-4.35 4.6021,18.065 9.2296,36.133 14.3948,56.313 z m 2795.9418,-192.665 c -49.5921,-29.664 -50.6632,-33.841 -23.2581,-64.607 8.0737,-9.061 15.6077,-18.572 23.3703,-27.886 3.387,14.395 9.3396,28.762 9.4243,43.157 0.085,14.957 -5.5293,29.975 -9.5365,49.336 z m -216.6538,-261.731 c -6.1241,-11.827 -16.7699,-23.485 -17.2208,-35.508 -0.508,-13.688 6.5772,-28.536 13.5205,-41.152 2.2587,-4.065 20.322,-5.221 21.0841,-3.413 5.2498,12.306 11.3464,26.023 10.3303,38.752 -1.1007,14.085 -9.4814,27.574 -14.7038,41.321 z m -4699.1823,-77.393 c -18.6857,-0.707 -36.9501,-12.362 -55.4071,-18.995 l 5.2879,-13.719 c 7.5531,2.117 15.087,4.289 22.657,6.321 43.1419,11.658 113.4963,-14.448 128.435,-47.613 16.7255,-37.143 36.2833,-44.315 70.763,-28.734 22.9765,10.358 26.1349,26.535 5.652,36.581 -56.7979,27.916 -109.8764,68.754 -177.3878,66.157 z m 4460.8179,-65.847 c -27.6041,-14.171 -43.5209,-32.122 -31.6939,-61.559 1.9179,-4.772 23.6498,-8.387 28.4508,-4.012 19.2763,17.556 29.1833,38.953 3.2431,65.571 z m -4212.5825,-10.31 c -5.8426,0.379 -11.158,-0.55 -15.6564,-2.989 -10.3515,-5.616 -13.5057,-24.526 -20.2056,-37.934 -10.5632,-1.213 -25.0553,-2.847 -39.5432,-4.486 0.2942,-5.165 0.5927,-10.3 0.8891,-15.438 h 156.5535 c -21.4905,33.14 -56.7153,59.215 -82.0374,60.849 z m 4489.4719,-19.661 c -7.028,0.03 -18.3999,-5.953 -21.5371,-11.806 -12.4747,-23.286 -23.963,-47.672 -31.2726,-72.96 -2.5127,-8.751 5.5335,-24.442 13.548,-31.639 22.1574,-19.869 47.0518,-24.696 71.9738,-1.467 -2.5953,31.499 -3.8379,63.532 -8.749,95.031 -1.3824,8.751 -12.3626,19.39 -21.2535,22.439 a 8.5923981,8.5923981 0 0 1 -2.7096,0.402 z m -4596.2196,-28.741 -55.1065,-2.707 c 0.7071,-6.578 1.0246,-18.798 2.1677,-18.883 17.8516,-1.213 35.8091,-0.847 53.7432,-0.847 l -0.8044,22.439 z m 4652.9561,-107.41 a 55.15096,55.15096 0 0 1 -8.7554,-0.491 c -6.5475,-0.847 -11.3464,-14.903 -16.9646,-22.918 16.5116,-7.593 33.0529,-15.159 54.7297,-25.123 1.5559,34.848 -9.6995,47.956 -29.0076,48.532 z m -76.5483,-10.06 c -4.5174,-2.313 -9.0327,-4.684 -13.548,-6.998 3.6114,-11.996 3.7786,-29.382 11.7952,-34.52 9.3693,-6.039 25.6015,-1.414 38.8659,-1.414 0.8467,3.302 1.6935,6.579 2.5127,9.852 -13.2093,11.037 -26.4186,22.073 -39.6279,33.08 z m -18.3216,-59.302 c -49.2512,-69.065 -49.2512,-69.063 -32.7396,-107.732 18.6561,39.12 33.5017,70.192 48.3198,101.295 z m -936.3893,-43.493 c -1.1579,-37.568 -4.1533,-65.596 -1.5834,-93.115 0.762,-8.156 18.8275,-22.155 25.9677,-20.491 10.415,2.4 24.1048,15.495 25.883,25.853 5.4764,32.037 -0.8171,61.842 -50.2673,87.753 z m 1082.2357,-6.872 c -15.4066,-0.328 -27.5173,-15.912 -38.7325,-25.614 -9.5682,5.477 -24.1599,14.622 -24.5832,13.999 -11.4608,-16.566 -21.4503,-34.153 -31.696,-51.569 3.6982,-2.456 7.3667,-4.911 11.0649,-7.367 10.0192,6.802 20.0405,13.603 32.0918,21.817 8.2135,-10.669 15.5802,-20.799 23.5672,-30.451 8.9184,-10.754 18.4041,-21.057 27.7459,-31.641 40.2481,40.586 49.3909,75.642 23.8191,99.831 -8.5903,8.142 -16.2746,11.144 -23.2772,10.995 z M 7707.4967,14535 c -29.6637,-32.969 -54.446,-65.003 -83.9425,-91.873 -22.6358,-20.576 -50.8051,-35.28 -77.3655,-51.171 -8.495,-5.081 -27.1214,-3.753 -28.2793,-8.495 -2.9637,-12.223 -1.9476,-27.636 3.2451,-39.179 9.1174,-20.18 24.7569,-37.427 33.6478,-57.664 17.4981,-39.882 44.285,-49.842 79.4251,-30 19.0223,-11.12 34.8544,-27.551 45.4938,-24.7 12.3922,3.302 21.7086,22.695 29.7231,36.611 17.7542,30.85 35.4217,61.978 49.7593,94.466 4.4031,9.934 2.572,29.806 -4.4857,36.326 -25.4872,23.482 -18.2898,39.826 3.8379,59.81 12.0238,10.838 19.1365,27.155 30.0046,43.243 a 115107.53,115107.53 0 0 1 -81.0615,32.626 z m 284.5356,-101.865 c -47.1089,-72.367 -47.0517,-77.562 0,-98.307 z m -84.1098,-36.721 c -26.643,-7.451 -44.2554,-18.29 -59.1031,-15.326 -35.1402,6.998 -60.4284,11.856 -61.8403,-38.299 -0.5081,-18.12 -19.6743,-36.325 -31.8103,-53.43 -25.5444,-35.986 14.708,-55.068 21.0862,-82.786 1.1283,-4.854 12.9256,-7.255 19.7843,-10.782 4.1766,14.027 8.1563,28.112 12.7013,42.027 0.5927,1.89 3.9797,2.851 10.0763,6.888 0,-10.584 -3.332,-21.846 0.6181,-25.714 11.3465,-11.12 25.6333,-19.278 38.7283,-28.592 1.1854,15.127 5.5885,30.965 2.5974,45.216 -2.7372,13.04 -13.4634,24.414 -18.402,32.769 9.3693,21.451 17.1043,39.093 29.1282,66.527 -27.0114,-8.44 -38.669,-12.053 -51.9355,-16.172 a 11060.823,11060.823 0 0 0 -8.3256,31.979 c 34.9411,5.673 67.9898,10.839 100.704,17.725 0.6477,0.142 -2.879,20.322 -4.0073,27.97 z m 242.2383,-67.732 c -15.9824,1.597 -20.8724,-13.122 -30.2395,-50.925 29.2404,12.559 48.4637,20.802 74.3446,31.895 -20.9359,11.24 -34.5156,18.072 -44.1051,19.03 z m 64.5393,-19.358 c -3.0737,0 -5.8341,-0.542 -8.0695,-1.821 -32.1765,-18.29 -61.7006,-41.177 -97.3763,-65.902 9.8499,-3.783 20.2056,-6.971 29.8882,-11.573 22.7776,-10.839 47.7567,-19.194 67.033,-34.577 15.7199,-12.503 31.389,-32.911 1.4141,-51.963 -5.7304,-3.641 -5.4468,-16.734 -7.9595,-25.456 8.9756,-1.551 17.9469,-3.048 26.8949,-4.632 14.5366,-2.54 31.8378,-0.956 42.9874,-8.52 28.7599,-19.475 46.6856,-9.826 64.552,14.674 24.4711,33.559 40.0217,33.081 63.1379,-3.188 18.8254,-29.579 41.0124,-52.555 78.4112,-50.665 12.2779,0.622 24.2467,8.355 36.3553,12.871 -7.6208,9.398 -14.3694,19.729 -23.0634,27.999 -13.8867,13.21 -42.5323,26.616 -41.2897,37.145 4.2613,35.873 -22.7521,50.098 -38.163,72.226 -10.9231,15.665 -23.3153,30.288 -35.0555,45.388 -43.4107,8.694 -86.0023,25.062 -129.1019,40.106 -9.3142,3.26 -21.3719,7.917 -30.5952,7.888 z m 310.08,-1.931 c 13.802,-25.206 25.7962,-47.079 39.4861,-72.113 27.3225,44.481 13.9459,68.671 -39.484,72.113 z m 9.3418,-60.739 c -10.3876,-9.569 -15.5802,-15.862 -22.1277,-19.984 -7.9891,-4.996 -18.0612,-6.858 -25.428,-12.477 -5.9844,-4.545 -14.4243,-15.55 -12.7308,-18.514 4.0368,-7.057 12.9531,-14.591 20.7432,-15.608 31.5266,-4.149 47.3884,19.757 39.5433,66.583 z m -1050.3345,-55.577 c -11.5158,0.62 -24.0773,-18.681 -36.1562,-28.872 12.8981,-8.383 24.8098,-20.72 38.923,-24.192 21.7615,-5.362 54.9245,4.209 65.9322,-8.069 40.9552,-45.697 80.9493,0.478 119.6458,-14.509 l 6.6026,24.471 c -25.9402,11.147 -50.9998,25.741 -78.0408,32.627 -38.1588,9.71 -77.6745,16.427 -116.9066,18.544 z m 330.584,-66.711 c -16.2618,-0.811 -27.2759,-18.944 -45.0047,-61.034 30.3136,16.596 55.4896,30.398 82.5285,45.217 -16.12,10.552 -27.7671,16.304 -37.5238,15.817 z m 511.6764,-51.578 c -48.2648,-42.365 -42.2232,-83.832 -41.5733,-126 0.3112,-20.547 -12.4769,-42.025 -22.5532,-61.443 -2.0894,-4.037 -20.8047,-4.629 -27.5787,-0.226 -29.1557,18.967 -56.7322,40.417 -88.57,63.646 12.5615,17.301 23.4274,31.304 33.2222,46.008 10.3028,15.495 13.3511,28.197 -11.374,33.87 -28.4508,6.52 -56.0548,16.766 -84.4485,23.597 -11.0077,2.652 -23.1734,0.451 -42.5344,0.451 12.2483,-16.654 19.1366,-25.996 30.0321,-40.784 -45.3011,4.799 -67.5452,-10.388 -72.0902,-51.652 -2.3137,-21.084 -15.0404,-25.038 -31.4673,-5.986 -29.6066,34.32 -38.6415,30.398 -68.3349,-7.113 -18.601,-23.54 -45.8642,-40.248 -60.8517,-52.922 -24.5557,-31.978 -38.8404,-65.001 -63.9042,-80.073 -44.9625,-27.039 -107.9861,-18.656 -142.7621,-69.349 -1.1558,-1.693 -5.5039,-2.089 -8.1839,-1.723 -37.71,5.419 -41.9141,-20.095 -37.0876,-45.583 9.4286,-49.704 -10.4404,-102.653 21.5667,-150.552 13.1522,-19.699 15.4659,-47.699 18.6539,-72.452 1.2701,-9.85 -6.321,-22.977 -13.603,-31.359 -25.9656,-29.836 -24.1896,-48.435 10.1885,-68.248 12.0514,-6.944 25.7412,-11.008 38.6965,-16.4 -0.254,4.122 -0.4805,8.241 -0.7346,12.363 19.5049,4.799 38.923,13.296 58.483,13.634 41.4907,0.678 82.3888,-5.815 108.7502,40.333 6.6893,11.685 32.204,13.237 49.4502,18.036 17.4156,4.827 36.5225,5.11 52.7526,12.25 52.7525,23.314 113.4073,-5.7 124.9231,-61.332 1.2702,-6.236 4.3481,-12.108 9.1746,-25.148 22.1848,18.853 40.2206,34.179 65.8772,55.997 -11.9117,-23.823 -19.0773,-38.131 -27.4051,-54.812 37.257,3.584 59.3,-1.92 44.7084,-44.145 -2.9636,-8.58 4.854,-25.741 13.0399,-32.488 55.6315,-45.923 167.121,-43.127 223.7686,4.46 6.2935,5.28 10.4701,13.324 14.8181,20.576 11.1771,18.604 20.375,38.555 33.1334,55.943 24.1048,32.824 50.606,63.9 75.0221,96.5 4.6274,6.181 5.2498,16.004 6.1262,24.302 4.6296,44.031 9.0856,88.119 12.7838,132.262 0.7896,9.541 1.0733,21 -3.3574,28.79 -27.2082,47.813 -55.6569,94.948 -84.277,141.97 -2.5699,4.234 -9.0348,7.257 -14.2847,8.527 -28.3661,6.971 -33.2773,26.871 -31.5563,52.329 2.9637,43.749 -12.1635,80.16 -41.3214,113.634 -10.3007,11.827 -7.1973,34.998 -11.2893,52.723 -3.3594,14.509 -8.3553,28.622 -14.0285,47.589 z m -2210.9771,-46.063 c -7.7054,-14.395 -14.0836,-29.696 -23.3978,-42.932 -14.9028,-21.142 -27.8306,-51.313 -48.576,-59.161 -51.7935,-19.617 -81.1186,-52.1 -58.7073,-95.596 16.7953,-32.6 2.2863,-48.857 -12.9002,-69.264 -19.6997,-26.476 -4.1194,-103.5 25.1231,-117.838 5.8976,-2.879 14.0814,-6.778 19.1344,-4.831 38.0191,14.819 70.4496,38.303 72.4247,82.11 2.5953,58.199 28.9017,108.837 44.1432,162.915 6.3506,22.553 14.8774,44.479 23.5142,69.882 -4.0644,9.767 -7.7901,21.594 -13.6898,32.179 -8.1584,14.648 -17.9807,28.395 -27.0685,42.536 z m 2715.7969,-243.193 c -9.2973,0.373 -21.6768,-2.396 -37.6931,-7.9 21.8165,-16.088 39.2003,-28.874 60.2844,-44.397 3.4166,35.472 -2.1317,51.482 -22.5913,52.297 z m 118.9007,-397.331 c -5.161,-0.513 -14.0751,-3.468 -14.0328,-4.42 0.4805,-12.193 -0.3662,-26.302 5.5335,-36.04 18.5438,-30.625 23.201,-54.927 -4.0369,-86.68 -26.0227,-30.371 -4.9958,-83.324 15.3812,-86.569 22.6654,21.903 37.2317,41.099 56.3132,53.207 26.9817,17.132 37.6486,36.946 27.0642,67.203 -39.177,3.19 -53.3156,31.274 -65.566,61.956 -4.3734,10.923 -10.0191,21.703 -17.2165,30.875 -0.4149,0.538 -1.7189,0.639 -3.4399,0.468 z m -71.9188,-171.541 c -9.0898,-19.617 -11.7698,-38.019 -22.297,-45.752 -35.5932,-26.194 -75.4751,-46.656 -110.6152,-73.414 -14.706,-11.204 -30.9064,-33.586 -29.4669,-49.308 1.5791,-16.992 21.2238,-42.534 36.2684,-45.104 14.4223,-2.456 36.0398,17.049 49.2787,31.643 34.1516,37.651 66.0212,77.473 97.4927,117.47 8.8909,11.316 21.5075,29.665 17.7246,38.472 -5.0529,11.74 -24.4435,17.328 -38.3853,25.993 z m -601.108,-19.308 c -22.5574,0.709 -35.229,-8.432 -40.5043,-28.136 -6.5475,-24.528 -8.8083,-50.1 23.3386,-58.171 37.71,-9.456 56.764,12.163 68.9847,74.539 -21.1899,7.367 -38.2815,11.342 -51.8168,11.768 z m -4584.4603,-341.571 c -17.5807,0.364 -35.4725,-9.007 -52.9389,-7.991 v -46.459 c 31.4145,8.946 60.0389,17.079 93.0388,26.478 -12.9425,21.522 -26.427,27.691 -40.0999,27.972 z"
         id="path46390"
         style="stroke-width:2.11688" />
    </g>
  </g>
</svg>
