<?xml version="1.0" encoding="UTF-8" standalone="no"?>
<svg
   id="Layer_3"
   height="512"
   viewBox="0 0 64 64"
   width="512"
   data-name="Layer 3"
   version="1.1"
   xmlns="http://www.w3.org/2000/svg"
   xmlns:svg="http://www.w3.org/2000/svg">
  <defs
     id="defs2517" />
  <path
     d="m30 26a13 13 0 1 0 13 13 13 13 0 0 0 -13-13zm5.379 15.379a2.121 2.121 0 0 1 -3 3l-2.379-2.379-2.379 2.379a2.121 2.121 0 0 1 -3-3l2.379-2.379-2.379-2.379a2.121 2.121 0 0 1 3-3l2.379 2.379 2.379-2.379a2.121 2.121 0 0 1 3 3l-2.379 2.379z"
     fill="#f4b2b0"
     id="path2484"
     style="fill:#1391ff;fill-opacity:1;opacity:0.6" />
  <path
     d="m13 6h6v4h-6z"
     fill="#f4b2b0"
     id="path2486"
     style="fill:#1391ff;fill-opacity:1;opacity:0.6" />
  <path
     d="m13 16h6v4h-6z"
     fill="#f4b2b0"
     id="path2488"
     style="fill:#1391ff;fill-opacity:1;opacity:0.6" />
  <g
     fill="#b3404a"
     id="g2512">
    <path
       d="M 30,53 A 14,14 0 1 0 16,39 14.015,14.015 0 0 0 30,53 Z M 30,27 A 12,12 0 1 1 18,39 12.013,12.013 0 0 1 30,27 Z"
       id="path2490"
       style="fill:#000000;fill-opacity:1;opacity:0.9" />
    <path
       d="m 23,42.879 a 3.121,3.121 0 0 0 5.328,2.207 L 30,43.414 l 1.672,1.672 a 3.1211693,3.1211693 0 0 0 4.414,-4.414 L 34.414,39 36.086,37.328 A 3.1211693,3.1211693 0 0 0 31.672,32.914 L 30,34.586 28.328,32.914 a 3.1211693,3.1211693 0 0 0 -4.414,4.414 L 25.586,39 23.914,40.672 A 3.1,3.1 0 0 0 23,42.879 Z m 2.328,-0.793 2.379,-2.379 a 1,1 0 0 0 0,-1.414 l -2.379,-2.379 a 1.1214714,1.1214714 0 0 1 1.586,-1.586 l 2.379,2.379 a 1,1 0 0 0 1.414,0 l 2.379,-2.379 a 1.1214714,1.1214714 0 0 1 1.586,1.586 l -2.379,2.379 a 1,1 0 0 0 0,1.414 l 2.379,2.379 a 1.1214714,1.1214714 0 0 1 -1.586,1.586 l -2.379,-2.379 a 1,1 0 0 0 -1.414,0 l -2.379,2.379 a 1.1214714,1.1214714 0 0 1 -1.586,-1.586 z"
       id="path2492"
       style="fill:#000000;fill-opacity:1;opacity:0.9" />
    <path
       d="M 52,5 A 4,4 0 0 0 48,1 H 12 A 4,4 0 0 0 8,5 v 50 a 4,4 0 0 0 4,4 4,4 0 0 0 4,4 h 36 a 4,4 0 0 0 4,-4 V 9 A 4,4 0 0 0 52,5 Z M 10,55 V 5 a 2,2 0 0 1 2,-2 h 36 a 2,2 0 0 1 2,2 v 50 a 2,2 0 0 1 -2,2 H 12 a 2,2 0 0 1 -2,-2 z m 44,4 a 2,2 0 0 1 -2,2 H 16 a 2,2 0 0 1 -2,-2 h 34 a 4,4 0 0 0 4,-4 V 7 a 2,2 0 0 1 2,2 z"
       id="path2494"
       style="fill:#000000;fill-opacity:1;opacity:0.9" />
    <path
       d="m 13,11 h 6 a 1,1 0 0 0 1,-1 V 6 A 1,1 0 0 0 19,5 h -6 a 1,1 0 0 0 -1,1 v 4 a 1,1 0 0 0 1,1 z m 1,-4 h 4 v 2 h -4 z"
       id="path2496"
       style="fill:#000000;fill-opacity:1;opacity:0.9" />
    <path
       d="M 22,5 H 39 V 7 H 22 Z"
       id="path2498"
       style="fill:#000000;fill-opacity:1;opacity:0.9" />
    <path
       d="m 22,9 h 22 v 2 H 22 Z"
       id="path2500"
       style="fill:#000000;fill-opacity:1;opacity:0.9" />
    <path
       d="m 46,9 h 2 v 2 h -2 z"
       id="path2502"
       style="fill:#000000;fill-opacity:1;opacity:0.9" />
    <path
       d="m 13,21 h 6 a 1,1 0 0 0 1,-1 v -4 a 1,1 0 0 0 -1,-1 h -6 a 1,1 0 0 0 -1,1 v 4 a 1,1 0 0 0 1,1 z m 1,-4 h 4 v 2 h -4 z"
       id="path2504"
       style="fill:#000000;fill-opacity:1;opacity:0.9" />
    <path
       d="m 22,15 h 17 v 2 H 22 Z"
       id="path2506"
       style="fill:#000000;fill-opacity:1;opacity:0.9" />
    <path
       d="m 22,19 h 22 v 2 H 22 Z"
       id="path2508"
       style="fill:#000000;fill-opacity:1;opacity:0.9" />
    <path
       d="m 46,19 h 2 v 2 h -2 z"
       id="path2510"
       style="fill:#000000;fill-opacity:1;opacity:0.9" />
  </g>
</svg>
