<?xml version="1.0" encoding="UTF-8" standalone="no"?>
<svg
   id="Layer_3"
   height="512"
   viewBox="0 0 64 64"
   width="512"
   data-name="Layer 3"
   version="1.1"
   xmlns="http://www.w3.org/2000/svg"
   xmlns:svg="http://www.w3.org/2000/svg">
  <defs
     id="defs10475" />
  <g
     fill="#f4b2b0"
     id="g10466">
    <path
       d="m 15.827,59.024 h 35 v -26 h -32 v 23 a 3,3 0 0 1 -3,3 z"
       id="path10460"
       style="fill:#1391ff;fill-opacity:1;opacity:0.6" />
    <path
       d="m 24,5 -6,10 h 3 v 10 h 6 V 15 h 3 z"
       id="path10462"
       style="fill:#1391ff;fill-opacity:1;opacity:0.6" />
    <path
       d="M 40,25 46,15 H 43 V 5 h -6 v 10 h -3 z"
       id="path10464"
       style="fill:#1391ff;fill-opacity:1;opacity:0.6" />
  </g>
  <path
     d="m55.233 24.766a12.013 12.013 0 0 0 -9.358-7.614l.982-1.637a1 1 0 0 0 -.857-1.515h-2v-9a1 1 0 0 0 -1-1h-6a1 1 0 0 0 -1 1v7.855a18.838 18.838 0 0 0 -7.748-2.711l-3.395-5.659a1.039 1.039 0 0 0 -1.714 0l-4.105 6.841a19.02 19.02 0 0 0 -11.695 14.079 12 12 0 0 0 4.657 22.544v8.051a4 4 0 0 0 4 4h35a1 1 0 0 0 1-1v-11.051a12 12 0 0 0 3.233-23.183zm-17.233-9.766v-9h4v9a1 1 0 0 0 1 1h1.234l-4.234 7.056-4.234-7.056h1.234a1 1 0 0 0 1-1zm-14-8.056 4.234 7.056h-1.234a1 1 0 0 0 -1 1v9h-4v-9a1 1 0 0 0 -1-1h-1.234zm-12 19.056v19.949a10.008 10.008 0 0 1 -3.325-18.978 1 1 0 0 0 .552-.74 17.023 17.023 0 0 1 7.913-11.739 1 1 0 0 0 .86 1.508h2v6h-4a4 4 0 0 0 -4 4zm6 7v23a2 2 0 0 1 -4 0v-30a2 2 0 0 1 2-2h4v1a1 1 0 0 0 1 1h6a1 1 0 0 0 1-1v-1h1.837a2 2 0 0 1 1.9 1.367l1.316 3.949a1 1 0 0 0 .947.684h12v2h-27a1 1 0 0 0 -1 1zm32 25h-30.537a3.97 3.97 0 0 0 .537-2v-22h30zm2-12.051v-12.949a1 1 0 0 0 -1-1h-3v-3a1 1 0 0 0 -1-1h-12.28l-1.088-3.265a3.994 3.994 0 0 0 -3.795-2.735h-1.837v-6h2a1 1 0 0 0 .857-1.515l-1.257-2.094a16.814 16.814 0 0 1 4.39 1.609 1 1 0 0 0 -.847 1.514l6 10a1 1 0 0 0 1.714 0l3.889-6.481a10.007 10.007 0 0 1 8.754 6.83 1 1 0 0 0 .637.637 10 10 0 0 1 -2.137 19.449z"
     fill="#b3404a"
     id="path10468"
     style="fill:#000000;fill-opacity:1;opacity:0.9" />
  <path
     d="m28 52a7.206 7.206 0 0 0 5.655-2.718l1.345-1.682 1.345 1.681a7.206 7.206 0 0 0 5.655 2.719 6 6 0 0 0 0-12 7.206 7.206 0 0 0 -5.655 2.718l-1.345 1.682-1.345-1.681a7.206 7.206 0 0 0 -5.655-2.719 6 6 0 0 0 0 12zm9.907-8.032a5.214 5.214 0 0 1 4.093-1.968 4 4 0 0 1 0 8 5.214 5.214 0 0 1 -4.093-1.968l-1.626-2.032zm-9.907-1.968a5.214 5.214 0 0 1 4.093 1.968l1.626 2.032-1.626 2.032a5.214 5.214 0 0 1 -4.093 1.968 4 4 0 0 1 0-8z"
     fill="#b3404a"
     id="path10470"
     style="fill:#000000;fill-opacity:1;opacity:0.9" />
</svg>
