<?xml version="1.0" encoding="UTF-8" standalone="no"?>
<svg
   id="mdi-microsoft-edge"
   fill="#ffffff"
   viewBox="0 0 20.014343 19.901396"
   version="1.1"
   width="20.014343"
   height="19.901396"
   xmlns="http://www.w3.org/2000/svg"
   xmlns:svg="http://www.w3.org/2000/svg">
  <defs
     id="defs1751" />
  <path
     d="m 8.8858095,13.371395 c -0.69,-0.77 -1.16,-1.69 -1.31,-2.72 -0.3,0.46 -0.55,0.96 -0.73,1.5 -0.92,2.75 0.68,6.18 3.4000005,7.18 2.34,0.78 4.97,-0.61 6.7,-2.13 0.26,-0.35 2.31,-2.16 1.29,-2.36 -3.02,1.55 -7.02,1.11 -9.3500005,-1.47 m 0.6,-5.8099995 c 1.0400005,-0.01 0.04,-0.43 -0.39,-0.75 -1.04,-0.57 -2.26,-0.85 -3.44,-0.85 -3.85,0.04 -6.63499998,2.45 -5.32999998,6.4399995 0.93999998,3.88 4.30999998,7 8.28999998,7.5 -2.05,-1.29 -3.29,-3.71 -3.29,-6.12 0.08,-2.53 1.64,-5.4999995 4.16,-6.2199995 m -8.67999998,-1.32 c 3.03999998,-2.24 7.87999998,-2.06 10.50000048,0.76 1.02,1.11 1.72,2.9999995 0.79,4.3699995 -1.74,1.88 3.08,2.13 4.11,1.85 3.74,-0.72 4.73,-5.0699995 2.95,-8.0699995 -1.7,-3.4 -5.47,-5.18000001 -9.1700005,-5.15000001 -4.06,-0.07 -7.71,2.50000001 -9.17999998,6.24000001 z"
     id="path1746"
     style="fill:#ffffff" />
</svg>
