<?xml version="1.0" encoding="UTF-8" standalone="no"?>
<svg
   height="512"
   viewBox="0 0 64 64"
   width="512"
   version="1.1"
   id="svg11201"
   xmlns="http://www.w3.org/2000/svg"
   xmlns:svg="http://www.w3.org/2000/svg">
  <defs
     id="defs11205" />
  <g
     id="Layer_22"
     data-name="Layer 22">
    <rect
       fill="#f4b2b0"
       height="4"
       rx="2"
       width="14"
       x="33"
       y="2"
       id="rect11170"
       style="fill:#1391ff;fill-opacity:1;opacity:0.6" />
    <path
       d="M 40,10 A 22,22 0 1 0 62,32 22,22 0 0 0 40,10 Z m 0,38 A 16,16 0 1 1 56,32 16,16 0 0 1 40,48 Z"
       fill="#f4b2b0"
       id="path11172"
       style="fill:#1391ff;fill-opacity:1;opacity:0.6" />
    <g
       fill="#b3404a"
       id="g11198">
      <path
         d="M 45,9.554 V 7 A 3,3 0 0 0 45,1 H 35 a 3,3 0 0 0 0,6 v 2.554 a 23,23 0 1 0 10,0 z M 34,4 a 1,1 0 0 1 1,-1 h 10 a 1,1 0 0 1 0,2 H 35 A 1,1 0 0 1 34,4 Z m 3,3 h 6 v 2.2 a 22.378,22.378 0 0 0 -6,0 z m 3,46 A 21,21 0 1 1 61,32 21.024,21.024 0 0 1 40,53 Z"
         id="path11174"
         style="fill:#000000;fill-opacity:1;opacity:0.9" />
      <path
         d="M 40,15 A 17,17 0 1 0 57,32 17.019,17.019 0 0 0 40,15 Z m 0,32 A 15,15 0 1 1 55,32 15.017,15.017 0 0 1 40,47 Z"
         id="path11176"
         style="fill:#000000;fill-opacity:1;opacity:0.9" />
      <path
         d="M 48.97,36.758 A 1,1 0 0 0 48.707,36.293 L 44.946,32.532 A 4.915,4.915 0 0 0 45,32 4.977,4.977 0 0 0 43,28.026 V 23 a 1.006,1.006 0 0 0 -0.168,-0.555 l -2,-3 a 1.039,1.039 0 0 0 -1.664,0 l -2,3 A 1.006,1.006 0 0 0 37,23 v 5.026 A 4.983,4.983 0 0 0 40,37 4.915,4.915 0 0 0 40.532,36.946 l 3.761,3.761 a 1,1 0 0 0 0.464,0.263 l 4,1 a 1,1 0 0 0 0.95,-0.263 1,1 0 0 0 0.263,-0.949 z M 39,23.3 l 1,-1.5 1,1.5 v 3.8 a 5,5 0 0 0 -2,0 z M 37,32 a 3,3 0 1 1 3,3 3,3 0 0 1 -3,-3 z m 8.511,7.1 -2.869,-2.87 a 5,5 0 0 0 1.585,-1.585 l 2.87,2.87 0.528,2.114 z"
         id="path11178"
         style="fill:#000000;fill-opacity:1;opacity:0.9" />
      <path
         d="M 39,58 A 26.029,26.029 0 0 1 13,32 h -2 a 28.032,28.032 0 0 0 28,28 z"
         id="path11180"
         style="fill:#000000;fill-opacity:1;opacity:0.9" />
      <path
         d="m 2,61 h 32 v 2 H 2 Z"
         id="path11182"
         style="fill:#000000;fill-opacity:1;opacity:0.9" />
      <path
         d="m 10,57 h 14 v 2 H 10 Z"
         id="path11184"
         style="fill:#000000;fill-opacity:1;opacity:0.9" />
      <path
         d="m 2,53 h 17 v 2 H 2 Z"
         id="path11186"
         style="fill:#000000;fill-opacity:1;opacity:0.9" />
      <path
         d="m 7,49 h 8 v 2 H 7 Z"
         id="path11188"
         style="fill:#000000;fill-opacity:1;opacity:0.9" />
      <path
         d="M 2,7 H 30 V 9 H 2 Z"
         id="path11190"
         style="fill:#000000;fill-opacity:1;opacity:0.9" />
      <path
         d="m 10,11 h 14 v 2 H 10 Z"
         id="path11192"
         style="fill:#000000;fill-opacity:1;opacity:0.9" />
      <path
         d="m 2,15 h 17 v 2 H 2 Z"
         id="path11194"
         style="fill:#000000;fill-opacity:1;opacity:0.9" />
      <path
         d="m 7,19 h 8 v 2 H 7 Z"
         id="path11196"
         style="fill:#000000;fill-opacity:1;opacity:0.9" />
    </g>
  </g>
</svg>
