<?xml version="1.0" encoding="UTF-8" standalone="no"?>
<svg
   id="Layer_3"
   data-name="Layer 3"
   viewBox="0 0 64 64"
   width="512"
   height="512"
   version="1.1"
   xmlns="http://www.w3.org/2000/svg"
   xmlns:svg="http://www.w3.org/2000/svg">
  <defs
     id="defs4013" />
  <path
     d="M48,34A14,14,0,1,0,62,48,14,14,0,0,0,48,34Zm7.379,10.621-9.672,9.672a2.414,2.414,0,0,1-3.414,0l-2.672-2.672a2.121,2.121,0,0,1,3-3L44,50l8.379-8.379a2.121,2.121,0,0,1,3,3Z"
     style="fill:#1391ff;fill-opacity:1;opacity:0.6"
     id="path4004" />
  <path
     d="M53.879,40a3.1,3.1,0,0,0-2.207.914L44,48.586l-.672-.672A3.121,3.121,0,0,0,38,50.121a3.142,3.142,0,0,0,.914,2.207L41.585,55a3.415,3.415,0,0,0,4.829,0l9.672-9.672A3.121,3.121,0,0,0,53.879,40Zm.793,3.914L45,53.586a1.447,1.447,0,0,1-2,0l-2.672-2.672A1.121,1.121,0,0,1,41.121,49a1.112,1.112,0,0,1,.793.328l1.379,1.379a1,1,0,0,0,1.414,0l8.379-8.379A1.121,1.121,0,0,1,55,43.121,1.133,1.133,0,0,1,54.672,43.914Z"
     style="fill:#000000;fill-opacity:1;opacity:0.9"
     id="path4006" />
  <path
     d="M56.233,35.475A28.038,28.038,0,1,0,35.475,56.233,14.991,14.991,0,1,0,56.233,35.475ZM48,33a14.879,14.879,0,0,0-5.241.964c.115-1.308.188-2.628.211-3.964h12a26.131,26.131,0,0,1-.553,4.461A14.884,14.884,0,0,0,48,33Zm-5.012-5a52.954,52.954,0,0,0-1.312-11.08,27.629,27.629,0,0,0,6.809-4.991l.054-.054A25.883,25.883,0,0,1,54.975,28ZM28,54.9c-3.9-.736-7.336-5.717-9.29-12.742A25.449,25.449,0,0,1,28,40.024Zm0-16.874a27.441,27.441,0,0,0-9.788,2.165A50.574,50.574,0,0,1,17.012,30H28ZM17.012,28a50.574,50.574,0,0,1,1.2-10.189A27.441,27.441,0,0,0,28,19.976V28ZM30,3.1c3.9.736,7.336,5.717,9.29,12.742A25.449,25.449,0,0,1,30,17.976ZM28,17.976a25.449,25.449,0,0,1-9.29-2.132C20.664,8.819,24.1,3.838,28,3.1Zm2,2a27.441,27.441,0,0,0,9.788-2.165A50.574,50.574,0,0,1,40.988,28H30Zm17.071-9.461a25.675,25.675,0,0,1-5.912,4.417c-1.386-4.861-3.478-8.769-6.02-11.193a25.973,25.973,0,0,1,12.025,6.683Zm-30.23,4.417a25.675,25.675,0,0,1-5.912-4.417l-.093-.093A25.973,25.973,0,0,1,22.861,3.739C20.319,6.163,18.227,10.071,16.841,14.932Zm-7.326-3a27.629,27.629,0,0,0,6.809,4.991A52.954,52.954,0,0,0,15.012,28H3.025A25.883,25.883,0,0,1,9.461,11.875ZM15.012,30a52.954,52.954,0,0,0,1.312,11.08,27.629,27.629,0,0,0-6.809,4.991l-.054.054A25.883,25.883,0,0,1,3.025,30ZM10.929,47.485a25.675,25.675,0,0,1,5.912-4.417c1.386,4.861,3.478,8.769,6.02,11.193a25.973,25.973,0,0,1-12.025-6.683Zm22.858,5.276A7.479,7.479,0,0,1,30,54.9V40.036a25.428,25.428,0,0,1,4.905.669,14.871,14.871,0,0,0-1.118,12.056Zm2.287-13.822a27.535,27.535,0,0,0-6.074-.9V30H40.97c-.03,1.667-.129,3.317-.306,4.93A15.085,15.085,0,0,0,36.074,38.939ZM48,61A13,13,0,1,1,61,48,13.015,13.015,0,0,1,48,61Z"
     style="fill:#000000;fill-opacity:1;opacity:0.9"
     id="path4008" />
</svg>
