<svg
  xmlns="http://www.w3.org/2000/svg"
  width="3627.997"
  height="2097.466"
  version="1.1"
  viewBox="0 0 3627.997 2097.466"
>
  <g transform="matrix(1.33333 0 0 -1.33333 -181.334 2287.063)">
    <g
      fillOpacity="1"
      fillRule="nonzero"
      stroke="none"
      transform="scale(.1)"
    >
      <path
        fill="#1391ff"
        opacity="0.6"
        d="M1575.73 379.785c-15.004.846-29.195 4.769-40.437 14.361-17.32 14.76-29.572 19.2-48.186 8.053-1.2-.72-3.68.694-6.24 1.268-.987 9.2-1.96 18.24-2.68 24.972-14.173-3.533-26.84-6.679-39.747-9.892-1.68 5.2-2.186 7.039-2.866 8.812-1.893 4.987-3.854 9.935-5.8 14.895-3.374-3.92-7.787-7.347-9.934-11.854-5.387-11.333-14.226-11.2-22.746-.88-9.64-2.627-19.388-8.706-26.801-6.586-15.413 4.386-33.052 7.04-41.543 24.8-1.944 4.067-8.654 8.48-13.012 8.332-21.944-.786-30.469 9.561-27.246 26.641-18.697 10.533-34.949 19.466-50.96 28.799-7.115 4.147-13.75 9.12-20.602 13.72 8.472.76 16.947 1.493 25.418 2.28 7.594.707 15.188 1.454 22.78 2.174l-.097 7.76c-10.47 1.4-20.94 2.787-33.969 4.507 3.655 5 5.387 8.374 8.006 10.787 18.305 16.88 40.333 12.506 61.775 10.106 26.63-2.987 36.264.532 45.944 25.28 8.653 22.092 13.453 45.693 19.627 67.493 6.253.667 12.666 1.348 19.08 2.041-.174 1.92-.348 3.852-.508 5.785a16986.43 16986.43 0 00-19.44 11.041c4.574 2.667 6.907 3.76 8.92 5.266 6.174 4.653 12.227 9.455 18.32 14.201-5.226 6.094-9.36 14.013-15.894 17.88-15.546 9.2-16.506 22.72-12.386 37.013 5.013 17.4 16.374 33.906 17.521 51.306 2.253 34.387 30.905 45.04 50.799 63.374 2.933 2.706 18.44-1.346 20.773-5.973 11.6-23.067 23.867-46.627 29.627-71.467 3.707-16.04 9-22 23.906-22.986 10.76-.72 21.454-2.586 32.174-4.053 12.52-1.72 20.947-6.654 22.68-21.268 1.573-13.293 8.693-21.932 24.92-18.892 39.693 7.413 71.48-12.561 83.88-51.735 3.668-3.578 10.879-9.562 10.387-10.306-5.546-8.16-12.213-15.586-18.773-23.04-3.8-4.32-7.96-8.333-11.947-12.493 1.613-1.627 3.226-3.266 4.84-4.893 6.146 2.053 12.294 4.094 18.96 6.32 16.014-14.08 32.187-28.307 49.987-43.96-8.333-5.094-11.066-7.068-14.053-8.561-13.12-6.547-13.775-14.32-3.228-23.014 4.52-3.72 6.521-10.492 9.668-15.865-6.267-3.227-12.414-6.761-18.868-9.588-4.386-1.92-9.199-2.865-13.826-4.252 2.494-5.093 3.826-11.507 7.733-15.027 7.666-6.894 16.787-12.186 27.254-19.506-8.067-4.64-12.827-7.388-18.547-10.682 19.933-5.666 38.386-9.826 55.92-16.44 6.906-2.6 11.746-10.652 17.52-16.226-7.76-2.933-15.666-8.654-23.253-8.254-24.16 1.28-48.733 2.948-67.373 22.254-3.12 3.227-8.48 4.306-16.947 8.36 7.987-13.227 13.199-21.866 18.412-30.493-1.56-1.453-3.132-2.908-4.705-4.36a42448.832 42448.832 0 01-29.734 14.24l-10.96-23.026c12.96-2.093 27.226-4.4 41.493-6.707-.08-2.133-.172-4.281-.252-6.428-29.973-23.146-61.669 4.055-92.455 4.895-.107-1.64-.226-3.28-.346-4.92 10.867-3.52 21.734-7.041 36.027-11.668-6.186-5.787-9-10.772-12.507-11.332-6.657-1.054-13.481-1.898-20.286-2.305-5.103-.305-10.195-.366-15.197-.084zm-326.06 25.772c-13.54-.33-26.16 2.106-34.606 17.976a9727.482 9727.482 0 00-14.906-13.92c-8.043 2.027-13.993 5.108-19.65 4.64-12.552-1.026-23.378-1.746-31.934 10.987-2.345 3.494-13.467 1.747-20.48 1.254-6.964-.493-14.711-5.093-20.543-3.16-11.018 3.667-20.91 10.72-32.319 16.934 18.852 52.76 58.695 23.425 92.547 18.199l.844 6.693c-8.224 2.04-16.809 3.186-24.566 6.36-7.35 3.013-13.83 8.134-22.873 13.668-3.24-1.24-10.22-3.909-17.88-6.829-6.22 15.374 14.609 32.627-8.609 42.387-13.112 5.52-24.68 14.708-40.853 24.654 3.693 3.707 9.943 15.626 17.463 16.493 23.849 2.746 48.433 3.613 72.228.853 18.727-2.173 22.879-17.227 15.748-28.467 14.916-14.2 28.369-28.412 43.422-40.652 6.041-4.92 16.282-8.92 23.438-7.48 30.332 6.08 54.674-16.893 47.63-46.973 12.656-1.76 25.541-2.574 37.834-5.707 6.058-1.547 11.022-7.386 16.48-11.28-6.778-4.413-13.09-11.36-20.433-12.707-14.452-2.653-29.488-2.013-44.258-3.066-4.596-.33-9.211-.747-13.724-.857zm1500.203 37.03c-.746.028-1.439.149-2.06.374-11.374 4.12-21.266 12.306-32.346 19.2 8.813 17.266 19.133 27.386 38.933 12.759 4.946-3.644 12.279-4.067 18.604-5.832-1.826-6.276-2.019-14.171-6.057-18.262-4.048-4.106-11.854-8.428-17.074-8.238zm23.13 26.5c.02.066.03.14.05.206h.06l.296-.268.072-.052c-.154.045-.322.072-.477.115zm.11.206c-7.096 6.413-14.153 12.802-23.273 21.055 17.72 9.733 33.92 17.864 55.56 9.771-7.565-15.544-11.715-31.577-32.287-30.826zM1039.71 448.77c-1.855-.055-3.246.233-3.857.976-8.426 10.2-14.123 23.268-18.131 36.108-1.076 3.44 7.339 10.105 11.761 14.959 6.852 7.506 14.017 14.747 21.05 22.107 17.995-1.8 26.576-7.533 31.2-21.426 6.652-19.987 2.922-30.601-21.46-45.974-5.274-3.33-14.999-6.585-20.563-6.75zm1055.978 14.146a208.05 208.05 0 00-9.9.111c-7.307.267-14.52 3.252-21.787 5.026 3.987 7.8 6.774 16.668 12.414 22.988 3.307 3.693 11.172 3.305 22.398 6.105 9.574-5.4 22.254-12.066 34.307-19.746 2.293-1.466 2.094-6.88 3.041-10.466-3.573-.92-7.12-2.455-10.72-2.655-9.91-.56-19.843-1.253-29.753-1.363zM980.99 468.561c-2.556 2.546-5.112 5.08-7.668 7.626 3.723 5.174 7.444 10.347 11.168 15.52l14.365-10.52c-5.956-4.213-11.909-8.413-17.865-12.626zm1063.33 3.572c-6.786-.04-13.6 5.987-24.466 11.48-3.614-.36-11.387-.707-18.987-2.093-4.293-.774-10.8-5.68-11.933-4.506-3.667 3.786-7.828 9.946-7.108 14.44 1.173 7.32 4.907 18.826 9.627 19.946 7.813 1.867 17.253-3.094 28.973-5.894-16.467 17.907 1.868 25.974 9.748 37.107 2.693 3.8 8.252 5.573 12.492 8.28 2.24-4.414 4.254-8.96 6.787-13.213 4.493-7.547 9.306-14.906 13.986-22.346 4.2 5.707 8.401 11.427 13.428 18.24 5.227.24 12.987 1.64 20.373.52 4.467-.667 9.96-4.428 11.893-8.334 1.293-2.6-1.785-9.907-4.865-11.627-8.707-4.894-19.028-7-27.561-12.12-6.973-4.2-12.307-11.119-18.307-16.906-4.746-4.56-9.373-12.96-14.08-12.974zm780.56 14.373c-4.132-.68-12.372 13.56-15.386 22.187-.92 2.627 9.386 9.161 18.2 17.268 9.813-9.227 17.066-16.054 24.306-22.867-8.96-6-17.44-15.001-27.12-16.588zm-1894.339 4.307c-8.033 5.28-13.475 8.84-18.916 12.414 3.93 5.373 7.368 11.212 11.936 15.972 4.382 4.574 9.448 10.121 15.097 11.428 7.632 1.773 16.108-.094 24.223-.4-.88-6 .365-14.08-3.065-17.547-7.954-8.04-18.167-13.84-29.275-21.868zm-72.057 5.542a9.504 9.504 0 00-2.47.286c-8.335 2.16-15.137 10.24-22.6 15.773l4 6.6 37.967-7.4c.91-2.747 1.82-5.495 2.73-8.255-6.507-2.193-13.676-6.948-19.627-7.004zm139.368 4.452a3.342 3.342 0 00-.868.086c-6.365 1.506-15.37 10.48-15.156 15.947.221 5.64 9.5 13.894 16.031 15.267 4.347.92 10.822-8.188 20.135-15.988-9.101-6.975-15.673-15.191-20.142-15.312zm-125.934 21.406c-36.467 3.933-36.467 3.933-31.117 26.853 7.546-13.026 31.028-2.813 31.117-26.853zm1972.348 3.213c-6.667 1.546-11.879 11.973-16.399 19.32-2.533 4.093-2.334 9.854-3.574 15.867-3.56-.653-6.692-1.653-9.879-1.76-16.893-.586-37.253-7.039-49.84.108-17.133 9.72-35.628 5.758-51.615 13.852-7.027 3.56-13.746 7.747-20.6 11.64 3.987 5.907 7.975 11.828 14.201 21.041-13.866 0-25.92-1.413-37.386.547-6.507 1.12-15.893 6.946-16.986 12.133-1.12 5.28 5.772 12.8 10.185 18.56 6.68 8.72 14.241 16.759 21.428 25.092-15.8-7.266-27.88-17.293-41.4-24.68-3.174-1.72-12.201 4.56-16.575 9.053-1.933 1.987 1.027 8.722 1.76 13.295-1.947.947-3.907 1.88-5.854 2.813-8.626-13.48-17.253-26.946-26.213-40.96-2.16 3.467-4.359 5.346-4.132 6.866 3.133 21.293 6.226 42.615 10.586 63.668.44 2.12 9.453 4.48 13.68 3.44 16.293-4.027 20.734-1.64 23.6 15.16-22.252-11.84-22-11.747-31.734 13.226-2.626 6.76-5.852 14.866-11.345 18.506-6.133 4.067-15.174 3.748-22.947 5.348-1.734-2.174-3.455-4.348-5.188-6.508 38.267-8.76 32.294-30.066 19.961-53.332-.88-1.64-.173-4.054-.613-6.028-4.387-19.693-7.693-39.76-13.973-58.853-2.093-6.373-12.04-14.32-18.027-14.028-5.547.267-11.8 9.921-15.547 16.655-3.467 6.266-1.666 17.107-6.28 20.8-20.866 16.627-6.373 29.16 2.893 42.866 4.414 6.52 8.294 13.413 12.414 20.146-1.533 1.787-3.054 3.589-4.574 5.375-19.853-27.253-45.572-37-77.186-30.88.814 8.826 1.507 16.426 2.213 24.013-1.306.227-2.6.44-3.906.652-3.427-4.386-6.841-8.786-8.201-10.52-12.173 3.108-21.8 6.414-31.707 7.92-25.973 3.948-53.238 2.348-72.932 25.802-7.413 8.826-15.76 6.172-17.654-7.041-2.427-16.907-12.573-19.814-29.08-14.547 4.84 14.426 9.347 27.827 12.24 36.467-13.773 3.706-24.64 7.72-35.867 9.453-24.987 3.853 10.174 23.84-7.053 24.4-7.88-3.693-15.774-7.387-23.654-11.08-.6 8.32-1.212 16.628-1.799 24.814-14.827-9.36-22.881-25.16-23.668-42.92 14.213 0 27.601 1.827 40.055-.787 6.106-1.28 13.213-10.187 14.68-16.8.946-4.32-6.493-11.987-11.827-15.84-7.013-5.067-16.64-6.614-23.428-11.867-20.88-16.187-53.186-14.48-66.439-42.586-.827-1.76-5.893-3.693-6.906-2.893-15.72 12.307-31.215-5.654-47.828-.121v11.52h-42.133c7.187 9.333 10.388 13.494 16.428 21.36-15.827 7.867-29.48 19.081-44.387 21.095-26.147 3.546-37.107 22.678-45.627 41.025-12.64 27.24-29.174 47.76-57.627 58.066-16.227 5.867-26.094 21.48-21.64 36.094 4.826 15.893 11.24 31.307 18.027 49.84 9.733-3.813 19.132-9.32 29.132-10.826 7.76-1.174 19.482-.12 23.735 4.826 7.827 9.12 11.518 21.786 16.785 33.066 1.96 4.187 3.454 8.602 5.16 12.909 5.054-2.227 12.108-3.067 14.801-6.934 9.12-13.093 14.054-30.281 25.48-40.348 18.614-16.413 16.934-29.012 2.147-45.879-12.413-14.16-6.066-29.2 10.254-38.853 9.84-5.813 16.599-17.12 24.105-26.48 5.014-6.24 7.88-17.693 13.56-19.053 7.548-1.787 16.894 3.998 24.534 6.252-8.453 8.96-13.852 14.894-19.506 20.588-3.693 3.72-8.76 6.452-11.428 10.746-5.146 8.266-13.147 17.56-12.627 25.986 1.4 22.667 12.667 39.494 44.307 39.547-22.187 13.147-17.759 24.707-4.412 36.56l-5.441 4.08c-6.6-4.026-13.186-8.053-23.04-14.066-1.586 8.04-2.239 15.506-4.599 22.373-4.733 13.76-3.775 39.467-20.748 35.84-23.867-5.107-40.493 13.213-61.746 9.547-7.627-1.307-19.893.199-21.987-3.801-4.026-7.68-2.04-18.399-3.027-27.799-1.093-10.493-2.546-20.974-4.426-31.347-.16-.894-5.508-2.174-7.054-1.16-2.08 1.36-3.96 4.853-3.827 7.306.2 3.373 2.361 6.614 3.721 10.014-23.413 7.96-23.987 11.093-11.467 30.986 3.827 6.067 3.88 14.52 5.614 21.64-21.294 9.427-49.96 4.613-48.534 29.44-13.266 11.16-21.346 19.548-30.92 25.508-8.4 5.213-18.492 7.693-28.599 11.68-6.427 4.08-13.547 8.64-20.707 13.132-3.667 2.294-7.387 4.48-11.08 6.707 3.106 3.76 6.186 7.548 9.346 11.254 7.48 8.747 19.014 16.48 21.441 26.44 2.72 11.2-2.774 24.398-4.64 36.332-10.427-1.027-19.747-1.68-29-2.92-10-1.333-19.868-4.093-29.882-4.693-15.373-.92-19.638 8.493-17.878 22.093 1.973 15.2 5.6 30.347-7.48 43.4-2.468 2.454-2.095 10.333-.108 14.2 6.186 12.08 9.854 29.441 30.668 20.041 1.266-.573 5.372 2.146 6.199 4.133 8.293 20.08 18.986.786 28.293 1.986 10.706 1.387 22.454 9.107 28.654-7.826 3.173-8.653 14.4-19.614 11.973-24.108-7.267-13.426 2.12-15.584 8.627-22.078 12.213-12.173 23.053-25.733 34.467-38.707-1.027-2.253-2.054-4.508-3.08-6.748 10.52 2.56 21.026 5.108 28.4 6.908 12.52-6.173 23.052-11.346 33.572-16.533l-2.559 7.12c15.134 12.986 30.92 25.292 45.16 39.199 10.56 10.306 29.266 17.173 21.573 38.707-7.413.866-14.334 1.667-21.24 2.48a646.642 646.642 0 01-1.627 4.652c7.226 4.387 14.455 8.76 22.455 13.614 7.533-15.294 14.04-28.48 20.92-42.453 2.933.786 8.16 2.16 13.373 3.546l4.119-5.439c-11.667-9.733-22.427-20.987-35.307-28.707-9.293-5.56-37.946-36.84-37.199-47.627.267-3.813 4.52-7.345 7.666-12.092 3.747 3.214 6.44 5.04 8.533 7.412 10.307 11.72 20.015 24 30.815 35.24 7.386 7.68 18.8 12.48 23.84 21.213 10.173 17.587 16.239 37.547 26.265 55.24 2.494 4.387 14.227 6.253 20.64 4.747 4.414-1.04 6.974-9.919 10.667-15.785-4.853-3.654-10.293-7.761-14.533-10.961 6.72-7.8 12.252-14.226 17.972-20.88 8.054 1.174 16.615 2.414 26.522 3.854-2.094 3.174-5.468 5.933-5.281 8.426.88 12.107-.68 26.28 5.173 35.586 5.64 8.933 23.32 20.4 28.746 17.547 21.56-11.347 40.361 8.027 62.028-.293-1.16 18-3.747 33.64-8.174 48.746-4.307 14.707-12.76 22.148-30.453 17.188-8.373-2.36-18.893 2.947-32.986 5.64-.854-.426-7.414-6.76-13.374-6.24-20.106 1.733-33.612-11.854-48.826-19.934-13.373-7.093-21.92-6.267-28.707 5.733-4.093 7.226-5.214 16.146-8.347 26.533-8.134-3.92-16.213-7.906-24.346-11.732-12.267-5.76-24.466-11.681-36.906-17.028-11.907-5.133-24.093-9.627-36.147-14.4a949.31 949.31 0 01-.668-6.053c23.174-8.387 9-23.52 8.227-35.453-.2-3.107-11.973-7.24-18.666-7.732-10.414-.76-21.067.92-31.547 2.066-32.573 3.533-65.827 4.48-92.84 27.506-3.027 2.573-9.96 1.974-14.627.88-7.707-1.813-15.027-5.213-22.947-8.107-7.347 10.387-13.093 27.467-21.906 29.227-20.147 4.026-23.2 15.307-22.16 31.04.92 14.12-3.933 23.56-15.106 32.786-16.56 13.68-36 27.654-44.72 46.014-10 21.053-10.987 46.906-13.387 70.92-2.467 24.653 14.96 53.2-18.28 69.466 7.734 6.454 12.853 10.722 18.227 15.202-3.707 10.146-16.467 21.878 4.84 26.492 1.72.373 2.546 4.28 4.08 6.32 22.626 29.893 44.732 60.213 68.279 89.36 7.707 9.52 17.546 12.32 29.213.413 6.36-6.506 19.76-9.987 29.24-8.8 20.533 2.573 38.094-.467 55.254-12.373 6.68-4.64 16.6-5.547 25.174-6.147 4.507-.307 13.119 3.266 13.412 5.826 2.813 24.334 22.24 22.855 38.68 27.135 5.92 1.533 15.228 6.599 15.441 10.492.76 13.2 2.519 29.588-4.121 39.254-12.093 17.614-2.612 25.813 7.574 36.76 9 9.667 18.96 19.414 24.533 31.027 5.294 10.987 6.933 24.387 7.506 36.84.987 21.453 18.215 42.88 1.668 64.4-24.026 31.227-19.853 60.84-.707 93.426 9.347 15.934 9.96 37.04 14.32 55.854 2.934 12.733 4.533 25.866 8.573 38.226 2.466 7.547 9.147 13.6 12.64 20.934 6.6 13.853 12.267 28.16 18.827 43.44-10.867 11.64-2.68 22.346 7.8 29.84 9.4 6.746 20.454 13.253 32.32.16 4.307-4.747 14.747-6.188 21.987-5.415 9.48 1.014 46.56-9.359 52.426-16.572 6.133-7.533 13.388-14.16 19.748-21.547 4.706-5.466 10.185-10.906 12.851-17.373 7.734-18.733 24.268-33.893 22.815-56.68-.174-2.666 8.452-5.253 11.812-8.947 4.787-5.24 11.267-11.146 12.014-17.386 1.253-10.4-2.24-21.28-2.227-31.96.013-7.693-.213-19.253 4.32-22.386 16.134-11.187 21.401-35.508 45.161-37.334 2.24-.16 4.387-4.533 6.174-7.213 17.933-26.853 8.146-55.6.812-81.48-14.88-52.494.548-103.414 43.188-136.934 19.826-15.6 38.426-34.84 51.76-56.08 14.306-22.814 21.758-49.906 32.492-75.826-4.64-5.294-9.852-11.227-14.719-16.774-2.52.76-4.08.8-5 1.572-37.067 31.48-71.548 24.494-92.908-17.613-5.387-10.653-16.893-18.092-22.88-28.558-17.253-30.16-23.72-65.988-48.253-92.508-1.827-1.974-2.372-7.306-1.04-9.653 9.56-16.826-2.933-25.946-11.573-37-9.507-12.16-17.947-25.186-29.934-42.226 14.48 8.693 23.28 13.387 31.373 19.094 4.093 2.88 7.428 7.28 10.135 11.6 4.76 7.613 8.732 15.704 13.119 23.558 5.56 9.92 11.413 19.694 16.76 29.72 6.32 11.827 11.96 24.027 18.4 35.774 14.32 26.093 38.001 47.787 32.108 82.693-2.56 15.134 15.573 27.721 21.466 18.881 15.454-23.173 42.44-17.054 61.96-28.654 11.866-7.053 24.333-13.24 35.546-21.188 20.027-14.2 51.133-16.838 53.373-50.412.24-3.506 5.84-6.72 9.067-9.96 8.96-9.014 11.213-18.146.4-27.333-13.453-11.413-27.027-22.68-41.947-35.187-1.76 2.6-4.586 7.747-8.332 12.094-10.747 12.48-36.84 10.827-36.72-2.52.146-15.667-11.294-18.2-18.147-26.24-9.947-11.667-19.413-23.733-31.133-38.147h28.812c-1.2 1.68-2.4 3.346-3.6 5.026 10.6 10.68 20.494 22.214 31.987 31.828 14.613 12.2 30.014 8.638 44.32-2.215 9.28 26.973 43.44 35.761 61.4 21.975 16.72 3.213 29.094 5.585 41.454 7.959 3.24-1.734 4.519 1.667 6.959 3.507 14.386 10.84 29.533 20.494 33.16 40.694.653 3.653 9.52 7.799 14.853 8.185 7.934.574 16.095-2 26.655-3.627 0 12.56-1.454 24.854.386 36.627 2.12 13.68 6.146 27.28 11.106 40.227 10.813 28.187 22.64 55.974 34.32 83.8 1.96 4.68 6.12 12.814 7.76 12.454 5.947-1.294 12.428-4.413 16.588-8.84 15.88-16.88 16.452-39.441 13.185-59.268-3.186-19.373-.613-30.653 17.76-37.627 2.827-1.08 4.628-4.772 7.041-7.105 10.294-9.96 20.706-19.788 30.946-29.814 6.093-5.974 16.788-12.067 16.988-18.373.707-22.454 14.533-21.946 26.44-20.399 7.146-8.2 12.425-14.268 16.132-18.508 6.187 10.894 10.841 20.8 17.055 29.614 11.786 16.76 28.706 30.079 24.36 55.132-2 11.534 9.359 14.148 18.359 8.135 3.746-2.507 4.386-9.642 6.44-14.682 8.626 9.854 12.706 15.107 11.48 18.32-9.614 25.187 10.292 44.082 13.826 66.429 1.733 10.92 14.828 20.372 15.668 31.052 2.386 30.28 8.28 58.387 28.853 81.84-18.28-12.507-36.32-25.413-55.014-37.293-6.026-3.853-13.64-5.76-20.8-6.947-2.094-.347-5.107 4.868-7.707 7.521 4.693 4.134 9.428 8.226 14.054 12.412 11.414 10.334 29.227 18.84 32.907 31.44 10.213 35.053 35.253 58.587 56.627 85.107 3.64 4.52 13.493 8.467 18 6.627 4.653-1.92 6.96-10.973 9.066-17.32 2.973-8.96 4.813-18.294 8.6-33.174-2.16-.48-13.106-5.493-15.346-2.92-9.613 11-13.614 6.28-17.72-3.533-5.36-12.773-10.628-25.573-15.934-38.373 7.68-1.427 21.813-2.254 22.013-4.387 1.694-18.333 6.56-37.214-8.64-53.867-14.96-16.373-35.493-29.426-38.666-54.2-1.054-8.252-1.134-16.8-.108-25.026.2-1.547 10.694-4.107 11.494-2.907 4.467 6.733 7.387 14.48 10.907 21.84.56 1.16 1.44 2.16 2.84 4.213 33.76-10.893 16.387 21.081 27.2 37.135 15.254-17.24 33.253-30.334 40.893-47.934 12.134-27.92 2.587-53.694-22.08-73.654-21.8-17.64-21.32-25.213-2.213-44.227 3.947-3.92 6.254-9.506 10.32-15.906 4.187 6.4 7.52 11.52 9.667 14.787 15.373-7.867 29.413-20.827 43.48-20.867 19.4-.04 32.439-4.266 43.559-19.652 6.186-8.56 21.175-15.335 21.148-22.881-.04-15.814 10.346-23.134 17.146-33.707 2-3.12 3.96-8.16 2.827-11.12-8.44-22.04-3.841-47.612-23.041-67.212-18.747-19.16-15.706-29.241 6.507-43.028 11.347-7.04 9.107-15.772-.16-19.666-6.146-2.6-15.36 2.892-23.306 3.465-5.894.427-13.333.574-17.453-2.586-3.094-2.373-4.602-12.16-2.282-15.226 6.52-8.627 15.387-15.481 25.094-24.721 2.453 10.68 4.32 18.775 6.014 26.148 15.853 4.787 25.334-21.613 42.96-6.24-3.64 4.893-6.694 8.985-10.507 14.092 23.613 10.2 30.4 29.36 32.906 51.92.44 4.04 8.762 10.201 13.455 10.201 14.814 0 25.559-15.387 19.106-30.494-7.4-17.36-19.333-32.786-28.293-47.412 4.693-11.654 9.32-25.628 16.027-38.508 2.733-5.253 11.212-12.507 15.025-11.453 28.827 8.04 35.108-15.027 46.788-31.453 23.453-32.96 21.573-70.493 19.707-107.826-.374-7.587-4.414-15.747-8.84-22.24-10.174-14.96-20.481-15.402-32.961-3.575-8.467-7.093-16.72-14.012-25.653-21.492 6.107-7.973 12.386-14.934 17.172-22.8 5.24-8.614 7.547-19.441 14-26.774 6.56-7.467 15.974-14.747 25.32-16.854 12.16-2.746 25.535.493 38.282-.387 8.267-.56 16.266-4.359 24.533-5.812 5.72-1.013 13.452-2.947 17.266-.227 22.653 16.214 30.254 12.694 36.8-14.906 2.36-9.973 9.667-21.547 18.133-26.267 5.054-2.814 18.04 4.654 25.08 10.414 7.84 6.426 12.054 7.48 17-1.868 2.054-3.88 4.92-7.32 7.707-11.373 10.894 14.574 9.187 13.453-3.066 28.053-13.853 16.48-28.974 34.347-35.188 54.227-9.533 30.453 12.521 56.226 23.041 83.373 1.56 4.013 7.494 6.333 14.84 12.16 13.667-31.8 26.107-60.759 39.32-91.492-8.706-8.574-16.333-16.108-25.013-24.655-1.04-24.12 22.146-28.813 38.826-35.453 9.507-3.786 23.84 4.547 36.48 7.533 13.707-35.626 29.894-45.279 68.08-37.666 8.76-27.106-19.013-27.934-30.32-41.267 6.907-4.813 13.347-9.292 19.24-13.412v-26.867c9.8 11.12 15.4 20.905 23.827 26.265 13.28 8.454 28.28 14.348 42.92 20.442 4.706 1.96 10.573 1.132 15.92 1.586.333-4.8 1.48-9.72.746-14.346-.547-3.453-3.494-6.535-5.307-9.668 7.187-3.107 14.935-4.28 18.588-8.787 2.653-3.254.613-15.72-.613-15.906-18.414-2.88-37.041-4.4-57.801-6.454-1.107-1.44-3.8-7.52-8.467-10.453-16.88-10.6-38.587-12.307-52.627-28.56-1.946-2.267-6.065-3.294-9.318-3.694-27.187-3.306-50.214-20.625-79.694-19.705-14.866.467-23.468-.228-26.455 12.479-27.453 3.093-53.878-19.866-80.718 5.814-5.787-5.333-13.027-10.388-18.147-17.054-11.853-15.427-29.481-21.36-45.055-15.68-27.24 9.933-44.865-5.012-65.332-16.266-8.213-4.506-19.454-8.92-27.72-6.88-22.68 5.613-38.134-10.2-60.414-14.28-11.454 3.6-22.546 10.306-9.719 30.293-26.28-2.48-49.147-4.64-74.014-7-6.84 12.547-22.746 12.186-42.533-1.334-1.147-12.373 1.026-22.492-3.04-27.025-15.148-16.894-39.213-12.107-56.4 9.547-62.013-25.614-89.733-26.775-151.787-7.682 3.174-4.453 7.014-8.292 11.614-10.732 8.333-4.4 19.28-5.988 25.16-12.4 7.413-8.08 16.252-20.735 14.732-29.788-2.426-14.547-42.64-31.16-55.093-22.906-14.987 9.946-19.96 2.36-28.987-7-5.626-5.854-16.907-10.974-24.013-9.334zm-2045.11 5.845c-.623-.003-1.183.066-1.652.223-13.99 4.707-27.619 10.76-40.81 17.44-6.24 3.16-11.178 8.88-16.706 13.44 5.478 5.44 10.952 10.879 15.53 15.439 8.437-2.294 13.958-2.24 17.15-4.946 9.987-8.453 17.068-21.108 33.504-19.12 1.148.146 5.083-11.201 4.824-17.081-.08-1.82-7.479-5.374-11.84-5.395zm233.621 8.7c-4.512-.194-8.74-.01-12.425 1.496-5.752 2.346-12.567 11.48-12.274 17.254.582 11.466 36.818 37.706 48.682 37.76 24.882.093 49.768.025 75.37.025 4.814-21.267 1.453-25.426-21.93-24.213-8.115.413-16.302 1.014-24.374.414-19.694-1.44-38.352-4.826-38.912-31.973-4.826 0-9.624-.57-14.137-.763zm1479.416.67c-4.17.26-8.406 2.069-13.006 5.359-6.8 4.853-15.174 8.76-23.347 10.2-32.373 5.746-62.36 13.8-80.44 45.706-11.8 20.827-23.04 38.88-2.52 61.6 10.96 12.133 31.094 14.84 42.68.933-27.773-28.226-26.988-44.36 7.786-67.146 22.226-14.56 47.414-24.64 71.347-36.586 5.107-2.547 10.534-4.48 19.174-8.107-7.958-8.517-14.724-12.392-21.674-11.96zm-1648.586 7.757c-3.322.057-8.26 1.815-9.601 3.895-9.555 14.813-22.275 21.8-39.957 20.986-2.79-.12-7.1 3.747-8.475 6.774-6.68 14.733 1.69 21.24 14.633 19.867 29.017-3.107 57.825-8.16 93.223-13.387-16.903-13.666-31.67-26.159-47.23-37.572-.557-.41-1.485-.582-2.593-.563zm54.829 1.122c-1.738 3.973-5.423 8.227-4.891 11.867 3.275 22.373 29.693 34.799 48.756 21.892 5.305-3.6 7.784-14.413 7.506-21.76-.119-3.173-10.451-8-16.346-8.306-5.93-.32-12.111 4.028-16.62 5.734-7.72-3.96-13.063-6.694-18.405-9.427zm2260.31 7.533c-2.4-.187-8.52 8.56-7.533 11.187 2.547 6.76 7.88 17.346 12.547 17.586 20.013 1 40.186-1.119 60.293-2.426.8-.053 1.401-3.36 2.974-7.4-16.013 2.347-19.694-40.52-44.947-3.146-2.413-5.334-2.773-8.214-4.16-8.854-6.213-2.893-12.614-6.454-19.174-6.947zm100.305 11.613c-5.58.063-11.524.295-18.117.295 6.746 19.08 21.785 17.799 35.332 17.652 3.96-.04 7.853-5.533 11.773-8.533-4.333-3.04-8.4-8.107-13.053-8.707-5.14-.667-10.355-.77-15.935-.707zm-2283.229 4.787c-5.513.893-12.712 5.134-14.693 9.854-1.656 3.933 3.137 10.587 5.076 16.04 5.17.467 10.344.932 15.516 1.4 2.005-6.24 5.718-12.574 5.34-18.667-.204-3.32-7.817-9.174-11.239-8.627zm-259.627 17.373c-7.325 2.414-18.39 3.001-24.412 8.815-7.83 7.573-11.643 19.279-17.217 29.185-.32.574-.857 1.067-1.4 1.453-15.885 11.107-10.278 19.828 2.162 29.575 14.781 11.573 25.647 2.252 38.451-3.868 18.438-8.813 37.857-15.586 56.85-23.226-8.723 5.893-17.523 11.694-26.149 17.734-4.286 3.013-8.248 6.48-12.357 9.733 4.568 2.986 8.801 7.519 13.781 8.586 6.872 1.493 14.305.375 21.498.375l-.06 2.359c-10.759 3.347-21.519 6.68-32.278 10.027.106 3 .213 6 .317 8.987 20.012 6.266 39.657 15.266 60.139 17.986 19.734 2.613 40.321-1.56 60.55-2.2 26.246-.84 27.024-1.546 21.448-26 4.209-1.626 8.415-3.254 11.338-4.374-9.612-10.854-22.968-19.426-25.145-30.266-2.05-10.187 7.686-22.746 13.246-36.826-1.168-.307-9.91-4.175-10.947-2.682-9.323 13.4-34.778 12.64-29.375 40-11.15-10.093-14.879-27.72-30.887-15.293-12.633-16.573-23.423-.76-34.955 1.987 4.901-14.654-1.741-22.866-15.154-27.586-12.923-4.56-25.732-9.427-39.444-14.48zm367.807 11.66c-21.158-2.762-24.805 20.871-33.773 36.155-1.646-.774-3.293-1.561-4.938-2.334 2.37-9.147 4.738-18.307 7.324-28.293-18.773-6.734-30.322 2.972-35.73 17.425-4.658 12.454-13.668 28.201 4.867 39.188 2.013 1.187 4.057 5.4 3.465 7.44-4.516 15.613 8.31 16.467 14.623 12.587 22.996-14.16 47.037 15.307 69.617-2.466.285-.227 10.612 11.226 15.117 17.986 1.73 2.6.283 7.306.283 10.986 25.047 1.133 30.849 4.827 31.725 19.334 1.001 16.587-11.452 30.625-30.596 34.399-5.973 1.173-13.451.307-17.625 3.64-5.742 4.6-8.999 12.293-13.32 18.666 6.315 3.907 15.842 12.695 18.438 10.975 22.373-14.773 34.102 1.107 48.166 13.693 8.977 8.04 19.512 14.573 30.097 20.44 3.855 2.133 9.88.334 18.313.334-7.168-10.96-11.902-18.214-16.637-25.467l2.188-2.201c7.585 5.413 15.17 10.827 27.492 19.627 1.656-16.294 5.492-27.947 2.888-37.907-1.637-6.28-13.825-9.173-19.547-15.226-3.218-3.4-2.914-10.133-4.197-15.373 4.976-.987 11.941-4.507 14.53-2.467 6.153 4.853 9.495 13.173 15.435 18.44 3.603 3.186 13.705 5.639 14.445 4.439 6.534-10.573 14.026-21.68 15.725-33.426.541-3.747-15.363-10.04-23.904-14.88-10.751-6.094-21.668-11.894-32.975-18.08 19.1-26.308 16.197-35.346-9.992-45.413-8.196-3.147-16.815-5.454-24.527-9.508-5.692-3-12.226-7.213-14.86-12.613-5.761-11.8-9.389-25.373-26.553-21.613-12.026 2.64-23.608 7.32-36.324 11.386-2.573-6.893 21.144-18.612.965-26.972-3.804-1.574-7.183-2.506-10.205-2.9zm-101.955.135c-19.483.814-26.77 16.198-24.297 47.54 20.237-13.708 37.817-25.627 58.65-39.747-14.123-5.52-25.497-8.163-34.353-7.793zm-51.074.117c-5.937-.23-11.965.216-17.668 1.516-2.254.507-4.114 7.172-4.32 11.12-.25 4.786 1.442 9.667 2.94 18.2-8.249-5.4-12.956-8.467-18.14-11.853-11.133 20.64 9.993 22.692 17.04 31.36 3.87 4.746 16.844 7.319 22.009 4.372 5.54-3.16 8.06-13.707 9.422-21.467 1.185-6.733-.835-14.12-1.926-21.146-.645-4.147-1.86-11.48-3.467-11.652a79.905 79.905 0 00-5.89-.45zm2682.168 42.809c-10.402-.325-17.515 7.753-23.528 24.826 14.76-4.187 25.348-7.2 35.948-10.2-1.494-4.52-1.935-12.119-4.668-13.066-2.778-.962-5.352-1.485-7.752-1.56zm-1996.858 7.187c1.538-.393 3.17-.361 4.903.016 2.31.503 4.797 1.62 7.48 3.17 7.125 4.107 14.66 7.526 22.012 11.232-14.393.838-28.785 1.663-45.89 2.66 3.112-10.905 6.881-15.899 11.495-17.078zm-652.902 5.705c-12.997 6.496-24.528 16.587-26.934 32.883 5.734 5.268 15.56 11.023 15.022 15.545-.947 7.947-8.955 15.066-15.95 25.426-8.906-19.333-18.54-17-28.408-9.586-13.957 10.493-40.662 12.653-54.218 3.92-23.396-15.08-28.98-12.827-34.69 15.68-16.667-3.16-26.425-36.066-49.297-9.426 1.35-19.587-1.315-22.428-15.267-25.361-20.175-4.24-40.121-9.56-60.192-14.307-3.214-.76-6.821-1.96-9.816-1.213-19.457 4.813-37.164 4.866-48.549-18.334-4.776 7.053-7.256 12.92-11.61 16.547-5.065 4.227-11.767 6.493-17.76 9.6-.568-1.107-1.14-2.226-1.71-3.346l14.453-10.6c-17.177-7.72-38.01 4.545-54.307 30.252-4.232-1.427-8.867-2.438-13.015-4.465-36.914-18-76.478-26.2-116.908-29.16-15.295-1.107-31.956 7.253-40.446-13.707-10.934 6.653-21.346 19.72-28.873-1-.497-1.36-7.496-.96-11.33-.4-7.101 1.04-14.356 2.04-21.084 4.386-14.97 5.227-29.727 11.093-44.355 17.2-1.803.76-2.91 4.574-3.283 7.12-1.963 13.32-11.312 14.266-22.247 15.413-8.313.88-16.25 5.348-24.353 8.215 6.475 7.533 12.069 16.213 19.746 22.213 4.79 3.746 12.813 3.187 19.22 5.107 3.658 1.107 6.985 3.293 13.755 6.586-29.966 8.213-61.224-10.614-81.6 15.732 11.8 25.534 26.536 42.88 57.32 21.56-5.354 8.6-11.122 14.695-18.197 17.788-9.915 4.32-22.335 4.212-30.836 10.106-8.204 5.693-12.795 16.587-19.967 26.587 1.523 2.467 7.17 7.387 6.66 11.547-2.304 18.84-.976 20.613 20.198 19.053 2.314 8.16-16.815 21.253 4.967 24.373 9.645 1.373 19.962-1.974 35.763-3.867-20.818 46.32-69.904 43.134-103.949 73.32 14.132 1.44 23.92 5.521 30.621 2.574 23.913-10.52 47.193-22.694 69.867-35.72 11.155-6.4 20.458-16.028 29.436-23.254 1.21 8.253 1.764 14.734 3.605 20.814.208.68 10.807.106 11.293-1.494 2.092-6.893 2.49-14.359 2.87-21.652.115-2.227-2.694-4.587-2.631-6.84.296-10.467 29.313-50.4 38.957-52.854 3.586-.906 7.974 1.32 10.654 1.854-10.585 11.84-20.342 22.746-30.098 33.652 1.132 2.08 2.265 4.16 3.397 6.254 6.249 0 14.183 2.44 18.414-.494 10.402-7.187 23.907-15.2 27.521-25.826 8.37-24.6 17.876-5.266 26.414-2.666 4.194 1.266 7.95 8.986 10.93 8.44 20.25-3.694 32.502 7.425 45.717 20.052 6.582 6.293 18.307 6.855 26.69 11.748 5.786 3.373 10.064 9.546 14.597 14.813 7.753 9.026 15.178 18.333 24.031 29.08-6.899 13.24.648 24.546 12.672 34.533 1.825 1.52 3.824 3.787 4.182 5.96 4.54 27.587 9.484 55.013 19.98 81.186 1.724 4.294 1.113 10.2-.135 14.907-4.952 18.653-12.821 36.841-15.408 55.761-3.375 24.707-18.936 51.919 8.494 73.545 1.838 1.44 3.877 5.908 3.123 6.881-12.857 16.653 12.85 23.188 9.506 37.108 29.234 8.613 33.252 33.146 36.852 58.052.254 1.774 1.954 3.6 3.44 4.88 12.531 10.76 17.44 23 4.804 39.52 19.917 7.054 31.569 17.826 35.473 38.573 2.12 11.267 12.087 25.56 34.927 21.187-20.466-38.84-39.594-75.12-58.72-111.414l6.343-3.68c6.352 7.507 16.367 14.147 18.397 22.68 7.21 30.32 27.999 52.148 44.387 76.641 9.288 13.88 21.573 25.693 17.777 44.84-.696 3.52 2.053 9.679 5.121 11.652 24.937 16.094 50.032 31.987 75.79 46.694 6.526 3.733 16.624 6 23.308 3.72 16.672-5.68 26.162 1.908 36.818 12.655 5.952 6 15.136 9.584 23.504 12.238 14.403 4.573 28.044 8.442 34.025 25.068 4.183 11.613 8.58 25.226 17.371 32.6 11.962 10.026 29.21 13.48 42.323 22.48 12.79 8.787 19.649 8.04 26.515-11.787 4.854 3.6 5.685 8.654 8.26 12.56 17.921 27.134 13.759 54.013-12.895 80.493-18.587 18.48-21.284 34.507-12.976 50.24-3.72 16.4-7.899 27.173-7.795 37.906.045 4.654 10.646 8.348 13.494 13.961 11.403 22.507 22.488 45.24 32.098 68.547 11.45 27.773 24.799 52.293 55.656 63.826 9.592 3.587 21.22 14.786 22.87 24.12 5.085 28.72 8.833 58.386 7.308 87.372-1.363 25.92-10.845 51.361-15.826 77.188-1.61 8.347-3.318 18.84.238 25.613 10.28 19.56 2.38 36.468-3.443 54.334-2.804 8.6-5.82 17.814-5.49 26.627.723 19.307 3.412 38.559 5.581 57.799.322 2.853 1.41 6.506 3.457 8.146 13.795 11.094 11.619 25.682 5.819 38.282-9.674 21.026 2.506 42.146-2.824 62.972-.834 3.254 3.867 8.427 6.818 12.067 16.067 19.773 32.387 39.333 50.105 60.773 4.052-7.4 6.04-11.027 8.862-16.173 2.737 28.333 17.019 32.72 52.644 15.413-16.092-9.333-30.26-17.546-46.775-27.132-2.917-21.454-2.52-21.255 10.353-46.668 5.215-10.307 9.56-21.452 11.684-32.705.85-4.494-4.111-12.882-8.59-15.069-13.127-6.413-12.307-10.692-1.783-19.666 23.156-19.733 25.648-38.267 10.955-63.853-.307-.534 1.081-2.04 1.68-3.094 24.865 11.107 24.867 11.108 29.017-24.186 17.784-7.546 37.392-10.867 49.541-22.187 17.311-16.133-7.476-29.973-9.535-44.293 10.2 1.227 23.995 7.186 30.248 2.68 10.762-7.747 16.854-22 24.838-33.573 1.988-2.893 2.998-7.188 5.678-8.748 21.52-12.546 26.48-36.625 30.746-56.172 7.28-33.24 16.308-47.987 48.814-56.4 11.734-3.04 29.974-9.468 31.787-17.428 7.867-34.36 29.346-66.76 18.733-104.453-.667-2.346-.106-5.813 1.254-7.84 11.213-16.666 23.759-32.52 33.799-49.84 6.013-10.386 12.08-23.2 11.347-34.48-1.253-19.773-18.64-31.012-33.213-41.558-9.866-7.147-22.761-10.335-34.601-14.428-11.92-4.12-27.293-3.8-35.613-11.453-11.947-11.014-23.359-14.813-38.319-12.653-3.586.52-7.455 1.012-10.908.252-8.667-1.92-17.173-4.572-25.28-6.799 11.374-21.426 6.76-42.706-20.747-65.613-12.372-10.293-25.502-30.44-44.16-12.027-10.482-9.52-21.058-18.213-30.51-28-9.371-9.693-17.61-20.48-26.344-30.787-3.528-4.534-11.302-6.8-16.66-4.16-28.41 14.013-50.013 2.72-72.594-14.426-7.776-5.907-25.576-8.467-32.596-3.613-19.132 13.253-42.86 23.692-46.457 47.638-13.37-5.16-25.459-14.466-36.135-13.053-27.133 3.574-42.13-7.652-38.734-34.972 1.55-12.454 4.69-24.708 7.89-41.041-16.362-3.254-31.534-6.266-51.269-10.186 4.23-16.08 8.962-34.866 14.162-53.533 3.122-11.2-1.601-17.24-12.168-18.187-16.078-1.427-25.251 6.24-32.869 21.173-4.424 8.68-17.912 16.8-27.867 17.52-11.173.787-30.471-4.386-33.053-11.652-7.22-20.32-9.906-43.027-10.197-64.854-.41-30.947 25.964-47.214 43.219-68.254.69-.84 2.345-.893 3.533-1.293 4.584 3.253 9.193 6.506 13.764 9.733 3.221-5.547 5.674-9.773 5.38-9.28 11.2 6.067 20.722 11.214 31.844 17.24 1.735-10.88.687-18.054 3.748-21.12 12.2-12.2 59.023-1.026 65.854 15.187 1.183 2.813.815 6.427.633 9.627-1.387 24.293 7.165 42.825 36.087 56.799-3.668-22.534-6.029-40.613-9.63-58.453-9.36-46.36-4.673-57.28 35.656-79.4 30.367-16.654 30.645-17.187 26.408-44.733 6.075-12.2 10.05-20.84 14.631-29.133 2.497-4.52 5.157-9.854 9.25-12.428 13.321-8.346 27.34-15.6 42.643-24.133-8.811-16.426.36-24.814 18.625-32.107 12.428-4.96 22-16.946 33.076-25.492 6.613-5.107 13.665-9.641 20.52-14.428 1.395 1.987 2.789 3.96 4.185 5.947-11.412 9.507-22.824 19.013-34.234 28.52.7 2.48 1.404 4.973 2.105 7.467 6.71-.774 14.227.12 19.945-2.68 9.52-4.64 17.98-11.52 26.707-17.72 5.668-4.014 11.021-8.48 16.516-12.747-5.73-3.573-11.029-8.547-17.268-10.467-21.598-6.64-25.95-14.332-16.927-33.959-19.07-19.666-30.96 7.054-47.858 5.454 13.928-10.347 30.989-25.707 44.035-22.84 35.719 7.853 62.471-15.174 94.022-19.414 1.496-.2 3.143-2.36 3.967-4 7.616-15.067-2.247-36.586-14.05-40.266-4.442-7.933-6.07-15.321-9.718-16.508-10.21-3.347-14.32-12.692-21.129-17.812-13.27-9.96 5.713-15.548-.703-23.815-10.213-13.16-18.206-28.04-27.744-43.16-14.339 11.667-17.528 44.161-44.352 27.895-7.11-4.307-4.403-24.815-6.203-37.881-2.283-6.494-9.255-13.534-17.53-18.32-8.052-4.667-17.38-7.2-26.273-10.307-4.26-1.494-9.863-.827-13.048-3.387-13.966-11.24-21.45-3.466-25.35 9.094-2.679 8.626-1.803 18.36-2.522 27.6-.5 6.44 1.294 16.76-1.898 18.654-18.04 10.666-7.663 23.986-6.254 37.226 1.05 9.867 1.718 26.107-3.447 29.08-13.695 7.88-15.314 18.588-13.992 30.721 2.394 21.973-4.879 34.812-28.668 35.346-19.914-18.44 2.944-41.16-4.895-61.053-22.826 4-36.62-10.868-52.474-21.814-7.106-4.907-16.094-9.52-24.342-9.733-10.403-.253-15.896-1.186-18.377-12.906-1.875-8.853-8.458-16.72-12.942-25.014-1.785.013-3.57.026-5.353.026 9.437-38.08 47.096-51.654 70.723-77.387 6.189-6.733 17.98-10.133 20.832-17.52 1.965-5.093-7.035-14.427-11.012-21.627 10.236 1.987 26.276 14.642 31.705-9.332.14-.626 8.247.947 12.62.827 9.575-.267 20.456 1.573 28.224-2.44 4.766-2.453 4.69-14.173 6.933-21.693 1.348-4.534 4.646-9.201 4.106-13.414-1-7.8-2.266-19.974-6.89-21.868-7.24-2.973-21.053-2.198-25.515 2.829-9.913 11.16-15.752 25.931-23.253 39.238-4.02-8.68-3.052-16.054-4.196-23.08-3.688-22.68-13.177-6.212-24.404 1.228-2.896-17.08-3.427-31.627-8.358-44.48-2.489-6.493-15.741-15.521-19.304-13.735zm-26.934 32.883c-.2-.184-.498-.38-.687-.562l.664.64c.004-.028.019-.05.023-.078zm-.687-.562c-.018.03-.035.067-.053.097.233.173.466.376.7.53.018.013-.647-.627-.647-.627zm-.053.097c-2.49-1.84-4.948-4.517-7.46-4.578-6.998-.146-15.014-.638-20.661 2.522-3.221 1.8-2.602 10.48-3.711 16.053 7.477.6 15.662 3.266 22.188 1.052 4.41-1.484 6.525-9.75 9.644-15.049zm406.106-3.396c-.926.023-1.847.087-2.76.205-3.267.427-5.666 7.614-11.412 16.094 15.146-1.814 24.398-2.919 33.638-4.026l.4-9.56c-6.626-.91-13.385-2.871-19.866-2.713zM1135.605 724c-3.582 6.813-7.167 13.612-10.75 20.426 3.1 1.733 6.202 3.468 9.303 5.2 3.9-6.332 8.015-12.573 11.223-19.24.22-.453-6.36-4.186-9.776-6.386zm598.319 22.412c-4.773.175-10.191 2.636-14.951 2.856-16.374.76-33.014 4.185-49.014 2.199-23.413-2.907-27.906-.52-25.666 23.826 6.253-.627 12.494-1.24 20.934-2.08-2.667 8.32-4.92 15.373-6.48 20.213 14.506 3.906 27.866 7.508 42.466 11.441 9-3.893 19.107-8.133 29.107-12.613 15.747-7.053 18.507-19.36 14.694-34.986-2.187-8.92-6.317-11.03-11.09-10.856zm-683.24 28.318c-3.567.177-7.29.944-11.114 2.204-4.802 1.586-10.93 9.293-10.664 13.853.468 7.987 5.412 15.72 8.483 23.547 5.477-2.32 11.27-4.12 16.363-7.107 7.45-4.374 14.398-9.6 23.275-15.614-6.352-12.64-15.643-17.413-26.343-16.883zm762.504 112.538c-3.4 7.92-5.349 12.452-7.362 17.132 22.147 7.28 23.427 10.134 13.533 28.694 11.68 9.986 23.468 20.04 36.495 31.174-7.867 3.493-14.24 6.319-20.387 9.052.507 11.067.933 20.586 1.533 33.893-2.173 3.28-7.16 10.826-15.2 22.986 16.8-4.826 27.987-10.773 39.067-10.613 19.707.28 31.36-10.12 40.28-24.774 2.2-3.6.4-13.772-2.813-15.812-15.24-9.68-18.787-26.266-26.533-40.346-3.707-6.733-6.974-13.721-11.254-22.215.56-3.053 1.653-8.972 2.76-14.906-14.267-1.346-28.547-32.053-41.52 2.547-3.173-6.2-5.053-9.88-8.6-16.812zm-9.536 56.238c-2.933 2.84-7.825 11.734-13.771 12.508-16.694 2.146-10.708 10.092-13.028 21.732-7.293 36.8 4.307 26.962 27.694 19.135 15.747-5.267 18.987-10.255 17.547-23.988-.4-3.827.359-8.093 1.719-11.733 5.626-15.107-3.107-17.48-20.16-17.654zm1559.32 14.72c-.826-.266-2.238 1.268-5.865 3.481 6.054 23.96 12.333 48.813 19.8 78.307 6.666.293 14.813.653 22.947 1.013-2.494-7.066-5.014-14.135-7.454-21.215-1.64-4.76-4.828-9.745-4.36-14.318.772-7.413-17.64-44.787-25.067-47.267zm-2057.896 58.76c-30.076 16.48-38.171 29.441-34.213 55.348 10.268-.987 27.039-3.828 27.395-2.441 5.012 19.48 24.496 6.388 32.13 17.761 12.745-25.56 3.865-47.96-19.154-52.56-1.993-5.867-4.011-11.801-6.158-18.108zm905.858 51.24c8.066 10.267 13.453 17.147 19.84 25.293a8267.36 8267.36 0 00-17.547 11.561l4.56 9.12c11.547-2.16 23.053-4.533 34.653-6.4 7.986-1.28 17.76-5.16 23.814-2.093 14.973 7.573 28.92 17.667 41.853 28.467 4.027 3.373 5.559 12.76 4.172 18.386-.826 3.294-10.305 7.32-14.812 6.293-15.733-3.613-31.027-9.24-46.453-14.187-4.254-1.36-8.774-4.96-12.547-4.24-24.627 4.733-49.067 10.374-79.627 17.04 11.133-21.453-1.48-46.853 28.107-53.786 3.307-.774 5.267-8.787 7.16-13.707 2.28-5.88 3.827-12.04 6.827-21.746zm76.199.415l2.146 2.746c-7.76 8.133-15.506 16.267-24.826 26.027-4.893-1.28-11.68-3.053-18.453-4.84-.493-2.12-1-4.227-1.494-6.347 14.213-5.867 28.414-11.733 42.627-17.586zm145.615 4.962c3.583.237 7.346.823 10.813.823a1376.72 1376.72 0 014.345 4.693c-7.973 8.32-17 15.881-23.693 25.121-13.693 18.907-10.025 26.414 12.975 29 .866 5.027 1.745 10.147 2.505 14.56 19.854 8.8 19.854 8.8 19.4 12.68-4.746-1.946-9.12-3.747-14.493-5.947-.16 3.413-.721 5.387-.254 7.08 3.493 12.907 8.187 25.6 10.347 38.707.92 5.64-1.614 15.48-5.56 17.44-6.467 3.24-17.187 4.8-22.934 1.52-27.093-15.467-27.56-22.2-8.6-48.36-10.92-13.987-23.146-26.574-31.372-41.387-4.44-8-6.52-23.839-1.827-29.039 10.094-11.133 24.8-18.587 38.614-25.613 2.746-1.4 6.15-1.514 9.734-1.278zm107.652 4.903c.92-1.494 10.186 1.827 15.413 3.467.68.213.161 3.8.455 5.787 1.053 7.173 2.719 14.294 3.185 21.508.52 7.933 1.254 17.611-11.453 14.931-6.853-1.44-13.187-5.332-25.027-10.346 5.866-12.48 10.814-24.414 17.427-35.347zm846.274 4.4c-.36.093-3.072 3.883-2.22 6.508 4.706 14.507 5.493 27.64-6.427 39.426-1.56 1.533-1.374 7.906-.04 8.68 3.6 2.093 8.227 2.973 12.507 3.253 7.52.467 15.105.133 27.625.133 1.094-1.266 7.8-5.706 9.174-11.426 1.533-6.426.748-16.746-3.426-20.546-10.733-9.774-23.894-16.893-37.201-25.827.062-.151.059-.214.01-.2zm10.82 69.135c-3.2-.453-8.973 1.931-9.92 4.465-1.92 5.133-1.974 11.227-1.668 16.853 1.547 27.614-4.746 36.575-27.119 36.362-1.933 5.906-3.948 12.066-5.974 18.226-1.134-1.44-2.254-2.894-3.387-4.347-12.574 7.48-25.145 14.946-39.705 23.6 11.826 7.76 18.425 14.667 26.172 16.413 6.72 1.507 14.76-2.852 22.668-4.732-.174-2.867-.454-7.307-.774-12.254 31.253 12.067 61.64-6.52 51.467-36.893-1.827-5.453 3.8-13.4 6.32-21.24-3.253-9.467-6.267-19.495-10.254-29.135-1.293-3.133-4.866-6.918-7.826-7.318zm-1407.054 12.625c-19.134.947-19.693 2.307-13.52 24.547 2.24.68 4.48 1.375 6.72 2.055 2.174-8.534 4.36-17.069 6.8-26.602zm1320.787 91.014c-23.427 14.013-23.933 15.986-10.987 30.52 3.814 4.28 7.373 8.773 11.04 13.173 1.6-6.8 4.412-13.587 4.452-20.387.04-7.066-2.612-14.16-4.505-23.306zm-102.346 123.64c-2.893 5.587-7.922 11.094-8.135 16.774-.24 6.466 3.107 13.48 6.387 19.44 1.067 1.92 9.6 2.466 9.96 1.612 2.48-5.813 5.36-12.293 4.88-18.306-.52-6.654-4.479-13.026-6.946-19.52zm-2219.867 36.56c-8.827.334-17.455 5.84-26.174 8.973l2.498 6.481c3.568-1 7.127-2.026 10.703-2.986 20.38-5.507 53.615 6.825 60.672 22.492 7.901 17.546 17.14 20.934 33.428 13.574 10.854-4.893 12.346-12.535 2.67-17.281-26.831-13.187-51.905-32.479-83.797-31.252zm2107.265 31.106c-13.04 6.694-20.559 15.174-14.972 29.08.906 2.254 11.172 3.962 13.44 1.895 9.106-8.293 13.786-18.401 1.532-30.975zm-1990 4.87c-2.76-.179-5.271.26-7.396 1.412-4.89 2.653-6.38 11.586-9.545 17.92-4.99.573-11.836 1.345-18.68 2.119.139 2.44.28 4.866.42 7.293h73.955c-10.152-15.655-26.792-27.973-38.754-28.745zm2120.801 9.288c-3.32-.016-8.692 2.812-10.174 5.577-5.893 11-11.32 22.52-14.773 34.466-1.187 4.134 2.614 11.546 6.4 14.946 10.467 9.386 22.227 11.666 34 .693-1.226-14.88-1.813-30.012-4.133-44.892-.653-4.134-5.84-9.16-10.04-10.6a4.059 4.059 0 00-1.28-.19zm-2171.228 13.577L1029.82 1476c.334 3.107.484 8.88 1.024 8.92 8.433.573 16.916.4 25.388.4l-.38-10.6zm2198.03 50.74a26.053 26.053 0 00-4.136.232c-3.093.4-5.36 7.04-8.014 10.826 7.8 3.587 15.614 7.161 25.854 11.868.735-16.462-4.582-22.654-13.703-22.926zm-36.161 4.752c-2.134 1.093-4.267 2.213-6.4 3.306 1.706 5.667 1.785 13.88 5.572 16.307 4.426 2.853 12.094.668 18.36.668.4-1.56.8-3.108 1.187-4.654-6.24-5.214-12.48-10.427-18.72-15.627zm-8.655 28.014c-23.266 32.626-23.266 32.625-15.466 50.892 8.813-18.48 15.826-33.158 22.826-47.851zm-442.345 20.546c-.547 17.747-1.962 30.987-.748 43.987.36 3.853 8.894 10.466 12.267 9.68 4.92-1.134 11.387-7.32 12.227-12.213 2.587-15.134-.386-29.214-23.746-41.454zm511.242 3.246c-7.278.155-12.999 7.517-18.297 12.1-4.52-2.587-11.413-6.907-11.613-6.613-5.414 7.826-10.133 16.134-14.973 24.361 1.747 1.16 3.48 2.32 5.227 3.48 4.733-3.213 9.467-6.426 15.16-10.306 3.88 5.04 7.36 9.825 11.133 14.385 4.213 5.08 8.694 9.947 13.107 14.947 19.013-19.173 23.332-35.733 11.252-47.16-4.058-3.846-7.688-5.264-10.996-5.194zm-98.11 34.301c-14.013 15.574-25.72 30.707-39.654 43.4-10.693 9.72-24 16.666-36.547 24.173-4.013 2.4-12.812 1.773-13.359 4.013-1.4 5.774-.92 13.055 1.533 18.508 4.307 9.533 11.695 17.68 15.895 27.24 8.266 18.84 20.92 23.545 37.52 14.172 8.986 5.253 16.465 13.015 21.491 11.668 5.854-1.56 10.255-10.721 14.041-17.295 8.387-14.573 16.733-29.278 23.506-44.625 2.08-4.693 1.215-14.08-2.119-17.16-12.04-11.093-8.64-18.814 1.813-28.254 5.68-5.12 9.04-12.828 14.174-20.428a54376.144 54376.144 0 00-38.293-15.412zm134.413 48.12c-22.254 34.186-22.227 36.64 0 46.44zm-39.733 17.347c-12.586 3.52-20.906 8.64-27.92 7.24-16.6-3.306-28.546-5.601-29.213 18.092-.24 8.56-9.294 17.16-15.027 25.24-12.067 17 6.948 26.014 9.961 39.108.533 2.293 6.106 3.427 9.346 5.093 1.973-6.626 3.853-13.28 6-19.853.28-.893 1.88-1.347 4.76-3.254 0 5-1.574 10.32.292 12.147 5.36 5.253 12.109 9.107 18.295 13.507.56-7.146 2.64-14.628 1.227-21.36-1.293-6.16-6.36-11.533-8.693-15.48 4.426-10.133 8.08-18.467 13.76-31.427-12.76 3.987-18.267 5.694-24.534 7.64a5225.07 5225.07 0 01-3.933-15.107c16.506-2.68 32.118-5.12 47.572-8.373.306-.067-1.36-9.6-1.893-13.213zm114.432 31.996c-7.55-.754-9.86 6.199-14.285 24.057 13.813-5.933 22.894-9.827 35.12-15.067-9.89-5.31-16.305-8.537-20.835-8.99zm30.488 9.145c-1.452 0-2.756.256-3.812.86-15.2 8.64-29.147 19.452-46 31.132 4.653 1.787 9.545 3.293 14.119 5.467 10.76 5.12 22.56 9.067 31.666 16.334 7.426 5.906 14.828 15.547.668 24.547-2.707 1.72-2.573 7.905-3.76 12.025 4.24.733 8.478 1.44 12.705 2.188 6.867 1.2 15.04.452 20.307 4.025 13.586 9.2 22.054 4.642 30.494-6.932 11.56-15.853 18.906-15.627 29.826 1.506 8.893 13.973 19.374 24.827 37.041 23.934 5.8-.294 11.454-3.947 17.174-6.08-3.6-4.44-6.788-9.32-10.895-13.227-6.56-6.24-20.092-12.573-19.505-17.547 2.013-16.946-10.748-23.666-18.028-34.119-5.16-7.4-11.014-14.308-16.56-21.441-20.507-4.107-40.627-11.839-60.987-18.946-4.4-1.54-10.096-3.74-14.453-3.726zm146.48.912c6.52 11.907 12.186 22.24 18.653 34.066 12.907-21.013 6.588-32.44-18.652-34.066zm4.413 28.693c-4.907 4.52-7.36 7.493-10.453 9.44-3.774 2.36-8.532 3.24-12.012 5.894-2.827 2.147-6.814 7.346-6.014 8.746 1.907 3.334 6.119 6.893 9.799 7.373 14.893 1.96 22.386-9.333 18.68-31.453zm-496.172 26.254c-5.44-.293-11.374 8.825-17.08 13.639 6.093 3.96 11.72 9.788 18.387 11.428 10.28 2.533 25.946-1.988 31.146 3.812 19.347 21.587 38.24-.226 56.52 6.854l3.119-11.56c-12.254-5.266-24.092-12.16-36.866-15.413-18.026-4.587-36.693-7.76-55.226-8.76zm156.166 31.514c-7.682.383-12.885 8.949-21.26 28.832 14.32-7.84 26.213-14.36 38.986-21.36-7.615-4.985-13.117-7.702-17.726-7.472zm241.713 24.365c-22.8 20.013-19.946 39.602-19.639 59.522.147 9.706-5.894 19.852-10.654 29.025-.987 1.907-9.828 2.187-13.028.107-13.773-8.96-26.8-19.093-41.84-30.066 5.934-8.173 11.067-14.788 15.694-21.734 4.867-7.32 6.307-13.32-5.373-16-13.44-3.08-26.48-7.92-39.893-11.147-5.2-1.253-10.947-.213-20.093-.213 5.786 7.867 9.04 12.28 14.187 19.266-21.4-2.267-31.908 4.907-34.055 24.4-1.093 9.96-7.105 11.828-14.865 2.828-13.986-16.213-18.254-14.36-32.281 3.36-8.787 11.12-21.666 19.013-28.746 25-11.6 15.106-18.348 30.706-30.188 37.826-21.24 12.773-51.012 8.813-67.44 32.76-.546.8-2.6.987-3.866.814-17.814-2.56-19.8 9.493-17.52 21.533 4.454 23.48-4.932 48.493 10.188 71.12 6.213 9.306 7.306 22.533 8.812 34.226.6 4.653-2.986 10.854-6.426 14.814-12.266 14.094-11.427 22.88 4.813 32.24 5.693 3.28 12.16 5.2 18.28 7.747-.12-1.947-.227-3.893-.347-5.84 9.214-2.267 18.387-6.281 27.627-6.441 19.6-.32 38.92 2.747 51.373-19.053 3.16-5.52 15.213-6.253 23.36-8.52 8.227-2.28 17.253-2.414 24.92-5.787 24.92-11.013 53.573 2.693 59.013 28.973.6 2.946 2.054 5.72 4.334 11.88 10.48-8.906 19-16.146 31.12-26.453-5.627 11.254-9.012 18.013-12.946 25.893 17.6-1.693 28.013.907 21.12 20.854-1.4 4.053 2.293 12.16 6.16 15.347 26.28 21.694 78.947 20.373 105.707-2.107 2.973-2.494 4.946-6.294 7-9.72 5.28-8.788 9.625-18.213 15.652-26.427 11.387-15.506 23.906-30.186 35.44-45.586 2.186-2.92 2.48-7.56 2.894-11.48 2.187-20.8 4.292-41.627 6.039-62.48.373-4.507.507-9.92-1.586-13.6-12.853-22.587-26.292-44.853-39.812-67.066-1.214-2-4.268-3.428-6.748-4.028-13.4-3.293-15.72-12.694-14.907-24.72 1.4-20.667-5.746-37.867-19.52-53.68-4.866-5.587-3.4-16.533-5.333-24.906-1.587-6.854-3.947-13.521-6.627-22.481zm-1044.453 21.76c-3.64 6.8-6.653 14.028-11.053 20.281-7.04 9.987-13.147 24.24-22.947 27.947-24.467 9.267-38.32 24.612-27.733 45.159 7.934 15.4 1.08 23.08-6.094 32.72-9.306 12.507-1.946 48.893 11.868 55.666 2.786 1.36 6.652 3.202 9.039 2.282 17.96-7 33.28-18.094 34.213-38.788 1.226-27.493 13.653-51.414 20.853-76.96 3-10.654 7.028-21.012 11.108-33.012-1.92-4.614-3.68-10.201-6.467-15.201-3.854-6.92-8.494-13.414-12.787-20.094zm1282.927 114.883c-4.392-.176-10.24 1.132-17.806 3.732 10.306 7.6 18.518 13.64 28.478 20.973 1.614-16.757-1.007-24.32-10.672-24.705zm56.168 187.697c-2.438.242-6.649 1.638-6.629 2.088.227 5.76-.173 12.425 2.614 17.025 8.76 14.467 10.96 25.947-1.907 40.947-12.293 14.347-2.36 39.362 7.266 40.895 10.707-10.347 17.588-19.415 26.602-25.135 12.746-8.093 17.785-17.453 12.785-31.746-18.507-1.507-25.186-14.774-30.973-29.268-2.066-5.16-4.733-10.252-8.133-14.585-.196-.254-.812-.302-1.625-.221zm-33.974 81.035c-4.294 9.267-5.56 17.96-10.533 21.613-16.814 12.374-35.654 22.04-52.254 34.68-6.947 5.293-14.6 15.866-13.92 23.293.746 8.027 10.026 20.093 17.133 21.307 6.813 1.16 17.025-8.054 23.279-14.948 16.133-17.786 31.188-36.598 46.055-55.492 4.2-5.346 10.16-14.014 8.373-18.174-2.387-5.546-11.547-8.186-18.133-12.279zm-283.96 9.121c-10.656-.335-16.642 3.983-19.134 13.291-3.093 11.587-4.161 23.667 11.025 27.48 17.814 4.467 26.815-5.746 32.588-35.212-10.01-3.48-18.084-5.358-24.478-5.559zm-2165.673 161.356c-8.305-.172-16.757 4.255-25.008 3.775v21.947c14.84-4.226 28.362-8.068 43.951-12.508-6.114-10.167-12.484-13.081-18.943-13.214z"
        transform="matrix(7.5 0 0 -7.5 0 20000.001)"
      ></path>
    </g>
  </g>
</svg>