<?xml version="1.0" encoding="UTF-8" standalone="no"?>
<svg
   id="Layer_3"
   height="512"
   viewBox="0 0 64 64"
   width="512"
   data-name="Layer 3"
   version="1.1"
   sodipodi:docname="secure.svg"
   inkscape:version="1.1.2 (0a00cf5339, 2022-02-04)"
   xmlns:inkscape="http://www.inkscape.org/namespaces/inkscape"
   xmlns:sodipodi="http://sodipodi.sourceforge.net/DTD/sodipodi-0.dtd"
   xmlns="http://www.w3.org/2000/svg"
   xmlns:svg="http://www.w3.org/2000/svg">
  <sodipodi:namedview
     id="namedview22"
     pagecolor="#ffffff"
     bordercolor="#666666"
     borderopacity="1.0"
     inkscape:pageshadow="2"
     inkscape:pageopacity="0.0"
     inkscape:pagecheckerboard="0"
     showgrid="false"
     inkscape:zoom="0.40527344"
     inkscape:cx="56.751807"
     inkscape:cy="565.0506"
     inkscape:window-width="1920"
     inkscape:window-height="1012"
     inkscape:window-x="3840"
     inkscape:window-y="0"
     inkscape:window-maximized="1"
     inkscape:current-layer="Layer_3" />
  <defs
     id="defs4751" />
  <path
     id="path4712"
     style="opacity:0.6;fill:#1391ff;fill-opacity:1"
     d="M 54,18 H 44.816 A 2.962,2.962 0 0 1 45,19 v 3 H 55 V 59 H 9 V 22 h 10 v -3 a 2.962,2.962 0 0 1 0.184,-1 H 10 A 5,5 0 0 0 5,23 V 60 H 59 V 23 A 5,5 0 0 0 54,18 Z M 38,56 v 2 H 26 V 56 H 2 a 6,6 0 0 0 6,6 h 48 a 6,6 0 0 0 6,-6 z" />
  <rect
     fill="#f4b2b0"
     height="10"
     rx="5"
     width="38"
     x="13"
     y="42"
     id="rect4714"
     style="opacity:0.607;fill:#ffffff;fill-opacity:1" />
  <g
     fill="#b3404a"
     id="g4746"
     style="fill:#000000;fill-opacity:1">
    <path
       d="M 62,55 H 60 V 23 A 6.006,6.006 0 0 0 54,17 H 45.444 A 4,4 0 0 0 43,15.142 V 12 a 11,11 0 0 0 -22,0 v 3.142 A 4,4 0 0 0 18.556,17 H 10 A 6.006,6.006 0 0 0 4,23 V 55 H 2 a 1,1 0 0 0 -1,1 7.008,7.008 0 0 0 7,7 h 48 a 7.008,7.008 0 0 0 7,-7 1,1 0 0 0 -1,-1 z M 54,19 a 4,4 0 0 1 4,4 V 55 H 56 V 22 A 1,1 0 0 0 55,21 H 46 V 19 Z M 32,3 a 9.01,9.01 0 0 1 9,9 v 3 h -2 v -3 a 7,7 0 0 0 -14,0 v 3 h -2 v -3 a 9.01,9.01 0 0 1 9,-9 z m 5,12 H 27 v -3 a 5,5 0 0 1 10,0 z m -17,4 a 2,2 0 0 1 2,-2 h 20 a 2,2 0 0 1 2,2 v 16 a 2,2 0 0 1 -2,2 H 22 a 2,2 0 0 1 -2,-2 z m 2,20 h 20 a 4,4 0 0 0 4,-4 V 23 h 8 V 55 H 38 a 1,1 0 0 0 -1,1 v 1 H 27 V 56 A 1,1 0 0 0 26,55 H 10 V 23 h 8 v 12 a 4,4 0 0 0 4,4 z M 6,23 a 4,4 0 0 1 4,-4 h 8 v 2 H 9 A 1,1 0 0 0 8,22 V 55 H 6 Z M 56,61 H 8 A 5.008,5.008 0 0 1 3.1,57 H 25 v 1 a 1,1 0 0 0 1,1 h 12 a 1,1 0 0 0 1,-1 V 57 H 60.9 A 5.008,5.008 0 0 1 56,61 Z"
       id="path4716"
       style="opacity:0.9;fill:#000000;fill-opacity:1" />
    <path
       d="m 12,47 a 6.006,6.006 0 0 0 6,6 H 46 A 6,6 0 0 0 46,41 H 18 a 6.006,6.006 0 0 0 -6,6 z m 38,0 a 4,4 0 0 1 -4,4 H 18 a 4,4 0 0 1 0,-8 h 28 a 4,4 0 0 1 4,4 z"
       id="path4718"
       style="opacity:0.9;fill:#000000;fill-opacity:1" />
    <path
       d="M 16.707,44.293 15.293,45.707 16.586,47 15.293,48.293 16.707,49.707 18,48.414 19.293,49.707 20.707,48.293 19.414,47 20.707,45.707 19.293,44.293 18,45.586 Z"
       id="path4720"
       style="opacity:0.9;fill:#000000;fill-opacity:1" />
    <path
       d="M 23.707,49.707 25,48.414 26.293,49.707 27.707,48.293 26.414,47 27.707,45.707 26.293,44.293 25,45.586 23.707,44.293 22.293,45.707 23.586,47 22.293,48.293 Z"
       id="path4722"
       style="opacity:0.9;fill:#000000;fill-opacity:1" />
    <path
       d="M 30.707,49.707 32,48.414 33.293,49.707 34.707,48.293 33.414,47 34.707,45.707 33.293,44.293 32,45.586 30.707,44.293 29.293,45.707 30.586,47 29.293,48.293 Z"
       id="path4724"
       style="opacity:0.9;fill:#000000;fill-opacity:1" />
    <path
       d="M 37.707,49.707 39,48.414 40.293,49.707 41.707,48.293 40.414,47 41.707,45.707 40.293,44.293 39,45.586 37.707,44.293 36.293,45.707 37.586,47 36.293,48.293 Z"
       id="path4726"
       style="opacity:0.9;fill:#000000;fill-opacity:1" />
    <path
       d="M 44.707,49.707 46,48.414 47.293,49.707 48.707,48.293 47.414,47 48.707,45.707 47.293,44.293 46,45.586 44.707,44.293 43.293,45.707 44.586,47 43.293,48.293 Z"
       id="path4728"
       style="opacity:0.9;fill:#000000;fill-opacity:1" />
    <path
       d="m 22,20 h 2 v 6 h -2 z"
       id="path4730"
       style="opacity:0.9;fill:#000000;fill-opacity:1" />
    <path
       d="m 27,26 h 3 a 1,1 0 0 0 1,-1 v -4 a 1,1 0 0 0 -1,-1 h -3 a 1,1 0 0 0 -1,1 v 4 a 1,1 0 0 0 1,1 z m 1,-4 h 1 v 2 h -1 z"
       id="path4732"
       style="opacity:0.9;fill:#000000;fill-opacity:1" />
    <path
       d="m 34,26 h 3 a 1,1 0 0 0 1,-1 v -4 a 1,1 0 0 0 -1,-1 h -3 a 1,1 0 0 0 -1,1 v 4 a 1,1 0 0 0 1,1 z m 1,-4 h 1 v 2 h -1 z"
       id="path4734"
       style="opacity:0.9;fill:#000000;fill-opacity:1" />
    <path
       d="m 40,20 h 2 v 6 h -2 z"
       id="path4736"
       style="opacity:0.9;fill:#000000;fill-opacity:1" />
    <path
       d="m 22,28 h 2 v 6 h -2 z"
       id="path4738"
       style="opacity:0.9;fill:#000000;fill-opacity:1" />
    <path
       d="m 26,28 h 2 v 6 h -2 z"
       id="path4740"
       style="opacity:0.9;fill:#000000;fill-opacity:1" />
    <path
       d="m 34,28 h -3 a 1,1 0 0 0 -1,1 v 4 a 1,1 0 0 0 1,1 h 3 a 1,1 0 0 0 1,-1 v -4 a 1,1 0 0 0 -1,-1 z m -1,4 h -1 v -2 h 1 z"
       id="path4742"
       style="opacity:0.9;fill:#000000;fill-opacity:1" />
    <path
       d="m 41,28 h -3 a 1,1 0 0 0 -1,1 v 4 a 1,1 0 0 0 1,1 h 3 a 1,1 0 0 0 1,-1 v -4 a 1,1 0 0 0 -1,-1 z m -1,4 h -1 v -2 h 1 z"
       id="path4744"
       style="opacity:0.9;fill:#000000;fill-opacity:1" />
  </g>
</svg>
