<?xml version="1.0" encoding="UTF-8" standalone="no"?>
<svg
   id="Layer_3"
   height="512"
   viewBox="0 0 64 64"
   width="512"
   data-name="Layer 3"
   version="1.1"
   xmlns="http://www.w3.org/2000/svg"
   xmlns:svg="http://www.w3.org/2000/svg">
  <defs
     id="defs7846" />
  <path
     d="m22 37h20v14h-20z"
     fill="#f4b2b0"
     id="path7819"
     style="fill:#1391ff;fill-opacity:1;opacity:0.6" />
  <path
     d="m32 25a8 8 0 0 0 -8 8v4h4v-4a4 4 0 0 1 8 0h4a8 8 0 0 0 -8-8z"
     fill="#f4b2b0"
     id="path7821"
     style="fill:#1391ff;fill-opacity:1;opacity:0.6" />
  <g
     fill="#b3404a"
     id="g7841">
    <path
       d="M 57,4 H 7 a 6.006,6.006 0 0 0 -6,6 v 44 a 6.006,6.006 0 0 0 6,6 h 50 a 6.006,6.006 0 0 0 6,-6 V 10 A 6.006,6.006 0 0 0 57,4 Z M 7,6 h 50 a 4,4 0 0 1 4,4 v 6 H 3 V 10 A 4,4 0 0 1 7,6 Z M 57,58 H 7 A 4,4 0 0 1 3,54 V 18 h 58 v 36 a 4,4 0 0 1 -4,4 z"
       id="path7823"
       style="opacity:0.9;fill:#000000;fill-opacity:1" />
    <path
       d="m 56,14 a 3,3 0 1 0 -3,-3 3,3 0 0 0 3,3 z m 0,-4 a 1,1 0 1 1 -1,1 1,1 0 0 1 1,-1 z"
       id="path7825"
       style="opacity:0.9;fill:#000000;fill-opacity:1" />
    <path
       d="m 48,14 a 3,3 0 1 0 -3,-3 3,3 0 0 0 3,3 z m 0,-4 a 1,1 0 1 1 -1,1 1,1 0 0 1 1,-1 z"
       id="path7827"
       style="opacity:0.9;fill:#000000;fill-opacity:1" />
    <path
       d="m 5,21 v 6 h 2 v -5 h 5 V 20 H 6 a 1,1 0 0 0 -1,1 z"
       id="path7829"
       style="opacity:0.9;fill:#000000;fill-opacity:1" />
    <path
       d="m 58,20 h -6 v 2 h 5 v 5 h 2 v -6 a 1,1 0 0 0 -1,-1 z"
       id="path7831"
       style="opacity:0.9;fill:#000000;fill-opacity:1" />
    <path
       d="M 7,49 H 5 v 6 a 1,1 0 0 0 1,1 h 6 V 54 H 7 Z"
       id="path7833"
       style="opacity:0.9;fill:#000000;fill-opacity:1" />
    <path
       d="m 57,54 h -5 v 2 h 6 a 1,1 0 0 0 1,-1 v -6 h -2 z"
       id="path7835"
       style="opacity:0.9;fill:#000000;fill-opacity:1" />
    <path
       d="M 42,36 H 29 v -3 a 3,3 0 0 1 6,0 1,1 0 0 0 1,1 h 4 a 1,1 0 0 0 1,-1 9,9 0 0 0 -18,0 v 3 h -1 a 1,1 0 0 0 -1,1 v 14 a 1,1 0 0 0 1,1 h 20 a 1,1 0 0 0 1,-1 V 37 A 1,1 0 0 0 42,36 Z M 25,33 A 7,7 0 0 1 38.929,32 H 36.9 A 5,5 0 0 0 27,33 v 3 H 25 Z M 41,50 H 23 V 38 h 18 z"
       id="path7837"
       style="opacity:0.9;fill:#000000;fill-opacity:1" />
    <path
       d="M 31,45.816 V 48 h 2 v -2.184 a 3,3 0 1 0 -2,0 z M 32,42 a 1,1 0 1 1 -1,1 1,1 0 0 1 1,-1 z"
       id="path7839"
       style="opacity:0.9;fill:#000000;fill-opacity:1" />
  </g>
</svg>
